{"accessors":[{"bufferView":2,"componentType":5126,"count":1731,"max":[2421.462890625,908.213623046875,2824.9267578125],"min":[-2402.04150390625,-191.16616821289062,-1200.982666015625],"type":"VEC3"},{"bufferView":2,"byteOffset":20772,"componentType":5126,"count":1731,"max":[1.0,1.0,1.0],"min":[-1.0,-1.0,-1.0],"type":"VEC3"},{"bufferView":3,"componentType":5126,"count":1731,"max":[1.0,0.0035661091096699238,1.0,1.0],"min":[-1.0,-1.5279307774562767e-07,-1.0,-1.0],"type":"VEC4"},{"bufferView":1,"componentType":5126,"count":1731,"max":[7.06231689453125,7.06231689453125],"min":[-36.8422966003418,-14.033452987670898],"type":"VEC2"},{"bufferView":1,"byteOffset":13848,"componentType":5126,"count":1731,"max":[0.0,0.0],"min":[0.0,0.0],"type":"VEC2"},{"bufferView":1,"byteOffset":27696,"componentType":5126,"count":1731,"max":[0.0,0.0],"min":[0.0,0.0],"type":"VEC2"},{"bufferView":1,"byteOffset":41544,"componentType":5126,"count":1731,"max":[7.06231689453125,7.06231689453125],"min":[-36.8422966003418,-14.033452987670898],"type":"VEC2"},{"bufferView":0,"componentType":5125,"count":5196,"type":"SCALAR"},{"bufferView":2,"byteOffset":41544,"componentType":5126,"count":1025,"max":[2349.601806640625,908.213623046875,2800.98876953125],"min":[-2350.830078125,-192.1337432861328,-1100.384521484375],"type":"VEC3"},{"bufferView":2,"byteOffset":53844,"componentType":5126,"count":1025,"max":[1.0,1.0,1.0],"min":[-1.0,-1.0,-1.0],"type":"VEC3"},{"bufferView":3,"byteOffset":27696,"componentType":5126,"count":1025,"max":[1.0,0.0035661181900650263,1.0,1.0],"min":[-1.0,-4.753574671667593e-07,-1.0,1.0],"type":"VEC4"},{"bufferView":1,"byteOffset":55392,"componentType":5126,"count":1025,"max":[6.876495361328125,7.05018949508667],"min":[-7.002471923828125,-2.7509613037109375],"type":"VEC2"},{"bufferView":1,"byteOffset":63592,"componentType":5126,"count":1025,"max":[0.0,0.0],"min":[0.0,0.0],"type":"VEC2"},{"bufferView":1,"byteOffset":71792,"componentType":5126,"count":1025,"max":[0.0,0.0],"min":[0.0,0.0],"type":"VEC2"},{"bufferView":1,"byteOffset":79992,"componentType":5126,"count":1025,"max":[6.876495361328125,7.05018949508667],"min":[-7.002471923828125,-2.7509613037109375],"type":"VEC2"},{"bufferView":0,"byteOffset":20784,"componentType":5125,"count":2976,"type":"SCALAR"},{"bufferView":2,"byteOffset":66144,"componentType":5126,"count":86,"max":[2399.25830078125,395.49127197265625,2799.481201171875],"min":[0.1617431640625,395.49127197265625,998.760986328125],"type":"VEC3"},{"bufferView":2,"byteOffset":67176,"componentType":5126,"count":86,"max":[-0.0,1.0,0.0],"min":[-0.0,1.0,0.0],"type":"VEC3"},{"bufferView":3,"byteOffset":44096,"componentType":5126,"count":86,"max":[-1.0,0.0,0.0,1.0],"min":[-1.0,0.0,0.0,1.0],"type":"VEC4"},{"bufferView":1,"byteOffset":88192,"componentType":5126,"count":86,"max":[-0.00040435791015625,6.9987030029296875],"min":[-5.998146057128906,2.4969024658203125],"type":"VEC2"},{"bufferView":1,"byteOffset":88880,"componentType":5126,"count":86,"max":[0.0,0.0],"min":[0.0,0.0],"type":"VEC2"},{"bufferView":1,"byteOffset":89568,"componentType":5126,"count":86,"max":[0.0,0.0],"min":[0.0,0.0],"type":"VEC2"},{"bufferView":1,"byteOffset":90256,"componentType":5126,"count":86,"max":[-0.00040435791015625,6.9987030029296875],"min":[-5.998146057128906,2.4969024658203125],"type":"VEC2"},{"bufferView":0,"byteOffset":32688,"componentType":5125,"count":390,"type":"SCALAR"},{"bufferView":2,"byteOffset":68208,"componentType":5126,"count":104,"max":[2390.252685546875,-0.30874013900756836,1100.0732421875],"min":[-2377.23388671875,-54.50749206542969,-1161.2060546875],"type":"VEC3"},{"bufferView":2,"byteOffset":69456,"componentType":5126,"count":104,"max":[1.0,5.630679152091034e-05,1.0],"min":[-1.0,-2.0159626501481398e-07,-1.0],"type":"VEC3"},{"bufferView":3,"byteOffset":45472,"componentType":5126,"count":104,"max":[1.0,4.693778814161522e-17,1.0,1.0],"min":[-1.0,-5.121072856210079e-17,-1.0,1.0],"type":"VEC4"},{"bufferView":1,"byteOffset":90944,"componentType":5126,"count":104,"max":[23.90252685546875,-0.003087392309680581],"min":[-23.909992218017578,-0.5450749397277832],"type":"VEC2"},{"bufferView":1,"byteOffset":91776,"componentType":5126,"count":104,"max":[23.90252685546875,-0.003087392309680581],"min":[-23.909992218017578,-0.5450749397277832],"type":"VEC2"},{"bufferView":0,"byteOffset":34248,"componentType":5125,"count":264,"type":"SCALAR"},{"bufferView":2,"byteOffset":70704,"componentType":5126,"count":217,"max":[2390.252685546875,-54.50749206542969,1100.0732421875],"min":[-2377.23388671875,-54.50749206542969,-1161.2060546875],"type":"VEC3"},{"bufferView":2,"byteOffset":73308,"componentType":5126,"count":217,"max":[-0.0,-1.0,0.0],"min":[-0.0,-1.0,0.0],"type":"VEC3"},{"bufferView":3,"byteOffset":47136,"componentType":5126,"count":217,"max":[1.0,0.0,1.089520310415537e-06,1.0],"min":[1.0,0.0,-1.0901246696448652e-06,1.0],"type":"VEC4"},{"bufferView":1,"byteOffset":92608,"componentType":5126,"count":217,"max":[3.2653794288635254,1.5401099920272827],"min":[-3.8858509063720703,-1.8518091440200806],"type":"VEC2"},{"bufferView":1,"byteOffset":94344,"componentType":5126,"count":217,"max":[3.2653794288635254,1.5401099920272827],"min":[-3.8858509063720703,-1.8518091440200806],"type":"VEC2"},{"bufferView":0,"byteOffset":35304,"componentType":5125,"count":702,"type":"SCALAR"},{"bufferView":2,"byteOffset":75912,"componentType":5126,"count":135,"max":[43.743896484375,-0.30874013900756836,1100.0732421875],"min":[-2377.23388671875,-0.30875205993652344,-1160.595703125],"type":"VEC3"},{"bufferView":2,"byteOffset":77532,"componentType":5126,"count":135,"max":[2.725164165440219e-07,1.0,4.440181911036234e-08],"min":[-3.269977710829153e-08,1.0,-4.140871823210546e-08],"type":"VEC3"},{"bufferView":3,"byteOffset":50608,"componentType":5126,"count":135,"max":[-1.0,2.725164165440219e-07,1.176906557478374e-21,1.0],"min":[-1.0,-3.269977710829153e-08,0.0,1.0],"type":"VEC4"},{"bufferView":1,"byteOffset":96080,"componentType":5126,"count":135,"max":[5.943084716796875,2.75018310546875],"min":[-0.1093597412109375,-2.9014892578125],"type":"VEC2"},{"bufferView":0,"byteOffset":38112,"componentType":5125,"count":390,"type":"SCALAR"},{"bufferView":2,"byteOffset":79152,"componentType":5126,"count":33,"max":[2390.252685546875,-0.30874013900756836,1100.0732421875],"min":[43.743896484375,-0.30875205993652344,-1161.2060546875],"type":"VEC3"},{"bufferView":2,"byteOffset":79548,"componentType":5126,"count":33,"max":[-0.0,1.0,0.0],"min":[-5.2050643795098495e-09,1.0,-4.140520459827712e-08],"type":"VEC3"},{"bufferView":3,"byteOffset":52768,"componentType":5126,"count":33,"max":[-1.0,0.0,0.0,1.0],"min":[-1.0,-5.2050643795098495e-09,-5.611451597207357e-28,1.0],"type":"VEC4"},{"bufferView":1,"byteOffset":97160,"componentType":5126,"count":33,"max":[-0.1093597412109375,2.75018310546875],"min":[-5.9756317138671875,-2.90301513671875],"type":"VEC2"},{"bufferView":1,"byteOffset":97424,"componentType":5126,"count":33,"max":[-0.1093597412109375,2.75018310546875],"min":[-5.9756317138671875,-2.90301513671875],"type":"VEC2"},{"bufferView":0,"byteOffset":39672,"componentType":5125,"count":108,"type":"SCALAR"},{"bufferView":2,"byteOffset":79944,"componentType":5126,"count":18,"max":[-752.777099609375,-0.30875205993652344,525.9552001953125],"min":[-1584.539794921875,-0.30875205993652344,-566.0491943359375],"type":"VEC3"},{"bufferView":2,"byteOffset":80160,"componentType":5126,"count":18,"max":[-0.0,1.0,0.0],"min":[-0.0,1.0,0.0],"type":"VEC3"},{"bufferView":3,"byteOffset":53296,"componentType":5126,"count":18,"max":[-1.0,0.0,0.0,1.0],"min":[-1.0,0.0,0.0,1.0],"type":"VEC4"},{"bufferView":1,"byteOffset":97688,"componentType":5126,"count":18,"max":[3.9613494873046875,1.3148880004882812],"min":[1.8819427490234375,-1.4151229858398438],"type":"VEC2"},{"bufferView":0,"byteOffset":40104,"componentType":5125,"count":48,"type":"SCALAR"},{"bufferView":2,"byteOffset":80376,"componentType":5126,"count":52,"max":[-364.556884765625,-0.30875205993652344,812.188720703125],"min":[-1960.723876953125,-0.30875205993652344,-891.9158935546875],"type":"VEC3"},{"bufferView":2,"byteOffset":81000,"componentType":5126,"count":52,"max":[-0.0,1.0,0.0],"min":[-0.0,1.0,0.0],"type":"VEC3"},{"bufferView":3,"byteOffset":53584,"componentType":5126,"count":52,"max":[-1.0,0.0,0.0,1.0],"min":[-1.0,0.0,0.0,1.0],"type":"VEC4"},{"bufferView":1,"byteOffset":97832,"componentType":5126,"count":52,"max":[4.9018096923828125,2.0304718017578125],"min":[0.9113922119140625,-2.2297897338867188],"type":"VEC2"},{"bufferView":0,"byteOffset":40296,"componentType":5125,"count":156,"type":"SCALAR"},{"bufferView":2,"byteOffset":81624,"componentType":5126,"count":32,"max":[1464.4559326171875,-55.747318267822266,1161.151123046875],"min":[-2441.318603515625,-98.2601318359375,-1130.12109375],"type":"VEC3"},{"bufferView":2,"byteOffset":82008,"componentType":5126,"count":32,"max":[1.0,0.00014356868632603437,1.0],"min":[-1.0,-1.0,-1.0],"type":"VEC3"},{"bufferView":3,"byteOffset":54416,"componentType":5126,"count":32,"max":[1.0,5.279510162381484e-09,1.0,1.0],"min":[-1.0,-1.5556792397729692e-17,-1.0,1.0],"type":"VEC4"},{"bufferView":1,"byteOffset":98248,"componentType":5126,"count":32,"max":[24.413156509399414,2.302302360534668],"min":[-24.413211822509766,-2.2802300453186035],"type":"VEC2"},{"bufferView":1,"byteOffset":98504,"componentType":5126,"count":32,"max":[24.413156509399414,2.302302360534668],"min":[-24.413211822509766,-2.2802300453186035],"type":"VEC2"},{"bufferView":0,"byteOffset":40920,"componentType":5125,"count":48,"type":"SCALAR"},{"bufferView":2,"byteOffset":82392,"componentType":5126,"count":8,"max":[1464.4559326171875,-55.747318267822266,1161.1456298828125],"min":[-2441.318603515625,-55.747318267822266,-1130.12109375],"type":"VEC3"},{"bufferView":2,"byteOffset":82488,"componentType":5126,"count":8,"max":[-0.0,1.0,0.0],"min":[-0.0,1.0,0.0],"type":"VEC3"},{"bufferView":3,"byteOffset":54928,"componentType":5126,"count":8,"max":[-1.0,0.0,1.1575059488677653e-07,1.0],"min":[-1.0,0.0,0.0,1.0],"type":"VEC4"},{"bufferView":1,"byteOffset":98760,"componentType":5126,"count":8,"max":[6.103296756744385,2.9028639793395996],"min":[-3.661139965057373,-2.8253026008605957],"type":"VEC2"},{"bufferView":0,"byteOffset":41112,"componentType":5125,"count":12,"type":"SCALAR"},{"bufferView":2,"byteOffset":82584,"componentType":5126,"count":20,"max":[2359.70458984375,85.37582397460938,1097.064208984375],"min":[-2285.51025390625,-7.941961288452148,-1115.29541015625],"type":"VEC3"},{"bufferView":2,"byteOffset":82824,"componentType":5126,"count":20,"max":[1.0,1.0,0.0],"min":[-1.0,0.0,-1.0],"type":"VEC3"},{"bufferView":3,"byteOffset":55056,"componentType":5126,"count":20,"max":[-0.0,0.0,1.0,1.0],"min":[-1.0,0.0,-1.0,1.0],"type":"VEC4"},{"bufferView":1,"byteOffset":98824,"componentType":5126,"count":20,"max":[22.8551025390625,2.6289825439453125],"min":[-23.5970458984375,-2.788238525390625],"type":"VEC2"},{"bufferView":1,"byteOffset":98984,"componentType":5126,"count":20,"max":[22.8551025390625,2.6289825439453125],"min":[-23.5970458984375,-2.788238525390625],"type":"VEC2"},{"bufferView":0,"byteOffset":41160,"componentType":5125,"count":36,"type":"SCALAR"},{"bufferView":2,"byteOffset":83064,"componentType":5126,"count":8,"max":[2359.70458984375,85.37582397460938,1097.064208984375],"min":[-2285.51025390625,-7.941961288452148,1051.593017578125],"type":"VEC3"},{"bufferView":2,"byteOffset":83160,"componentType":5126,"count":8,"max":[-0.0,1.0,1.0],"min":[-0.0,0.0,0.0],"type":"VEC3"},{"bufferView":3,"byteOffset":55376,"componentType":5126,"count":8,"max":[1.0,0.0,0.0,1.0],"min":[-1.0,0.0,0.0,1.0],"type":"VEC4"},{"bufferView":1,"byteOffset":99144,"componentType":5126,"count":8,"max":[5.899261474609375,2.7426605224609375],"min":[-5.799261569976807,-0.01985490322113037],"type":"VEC2"},{"bufferView":1,"byteOffset":99208,"componentType":5126,"count":8,"max":[5.899261474609375,2.7426605224609375],"min":[-5.799261569976807,-0.01985490322113037],"type":"VEC2"},{"bufferView":0,"byteOffset":41304,"componentType":5125,"count":12,"type":"SCALAR"},{"bufferView":2,"byteOffset":83256,"componentType":5126,"count":151,"max":[183.57772827148438,268.0155334472656,465.52276611328125],"min":[-805.4779052734375,-462.5931701660156,-700.42041015625],"type":"VEC3"},{"bufferView":2,"byteOffset":85068,"componentType":5126,"count":151,"max":[1.0,1.0,1.0],"min":[-1.0,-1.0,-1.0],"type":"VEC3"},{"bufferView":3,"byteOffset":55504,"componentType":5126,"count":151,"max":[1.0,4.1258244891650975e-06,1.0,1.0],"min":[-1.0,-4.221773451718036e-06,-1.0,1.0],"type":"VEC4"},{"bufferView":1,"byteOffset":99272,"componentType":5126,"count":151,"max":[2.6070613861083984,2.426140785217285],"min":[-2.313821315765381,-2.0226731300354004],"type":"VEC2"},{"bufferView":1,"byteOffset":100480,"componentType":5126,"count":151,"max":[0.0,0.0],"min":[0.0,0.0],"type":"VEC2"},{"bufferView":1,"byteOffset":101688,"componentType":5126,"count":151,"max":[0.0,0.0],"min":[0.0,0.0],"type":"VEC2"},{"bufferView":0,"byteOffset":41352,"componentType":5125,"count":276,"type":"SCALAR"},{"bufferView":2,"byteOffset":86880,"componentType":5126,"count":136,"max":[183.58383178710938,268.0155334472656,-103.04641723632812],"min":[-308.5135803222656,-462.5931701660156,-700.42041015625],"type":"VEC3"},{"bufferView":2,"byteOffset":88512,"componentType":5126,"count":136,"max":[1.0,1.0,1.0],"min":[-1.0,-1.0,-1.0],"type":"VEC3"},{"bufferView":3,"byteOffset":57920,"componentType":5126,"count":136,"max":[1.0,2.8951598096682574e-07,1.0,1.0],"min":[-1.0,-5.143609769220348e-07,-1.0,1.0],"type":"VEC4"},{"bufferView":1,"byteOffset":102896,"componentType":5126,"count":136,"max":[1.7510509490966797,0.6700706481933594],"min":[-1.751062273979187,-2.0226731300354004],"type":"VEC2"},{"bufferView":1,"byteOffset":103984,"componentType":5126,"count":136,"max":[0.0,0.0],"min":[0.0,0.0],"type":"VEC2"},{"bufferView":1,"byteOffset":105072,"componentType":5126,"count":136,"max":[0.0,0.0],"min":[0.0,0.0],"type":"VEC2"},{"bufferView":0,"byteOffset":42456,"componentType":5125,"count":252,"type":"SCALAR"},{"bufferView":2,"byteOffset":90144,"componentType":5126,"count":504,"max":[2341.6220703125,3790.085693359375,13.51834487915039],"min":[-2009.1929931640625,567.0079956054688,-2532.608642578125],"type":"VEC3"},{"bufferView":2,"byteOffset":96192,"componentType":5126,"count":504,"max":[1.0,1.0,1.0],"min":[-1.0,-1.0,-1.0],"type":"VEC3"},{"bufferView":1,"byteOffset":106160,"componentType":5126,"count":504,"max":[0.10099029541015625,43.44007873535156],"min":[-0.10099029541015625,-3.8852272033691406],"type":"VEC2"},{"bufferView":0,"byteOffset":43464,"componentType":5125,"count":756,"type":"SCALAR"},{"bufferView":2,"byteOffset":102240,"componentType":5126,"count":64,"max":[70.709228515625,279.81329345703125,5.3802490234375],"min":[-70.709228515625,-9.376821517944336,-6.1370849609375],"type":"VEC3"},{"bufferView":2,"byteOffset":103008,"componentType":5126,"count":64,"max":[1.0,1.0,1.0],"min":[-1.0,-1.0,-1.0],"type":"VEC3"},{"bufferView":3,"byteOffset":60096,"componentType":5126,"count":64,"max":[1.0,0.0,1.0,1.0],"min":[-1.0,0.0,-1.0,1.0],"type":"VEC4"},{"bufferView":1,"byteOffset":110192,"componentType":5126,"count":64,"max":[1.4141845703125,2.8919010162353516],"min":[0.0,0.0],"type":"VEC2"},{"bufferView":1,"byteOffset":110704,"componentType":5126,"count":64,"max":[0.0,0.0],"min":[0.0,0.0],"type":"VEC2"},{"bufferView":1,"byteOffset":111216,"componentType":5126,"count":64,"max":[0.0,0.0],"min":[0.0,0.0],"type":"VEC2"},{"bufferView":1,"byteOffset":111728,"componentType":5126,"count":64,"max":[1.4141845703125,2.8919010162353516],"min":[0.0,0.0],"type":"VEC2"},{"bufferView":0,"byteOffset":46488,"componentType":5125,"count":132,"type":"SCALAR"},{"bufferView":2,"byteOffset":103776,"componentType":5126,"count":24,"max":[70.709228515625,275.5218200683594,3.082275390625],"min":[-59.796142578125,-9.376821517944336,-3.680419921875],"type":"VEC3"},{"bufferView":2,"byteOffset":104064,"componentType":5126,"count":24,"max":[1.0,1.0,1.0],"min":[-1.0,-1.0,-1.0],"type":"VEC3"},{"bufferView":3,"byteOffset":61120,"componentType":5126,"count":24,"max":[1.0,0.0,1.0,1.0],"min":[-1.0,0.0,-1.0,1.0],"type":"VEC4"},{"bufferView":1,"byteOffset":112240,"componentType":5126,"count":24,"max":[1.3050537109375,2.8489863872528076],"min":[0.0,0.0],"type":"VEC2"},{"bufferView":1,"byteOffset":112432,"componentType":5126,"count":24,"max":[1.3050537109375,2.8489863872528076],"min":[0.0,0.0],"type":"VEC2"},{"bufferView":0,"byteOffset":47016,"componentType":5125,"count":36,"type":"SCALAR"},{"bufferView":2,"byteOffset":104352,"componentType":5126,"count":81,"max":[4.027634620666504,1.1474609375,4.016913414001465],"min":[-4.027634620666504,-0.3173828125,-4.016913414001465],"type":"VEC3"},{"bufferView":2,"byteOffset":105324,"componentType":5126,"count":81,"max":[1.0,0.9793091416358948,0.9474793076515198],"min":[-1.0,-1.0,-0.9474793672561646],"type":"VEC3"},{"bufferView":1,"byteOffset":112624,"componentType":5126,"count":81,"max":[0.04027634859085083,0.040169134736061096],"min":[-0.04027634859085083,-0.040169134736061096],"type":"VEC2"},{"bufferView":0,"byteOffset":47160,"componentType":5125,"count":120,"type":"SCALAR"},{"bufferView":2,"byteOffset":106296,"componentType":5126,"count":100,"max":[4.5278801918029785,1.879668951034546,4.270553112030029],"min":[-4.527901649475098,-0.3173828125,-4.273312568664551],"type":"VEC3"},{"bufferView":2,"byteOffset":107496,"componentType":5126,"count":100,"max":[0.9761090278625488,0.9033542275428772,0.9435009360313416],"min":[-0.9761090278625488,-1.0,-0.9435009360313416],"type":"VEC3"},{"bufferView":1,"byteOffset":113272,"componentType":5126,"count":100,"max":[0.04527822881937027,0.04434152692556381],"min":[-0.04527844116091728,-0.04436645656824112],"type":"VEC2"},{"bufferView":0,"byteOffset":47640,"componentType":5125,"count":120,"type":"SCALAR"},{"bufferView":2,"byteOffset":108696,"componentType":5126,"count":62,"max":[4.027634620666504,4.669551849365234,4.016913414001465],"min":[-4.027634620666504,-0.3173828125,-4.016913414001465],"type":"VEC3"},{"bufferView":2,"byteOffset":109440,"componentType":5126,"count":62,"max":[0.9919838905334473,1.0,0.9389106631278992],"min":[-0.9919830560684204,-1.0,-0.9387714266777039],"type":"VEC3"},{"bufferView":1,"byteOffset":114072,"componentType":5126,"count":62,"max":[0.04027634859085083,0.042583633214235306],"min":[-0.04027634859085083,-0.040169134736061096],"type":"VEC2"},{"bufferView":0,"byteOffset":48120,"componentType":5125,"count":120,"type":"SCALAR"},{"bufferView":2,"byteOffset":110184,"componentType":5126,"count":886,"max":[3.0,3.0,3.0],"min":[-3.0,-3.0,-3.0],"type":"VEC3"},{"bufferView":2,"byteOffset":120816,"componentType":5126,"count":886,"max":[1.0,1.0,1.0],"min":[-1.0,-1.0,-1.0],"type":"VEC3"},{"bufferView":1,"byteOffset":114568,"componentType":5126,"count":886,"max":[0.02106139250099659,0.02106139250099659],"min":[-0.02106139250099659,-0.02106139250099659],"type":"VEC2"},{"bufferView":0,"byteOffset":48600,"componentType":5125,"count":960,"type":"SCALAR"},{"bufferView":2,"byteOffset":131448,"componentType":5126,"count":81,"max":[4.027634620666504,1.1474609375,4.016913414001465],"min":[-4.027634620666504,-0.3173828125,-4.016913414001465],"type":"VEC3"},{"bufferView":2,"byteOffset":132420,"componentType":5126,"count":81,"max":[1.0,0.9793091416358948,0.9474793076515198],"min":[-1.0,-1.0,-0.9474793672561646],"type":"VEC3"},{"bufferView":1,"byteOffset":121656,"componentType":5126,"count":81,"max":[0.04027634859085083,0.040169134736061096],"min":[-0.04027634859085083,-0.040169134736061096],"type":"VEC2"},{"bufferView":0,"byteOffset":52440,"componentType":5125,"count":120,"type":"SCALAR"},{"bufferView":2,"byteOffset":133392,"componentType":5126,"count":100,"max":[4.5278801918029785,1.879668951034546,4.270553112030029],"min":[-4.527901649475098,-0.3173828125,-4.273312568664551],"type":"VEC3"},{"bufferView":2,"byteOffset":134592,"componentType":5126,"count":100,"max":[0.9761090278625488,0.9033542275428772,0.9435009360313416],"min":[-0.9761090278625488,-1.0,-0.9435009360313416],"type":"VEC3"},{"bufferView":1,"byteOffset":122304,"componentType":5126,"count":100,"max":[0.04527822881937027,0.04434152692556381],"min":[-0.04527844116091728,-0.04436645656824112],"type":"VEC2"},{"bufferView":0,"byteOffset":52920,"componentType":5125,"count":120,"type":"SCALAR"},{"bufferView":2,"byteOffset":135792,"componentType":5126,"count":62,"max":[4.027634620666504,4.669551849365234,4.016913414001465],"min":[-4.027634620666504,-0.3173828125,-4.016913414001465],"type":"VEC3"},{"bufferView":2,"byteOffset":136536,"componentType":5126,"count":62,"max":[0.9919838905334473,1.0,0.9389106631278992],"min":[-0.9919830560684204,-1.0,-0.9387714266777039],"type":"VEC3"},{"bufferView":1,"byteOffset":123104,"componentType":5126,"count":62,"max":[0.04027634859085083,0.042583633214235306],"min":[-0.04027634859085083,-0.040169134736061096],"type":"VEC2"},{"bufferView":0,"byteOffset":53400,"componentType":5125,"count":120,"type":"SCALAR"},{"bufferView":2,"byteOffset":137280,"componentType":5126,"count":886,"max":[3.0,3.0,3.0],"min":[-3.0,-3.0,-3.0],"type":"VEC3"},{"bufferView":2,"byteOffset":147912,"componentType":5126,"count":886,"max":[1.0,1.0,1.0],"min":[-1.0,-1.0,-1.0],"type":"VEC3"},{"bufferView":1,"byteOffset":123600,"componentType":5126,"count":886,"max":[0.02106139250099659,0.02106139250099659],"min":[-0.02106139250099659,-0.02106139250099659],"type":"VEC2"},{"bufferView":0,"byteOffset":53880,"componentType":5125,"count":960,"type":"SCALAR"},{"bufferView":2,"byteOffset":158544,"componentType":5126,"count":64,"max":[70.709228515625,279.81329345703125,5.3802490234375],"min":[-70.709228515625,-9.376821517944336,-6.1370849609375],"type":"VEC3"},{"bufferView":2,"byteOffset":159312,"componentType":5126,"count":64,"max":[1.0,1.0,1.0],"min":[-1.0,-1.0,-1.0],"type":"VEC3"},{"bufferView":3,"byteOffset":61504,"componentType":5126,"count":64,"max":[1.0,0.0,1.0,1.0],"min":[-1.0,0.0,-1.0,1.0],"type":"VEC4"},{"bufferView":1,"byteOffset":130688,"componentType":5126,"count":64,"max":[1.4141845703125,2.8919010162353516],"min":[0.0,0.0],"type":"VEC2"},{"bufferView":1,"byteOffset":131200,"componentType":5126,"count":64,"max":[0.0,0.0],"min":[0.0,0.0],"type":"VEC2"},{"bufferView":1,"byteOffset":131712,"componentType":5126,"count":64,"max":[0.0,0.0],"min":[0.0,0.0],"type":"VEC2"},{"bufferView":1,"byteOffset":132224,"componentType":5126,"count":64,"max":[1.4141845703125,2.8919010162353516],"min":[0.0,0.0],"type":"VEC2"},{"bufferView":0,"byteOffset":57720,"componentType":5125,"count":132,"type":"SCALAR"},{"bufferView":2,"byteOffset":160080,"componentType":5126,"count":24,"max":[70.709228515625,275.5218200683594,3.082275390625],"min":[-59.796142578125,-9.376821517944336,-3.680419921875],"type":"VEC3"},{"bufferView":2,"byteOffset":160368,"componentType":5126,"count":24,"max":[1.0,1.0,1.0],"min":[-1.0,-1.0,-1.0],"type":"VEC3"},{"bufferView":3,"byteOffset":62528,"componentType":5126,"count":24,"max":[1.0,0.0,1.0,1.0],"min":[-1.0,0.0,-1.0,1.0],"type":"VEC4"},{"bufferView":1,"byteOffset":132736,"componentType":5126,"count":24,"max":[1.3050537109375,2.8489863872528076],"min":[0.0,0.0],"type":"VEC2"},{"bufferView":1,"byteOffset":132928,"componentType":5126,"count":24,"max":[1.3050537109375,2.8489863872528076],"min":[0.0,0.0],"type":"VEC2"},{"bufferView":0,"byteOffset":58248,"componentType":5125,"count":36,"type":"SCALAR"},{"bufferView":2,"byteOffset":160656,"componentType":5126,"count":81,"max":[4.027634620666504,1.1474609375,4.016913414001465],"min":[-4.027634620666504,-0.3173828125,-4.016913414001465],"type":"VEC3"},{"bufferView":2,"byteOffset":161628,"componentType":5126,"count":81,"max":[1.0,0.9793091416358948,0.9474793076515198],"min":[-1.0,-1.0,-0.9474793672561646],"type":"VEC3"},{"bufferView":1,"byteOffset":133120,"componentType":5126,"count":81,"max":[0.04027634859085083,0.040169134736061096],"min":[-0.04027634859085083,-0.040169134736061096],"type":"VEC2"},{"bufferView":0,"byteOffset":58392,"componentType":5125,"count":120,"type":"SCALAR"},{"bufferView":2,"byteOffset":162600,"componentType":5126,"count":100,"max":[4.5278801918029785,1.879668951034546,4.270553112030029],"min":[-4.527901649475098,-0.3173828125,-4.273312568664551],"type":"VEC3"},{"bufferView":2,"byteOffset":163800,"componentType":5126,"count":100,"max":[0.9761090278625488,0.9033542275428772,0.9435009360313416],"min":[-0.9761090278625488,-1.0,-0.9435009360313416],"type":"VEC3"},{"bufferView":1,"byteOffset":133768,"componentType":5126,"count":100,"max":[0.04527822881937027,0.04434152692556381],"min":[-0.04527844116091728,-0.04436645656824112],"type":"VEC2"},{"bufferView":0,"byteOffset":58872,"componentType":5125,"count":120,"type":"SCALAR"},{"bufferView":2,"byteOffset":165000,"componentType":5126,"count":62,"max":[4.027634620666504,4.669551849365234,4.016913414001465],"min":[-4.027634620666504,-0.3173828125,-4.016913414001465],"type":"VEC3"},{"bufferView":2,"byteOffset":165744,"componentType":5126,"count":62,"max":[0.9919838905334473,1.0,0.9389106631278992],"min":[-0.9919830560684204,-1.0,-0.9387714266777039],"type":"VEC3"},{"bufferView":1,"byteOffset":134568,"componentType":5126,"count":62,"max":[0.04027634859085083,0.042583633214235306],"min":[-0.04027634859085083,-0.040169134736061096],"type":"VEC2"},{"bufferView":0,"byteOffset":59352,"componentType":5125,"count":120,"type":"SCALAR"},{"bufferView":2,"byteOffset":166488,"componentType":5126,"count":886,"max":[3.0,3.0,3.0],"min":[-3.0,-3.0,-3.0],"type":"VEC3"},{"bufferView":2,"byteOffset":177120,"componentType":5126,"count":886,"max":[1.0,1.0,1.0],"min":[-1.0,-1.0,-1.0],"type":"VEC3"},{"bufferView":1,"byteOffset":135064,"componentType":5126,"count":886,"max":[0.02106139250099659,0.02106139250099659],"min":[-0.02106139250099659,-0.02106139250099659],"type":"VEC2"},{"bufferView":0,"byteOffset":59832,"componentType":5125,"count":960,"type":"SCALAR"},{"bufferView":2,"byteOffset":187752,"componentType":5126,"count":81,"max":[4.027634620666504,1.1474609375,4.016913414001465],"min":[-4.027634620666504,-0.3173828125,-4.016913414001465],"type":"VEC3"},{"bufferView":2,"byteOffset":188724,"componentType":5126,"count":81,"max":[1.0,0.9793091416358948,0.9474793076515198],"min":[-1.0,-1.0,-0.9474793672561646],"type":"VEC3"},{"bufferView":1,"byteOffset":142152,"componentType":5126,"count":81,"max":[0.04027634859085083,0.040169134736061096],"min":[-0.04027634859085083,-0.040169134736061096],"type":"VEC2"},{"bufferView":0,"byteOffset":63672,"componentType":5125,"count":120,"type":"SCALAR"},{"bufferView":2,"byteOffset":189696,"componentType":5126,"count":100,"max":[4.5278801918029785,1.879668951034546,4.270553112030029],"min":[-4.527901649475098,-0.3173828125,-4.273312568664551],"type":"VEC3"},{"bufferView":2,"byteOffset":190896,"componentType":5126,"count":100,"max":[0.9761090278625488,0.9033542275428772,0.9435009360313416],"min":[-0.9761090278625488,-1.0,-0.9435009360313416],"type":"VEC3"},{"bufferView":1,"byteOffset":142800,"componentType":5126,"count":100,"max":[0.04527822881937027,0.04434152692556381],"min":[-0.04527844116091728,-0.04436645656824112],"type":"VEC2"},{"bufferView":0,"byteOffset":64152,"componentType":5125,"count":120,"type":"SCALAR"},{"bufferView":2,"byteOffset":192096,"componentType":5126,"count":62,"max":[4.027634620666504,4.669551849365234,4.016913414001465],"min":[-4.027634620666504,-0.3173828125,-4.016913414001465],"type":"VEC3"},{"bufferView":2,"byteOffset":192840,"componentType":5126,"count":62,"max":[0.9919838905334473,1.0,0.9389106631278992],"min":[-0.9919830560684204,-1.0,-0.9387714266777039],"type":"VEC3"},{"bufferView":1,"byteOffset":143600,"componentType":5126,"count":62,"max":[0.04027634859085083,0.042583633214235306],"min":[-0.04027634859085083,-0.040169134736061096],"type":"VEC2"},{"bufferView":0,"byteOffset":64632,"componentType":5125,"count":120,"type":"SCALAR"},{"bufferView":2,"byteOffset":193584,"componentType":5126,"count":886,"max":[3.0,3.0,3.0],"min":[-3.0,-3.0,-3.0],"type":"VEC3"},{"bufferView":2,"byteOffset":204216,"componentType":5126,"count":886,"max":[1.0,1.0,1.0],"min":[-1.0,-1.0,-1.0],"type":"VEC3"},{"bufferView":1,"byteOffset":144096,"componentType":5126,"count":886,"max":[0.02106139250099659,0.02106139250099659],"min":[-0.02106139250099659,-0.02106139250099659],"type":"VEC2"},{"bufferView":0,"byteOffset":65112,"componentType":5125,"count":960,"type":"SCALAR"},{"bufferView":2,"byteOffset":214848,"componentType":5126,"count":64,"max":[70.709228515625,279.81329345703125,5.3802490234375],"min":[-70.709228515625,-9.376821517944336,-6.1370849609375],"type":"VEC3"},{"bufferView":2,"byteOffset":215616,"componentType":5126,"count":64,"max":[1.0,1.0,1.0],"min":[-1.0,-1.0,-1.0],"type":"VEC3"},{"bufferView":3,"byteOffset":62912,"componentType":5126,"count":64,"max":[1.0,0.0,1.0,1.0],"min":[-1.0,0.0,-1.0,1.0],"type":"VEC4"},{"bufferView":1,"byteOffset":151184,"componentType":5126,"count":64,"max":[1.4141845703125,2.8919010162353516],"min":[0.0,0.0],"type":"VEC2"},{"bufferView":1,"byteOffset":151696,"componentType":5126,"count":64,"max":[0.0,0.0],"min":[0.0,0.0],"type":"VEC2"},{"bufferView":1,"byteOffset":152208,"componentType":5126,"count":64,"max":[0.0,0.0],"min":[0.0,0.0],"type":"VEC2"},{"bufferView":1,"byteOffset":152720,"componentType":5126,"count":64,"max":[1.4141845703125,2.8919010162353516],"min":[0.0,0.0],"type":"VEC2"},{"bufferView":0,"byteOffset":68952,"componentType":5125,"count":132,"type":"SCALAR"},{"bufferView":2,"byteOffset":216384,"componentType":5126,"count":24,"max":[70.709228515625,275.5218200683594,3.082275390625],"min":[-59.796142578125,-9.376821517944336,-3.680419921875],"type":"VEC3"},{"bufferView":2,"byteOffset":216672,"componentType":5126,"count":24,"max":[1.0,1.0,1.0],"min":[-1.0,-1.0,-1.0],"type":"VEC3"},{"bufferView":3,"byteOffset":63936,"componentType":5126,"count":24,"max":[1.0,0.0,1.0,1.0],"min":[-1.0,0.0,-1.0,1.0],"type":"VEC4"},{"bufferView":1,"byteOffset":153232,"componentType":5126,"count":24,"max":[1.3050537109375,2.8489863872528076],"min":[0.0,0.0],"type":"VEC2"},{"bufferView":1,"byteOffset":153424,"componentType":5126,"count":24,"max":[1.3050537109375,2.8489863872528076],"min":[0.0,0.0],"type":"VEC2"},{"bufferView":0,"byteOffset":69480,"componentType":5125,"count":36,"type":"SCALAR"},{"bufferView":2,"byteOffset":216960,"componentType":5126,"count":81,"max":[4.027634620666504,1.1474609375,4.016913414001465],"min":[-4.027634620666504,-0.3173828125,-4.016913414001465],"type":"VEC3"},{"bufferView":2,"byteOffset":217932,"componentType":5126,"count":81,"max":[1.0,0.9793091416358948,0.9474793076515198],"min":[-1.0,-1.0,-0.9474793672561646],"type":"VEC3"},{"bufferView":1,"byteOffset":153616,"componentType":5126,"count":81,"max":[0.04027634859085083,0.040169134736061096],"min":[-0.04027634859085083,-0.040169134736061096],"type":"VEC2"},{"bufferView":0,"byteOffset":69624,"componentType":5125,"count":120,"type":"SCALAR"},{"bufferView":2,"byteOffset":218904,"componentType":5126,"count":100,"max":[4.5278801918029785,1.879668951034546,4.270553112030029],"min":[-4.527901649475098,-0.3173828125,-4.273312568664551],"type":"VEC3"},{"bufferView":2,"byteOffset":220104,"componentType":5126,"count":100,"max":[0.9761090278625488,0.9033542275428772,0.9435009360313416],"min":[-0.9761090278625488,-1.0,-0.9435009360313416],"type":"VEC3"},{"bufferView":1,"byteOffset":154264,"componentType":5126,"count":100,"max":[0.04527822881937027,0.04434152692556381],"min":[-0.04527844116091728,-0.04436645656824112],"type":"VEC2"},{"bufferView":0,"byteOffset":70104,"componentType":5125,"count":120,"type":"SCALAR"},{"bufferView":2,"byteOffset":221304,"componentType":5126,"count":62,"max":[4.027634620666504,4.669551849365234,4.016913414001465],"min":[-4.027634620666504,-0.3173828125,-4.016913414001465],"type":"VEC3"},{"bufferView":2,"byteOffset":222048,"componentType":5126,"count":62,"max":[0.9919838905334473,1.0,0.9389106631278992],"min":[-0.9919830560684204,-1.0,-0.9387714266777039],"type":"VEC3"},{"bufferView":1,"byteOffset":155064,"componentType":5126,"count":62,"max":[0.04027634859085083,0.042583633214235306],"min":[-0.04027634859085083,-0.040169134736061096],"type":"VEC2"},{"bufferView":0,"byteOffset":70584,"componentType":5125,"count":120,"type":"SCALAR"},{"bufferView":2,"byteOffset":222792,"componentType":5126,"count":886,"max":[3.0,3.0,3.0],"min":[-3.0,-3.0,-3.0],"type":"VEC3"},{"bufferView":2,"byteOffset":233424,"componentType":5126,"count":886,"max":[1.0,1.0,1.0],"min":[-1.0,-1.0,-1.0],"type":"VEC3"},{"bufferView":1,"byteOffset":155560,"componentType":5126,"count":886,"max":[0.02106139250099659,0.02106139250099659],"min":[-0.02106139250099659,-0.02106139250099659],"type":"VEC2"},{"bufferView":0,"byteOffset":71064,"componentType":5125,"count":960,"type":"SCALAR"},{"bufferView":2,"byteOffset":244056,"componentType":5126,"count":81,"max":[4.027634620666504,1.1474609375,4.016913414001465],"min":[-4.027634620666504,-0.3173828125,-4.016913414001465],"type":"VEC3"},{"bufferView":2,"byteOffset":245028,"componentType":5126,"count":81,"max":[1.0,0.9793091416358948,0.9474793076515198],"min":[-1.0,-1.0,-0.9474793672561646],"type":"VEC3"},{"bufferView":1,"byteOffset":162648,"componentType":5126,"count":81,"max":[0.04027634859085083,0.040169134736061096],"min":[-0.04027634859085083,-0.040169134736061096],"type":"VEC2"},{"bufferView":0,"byteOffset":74904,"componentType":5125,"count":120,"type":"SCALAR"},{"bufferView":2,"byteOffset":246000,"componentType":5126,"count":100,"max":[4.5278801918029785,1.879668951034546,4.270553112030029],"min":[-4.527901649475098,-0.3173828125,-4.273312568664551],"type":"VEC3"},{"bufferView":2,"byteOffset":247200,"componentType":5126,"count":100,"max":[0.9761090278625488,0.9033542275428772,0.9435009360313416],"min":[-0.9761090278625488,-1.0,-0.9435009360313416],"type":"VEC3"},{"bufferView":1,"byteOffset":163296,"componentType":5126,"count":100,"max":[0.04527822881937027,0.04434152692556381],"min":[-0.04527844116091728,-0.04436645656824112],"type":"VEC2"},{"bufferView":0,"byteOffset":75384,"componentType":5125,"count":120,"type":"SCALAR"},{"bufferView":2,"byteOffset":248400,"componentType":5126,"count":62,"max":[4.027634620666504,4.669551849365234,4.016913414001465],"min":[-4.027634620666504,-0.3173828125,-4.016913414001465],"type":"VEC3"},{"bufferView":2,"byteOffset":249144,"componentType":5126,"count":62,"max":[0.9919838905334473,1.0,0.9389106631278992],"min":[-0.9919830560684204,-1.0,-0.9387714266777039],"type":"VEC3"},{"bufferView":1,"byteOffset":164096,"componentType":5126,"count":62,"max":[0.04027634859085083,0.042583633214235306],"min":[-0.04027634859085083,-0.040169134736061096],"type":"VEC2"},{"bufferView":0,"byteOffset":75864,"componentType":5125,"count":120,"type":"SCALAR"},{"bufferView":2,"byteOffset":249888,"componentType":5126,"count":886,"max":[3.0,3.0,3.0],"min":[-3.0,-3.0,-3.0],"type":"VEC3"},{"bufferView":2,"byteOffset":260520,"componentType":5126,"count":886,"max":[1.0,1.0,1.0],"min":[-1.0,-1.0,-1.0],"type":"VEC3"},{"bufferView":1,"byteOffset":164592,"componentType":5126,"count":886,"max":[0.02106139250099659,0.02106139250099659],"min":[-0.02106139250099659,-0.02106139250099659],"type":"VEC2"},{"bufferView":0,"byteOffset":76344,"componentType":5125,"count":960,"type":"SCALAR"},{"bufferView":2,"byteOffset":271152,"componentType":5126,"count":64,"max":[70.709228515625,279.81329345703125,5.3802490234375],"min":[-70.709228515625,-9.376821517944336,-6.1370849609375],"type":"VEC3"},{"bufferView":2,"byteOffset":271920,"componentType":5126,"count":64,"max":[1.0,1.0,1.0],"min":[-1.0,-1.0,-1.0],"type":"VEC3"},{"bufferView":3,"byteOffset":64320,"componentType":5126,"count":64,"max":[1.0,0.0,1.0,1.0],"min":[-1.0,0.0,-1.0,1.0],"type":"VEC4"},{"bufferView":1,"byteOffset":171680,"componentType":5126,"count":64,"max":[1.4141845703125,2.8919010162353516],"min":[0.0,0.0],"type":"VEC2"},{"bufferView":1,"byteOffset":172192,"componentType":5126,"count":64,"max":[0.0,0.0],"min":[0.0,0.0],"type":"VEC2"},{"bufferView":1,"byteOffset":172704,"componentType":5126,"count":64,"max":[0.0,0.0],"min":[0.0,0.0],"type":"VEC2"},{"bufferView":1,"byteOffset":173216,"componentType":5126,"count":64,"max":[1.4141845703125,2.8919010162353516],"min":[0.0,0.0],"type":"VEC2"},{"bufferView":0,"byteOffset":80184,"componentType":5125,"count":132,"type":"SCALAR"},{"bufferView":2,"byteOffset":272688,"componentType":5126,"count":24,"max":[70.709228515625,275.5218200683594,3.082275390625],"min":[-59.796142578125,-9.376821517944336,-3.680419921875],"type":"VEC3"},{"bufferView":2,"byteOffset":272976,"componentType":5126,"count":24,"max":[1.0,1.0,1.0],"min":[-1.0,-1.0,-1.0],"type":"VEC3"},{"bufferView":3,"byteOffset":65344,"componentType":5126,"count":24,"max":[1.0,0.0,1.0,1.0],"min":[-1.0,0.0,-1.0,1.0],"type":"VEC4"},{"bufferView":1,"byteOffset":173728,"componentType":5126,"count":24,"max":[1.3050537109375,2.8489863872528076],"min":[0.0,0.0],"type":"VEC2"},{"bufferView":1,"byteOffset":173920,"componentType":5126,"count":24,"max":[1.3050537109375,2.8489863872528076],"min":[0.0,0.0],"type":"VEC2"},{"bufferView":0,"byteOffset":80712,"componentType":5125,"count":36,"type":"SCALAR"},{"bufferView":2,"byteOffset":273264,"componentType":5126,"count":81,"max":[4.027634620666504,1.1474609375,4.016913414001465],"min":[-4.027634620666504,-0.3173828125,-4.016913414001465],"type":"VEC3"},{"bufferView":2,"byteOffset":274236,"componentType":5126,"count":81,"max":[1.0,0.9793091416358948,0.9474793076515198],"min":[-1.0,-1.0,-0.9474793672561646],"type":"VEC3"},{"bufferView":1,"byteOffset":174112,"componentType":5126,"count":81,"max":[0.04027634859085083,0.040169134736061096],"min":[-0.04027634859085083,-0.040169134736061096],"type":"VEC2"},{"bufferView":0,"byteOffset":80856,"componentType":5125,"count":120,"type":"SCALAR"},{"bufferView":2,"byteOffset":275208,"componentType":5126,"count":100,"max":[4.5278801918029785,1.879668951034546,4.270553112030029],"min":[-4.527901649475098,-0.3173828125,-4.273312568664551],"type":"VEC3"},{"bufferView":2,"byteOffset":276408,"componentType":5126,"count":100,"max":[0.9761090278625488,0.9033542275428772,0.9435009360313416],"min":[-0.9761090278625488,-1.0,-0.9435009360313416],"type":"VEC3"},{"bufferView":1,"byteOffset":174760,"componentType":5126,"count":100,"max":[0.04527822881937027,0.04434152692556381],"min":[-0.04527844116091728,-0.04436645656824112],"type":"VEC2"},{"bufferView":0,"byteOffset":81336,"componentType":5125,"count":120,"type":"SCALAR"},{"bufferView":2,"byteOffset":277608,"componentType":5126,"count":62,"max":[4.027634620666504,4.669551849365234,4.016913414001465],"min":[-4.027634620666504,-0.3173828125,-4.016913414001465],"type":"VEC3"},{"bufferView":2,"byteOffset":278352,"componentType":5126,"count":62,"max":[0.9919838905334473,1.0,0.9389106631278992],"min":[-0.9919830560684204,-1.0,-0.9387714266777039],"type":"VEC3"},{"bufferView":1,"byteOffset":175560,"componentType":5126,"count":62,"max":[0.04027634859085083,0.042583633214235306],"min":[-0.04027634859085083,-0.040169134736061096],"type":"VEC2"},{"bufferView":0,"byteOffset":81816,"componentType":5125,"count":120,"type":"SCALAR"},{"bufferView":2,"byteOffset":279096,"componentType":5126,"count":886,"max":[3.0,3.0,3.0],"min":[-3.0,-3.0,-3.0],"type":"VEC3"},{"bufferView":2,"byteOffset":289728,"componentType":5126,"count":886,"max":[1.0,1.0,1.0],"min":[-1.0,-1.0,-1.0],"type":"VEC3"},{"bufferView":1,"byteOffset":176056,"componentType":5126,"count":886,"max":[0.02106139250099659,0.02106139250099659],"min":[-0.02106139250099659,-0.02106139250099659],"type":"VEC2"},{"bufferView":0,"byteOffset":82296,"componentType":5125,"count":960,"type":"SCALAR"},{"bufferView":2,"byteOffset":300360,"componentType":5126,"count":81,"max":[4.027634620666504,1.1474609375,4.016913414001465],"min":[-4.027634620666504,-0.3173828125,-4.016913414001465],"type":"VEC3"},{"bufferView":2,"byteOffset":301332,"componentType":5126,"count":81,"max":[1.0,0.9793091416358948,0.9474793076515198],"min":[-1.0,-1.0,-0.9474793672561646],"type":"VEC3"},{"bufferView":1,"byteOffset":183144,"componentType":5126,"count":81,"max":[0.04027634859085083,0.040169134736061096],"min":[-0.04027634859085083,-0.040169134736061096],"type":"VEC2"},{"bufferView":0,"byteOffset":86136,"componentType":5125,"count":120,"type":"SCALAR"},{"bufferView":2,"byteOffset":302304,"componentType":5126,"count":100,"max":[4.5278801918029785,1.879668951034546,4.270553112030029],"min":[-4.527901649475098,-0.3173828125,-4.273312568664551],"type":"VEC3"},{"bufferView":2,"byteOffset":303504,"componentType":5126,"count":100,"max":[0.9761090278625488,0.9033542275428772,0.9435009360313416],"min":[-0.9761090278625488,-1.0,-0.9435009360313416],"type":"VEC3"},{"bufferView":1,"byteOffset":183792,"componentType":5126,"count":100,"max":[0.04527822881937027,0.04434152692556381],"min":[-0.04527844116091728,-0.04436645656824112],"type":"VEC2"},{"bufferView":0,"byteOffset":86616,"componentType":5125,"count":120,"type":"SCALAR"},{"bufferView":2,"byteOffset":304704,"componentType":5126,"count":62,"max":[4.027634620666504,4.669551849365234,4.016913414001465],"min":[-4.027634620666504,-0.3173828125,-4.016913414001465],"type":"VEC3"},{"bufferView":2,"byteOffset":305448,"componentType":5126,"count":62,"max":[0.9919838905334473,1.0,0.9389106631278992],"min":[-0.9919830560684204,-1.0,-0.9387714266777039],"type":"VEC3"},{"bufferView":1,"byteOffset":184592,"componentType":5126,"count":62,"max":[0.04027634859085083,0.042583633214235306],"min":[-0.04027634859085083,-0.040169134736061096],"type":"VEC2"},{"bufferView":0,"byteOffset":87096,"componentType":5125,"count":120,"type":"SCALAR"},{"bufferView":2,"byteOffset":306192,"componentType":5126,"count":886,"max":[3.0,3.0,3.0],"min":[-3.0,-3.0,-3.0],"type":"VEC3"},{"bufferView":2,"byteOffset":316824,"componentType":5126,"count":886,"max":[1.0,1.0,1.0],"min":[-1.0,-1.0,-1.0],"type":"VEC3"},{"bufferView":1,"byteOffset":185088,"componentType":5126,"count":886,"max":[0.02106139250099659,0.02106139250099659],"min":[-0.02106139250099659,-0.02106139250099659],"type":"VEC2"},{"bufferView":0,"byteOffset":87576,"componentType":5125,"count":960,"type":"SCALAR"},{"bufferView":2,"byteOffset":327456,"componentType":5126,"count":80,"max":[187.60986328125,199.99961853027344,15.00244140625],"min":[-826.995849609375,-0.0003814697265625,-15.00244140625],"type":"VEC3"},{"bufferView":2,"byteOffset":328416,"componentType":5126,"count":80,"max":[1.0,1.0,1.0],"min":[-1.0,-1.0,-1.0],"type":"VEC3"},{"bufferView":1,"byteOffset":192176,"componentType":5126,"count":80,"max":[10.14605712890625,2.0],"min":[0.0,0.0],"type":"VEC2"},{"bufferView":0,"byteOffset":91416,"componentType":5125,"count":192,"type":"SCALAR"},{"bufferView":2,"byteOffset":329376,"componentType":5126,"count":16,"max":[490.997314453125,0.0013394354609772563,63.00004196166992],"min":[-484.1064453125,0.0,-73.00003814697266],"type":"VEC3"},{"bufferView":2,"byteOffset":329568,"componentType":5126,"count":16,"max":[5.583697948452482e-09,1.0,1.8163889762945473e-05],"min":[-2.7126936856802786e-06,1.0,-2.1260868379613385e-05],"type":"VEC3"},{"bufferView":1,"byteOffset":192816,"componentType":5126,"count":16,"max":[4.841064453125,0.6300004124641418],"min":[-4.90997314453125,-0.730000376701355],"type":"VEC2"},{"bufferView":0,"byteOffset":92184,"componentType":5125,"count":24,"type":"SCALAR"},{"bufferView":2,"byteOffset":329760,"componentType":5126,"count":102,"max":[-196.9970703125,199.99961853027344,15.00244140625],"min":[-826.995849609375,-0.0003814697265625,-15.01213264465332],"type":"VEC3"},{"bufferView":2,"byteOffset":330984,"componentType":5126,"count":102,"max":[1.0,1.0,1.0],"min":[-1.0,-1.0,-1.0],"type":"VEC3"},{"bufferView":1,"byteOffset":192944,"componentType":5126,"count":102,"max":[6.29998779296875,2.0],"min":[0.0,0.0],"type":"VEC2"},{"bufferView":0,"byteOffset":92280,"componentType":5125,"count":192,"type":"SCALAR"},{"bufferView":2,"byteOffset":332208,"componentType":5126,"count":16,"max":[223.9990234375,0.0013394354609772563,63.00010681152344],"min":[-369.000244140625,0.0,-73.00003814697266],"type":"VEC3"},{"bufferView":2,"byteOffset":332400,"componentType":5126,"count":16,"max":[5.979655270493822e-06,1.0,1.8163889762945473e-05],"min":[-3.629904313129373e-06,1.0,-2.126086656062398e-05],"type":"VEC3"},{"bufferView":1,"byteOffset":193760,"componentType":5126,"count":16,"max":[3.69000244140625,0.6300010681152344],"min":[-2.239990234375,-0.730000376701355],"type":"VEC2"},{"bufferView":0,"byteOffset":93048,"componentType":5125,"count":24,"type":"SCALAR"},{"bufferView":2,"byteOffset":332592,"componentType":5126,"count":102,"max":[-196.9970703125,199.99961853027344,15.00244140625],"min":[-826.995849609375,-0.0003814697265625,-15.01213264465332],"type":"VEC3"},{"bufferView":2,"byteOffset":333816,"componentType":5126,"count":102,"max":[1.0,1.0,1.0],"min":[-1.0,-1.0,-1.0],"type":"VEC3"},{"bufferView":1,"byteOffset":193888,"componentType":5126,"count":102,"max":[6.29998779296875,2.0],"min":[0.0,0.0],"type":"VEC2"},{"bufferView":0,"byteOffset":93144,"componentType":5125,"count":192,"type":"SCALAR"},{"bufferView":2,"byteOffset":335040,"componentType":5126,"count":16,"max":[223.9990234375,0.0013394354609772563,63.00010681152344],"min":[-369.000244140625,0.0,-73.00003814697266],"type":"VEC3"},{"bufferView":2,"byteOffset":335232,"componentType":5126,"count":16,"max":[5.979655270493822e-06,1.0,1.8163889762945473e-05],"min":[-3.629904313129373e-06,1.0,-2.126086656062398e-05],"type":"VEC3"},{"bufferView":1,"byteOffset":194704,"componentType":5126,"count":16,"max":[3.69000244140625,0.6300010681152344],"min":[-2.239990234375,-0.730000376701355],"type":"VEC2"},{"bufferView":0,"byteOffset":93912,"componentType":5125,"count":24,"type":"SCALAR"},{"bufferView":2,"byteOffset":335424,"componentType":5126,"count":160,"max":[15.875959396362305,1508.3251953125,14.93682861328125],"min":[-370.6131896972656,-11.865234375,-14.93682861328125],"type":"VEC3"},{"bufferView":2,"byteOffset":337344,"componentType":5126,"count":160,"max":[1.0,1.0,1.0],"min":[-1.0,-1.0,-1.0],"type":"VEC3"},{"bufferView":1,"byteOffset":194832,"componentType":5126,"count":160,"max":[3.864891529083252,15.201904296875],"min":[0.0,0.0],"type":"VEC2"},{"bufferView":0,"byteOffset":94008,"componentType":5125,"count":348,"type":"SCALAR"},{"bufferView":2,"byteOffset":339264,"componentType":5126,"count":16,"max":[181.29566955566406,0.0,349.35302734375],"min":[-174.2480926513672,-0.00013355677947402,-342.32177734375],"type":"VEC3"},{"bufferView":2,"byteOffset":339456,"componentType":5126,"count":16,"max":[7.366797376562317e-07,1.0,3.2043419651017757e-07],"min":[-5.232350304140709e-07,1.0,-3.2701584018468566e-07],"type":"VEC3"},{"bufferView":1,"byteOffset":196112,"componentType":5126,"count":16,"max":[3.5554375648498535,6.916748046875],"min":[0.0,0.0],"type":"VEC2"},{"bufferView":0,"byteOffset":95400,"componentType":5125,"count":24,"type":"SCALAR"},{"bufferView":2,"byteOffset":339648,"componentType":5126,"count":16,"max":[181.29566955566406,0.0,349.35302734375],"min":[-174.2480926513672,-0.00013355677947402,-342.32177734375],"type":"VEC3"},{"bufferView":2,"byteOffset":339840,"componentType":5126,"count":16,"max":[7.366797376562317e-07,1.0,3.2043419651017757e-07],"min":[-5.232350304140709e-07,1.0,-3.2701584018468566e-07],"type":"VEC3"},{"bufferView":1,"byteOffset":196240,"componentType":5126,"count":16,"max":[3.5554375648498535,6.916748046875],"min":[0.0,0.0],"type":"VEC2"},{"bufferView":0,"byteOffset":95496,"componentType":5125,"count":24,"type":"SCALAR"},{"bufferView":2,"byteOffset":340032,"componentType":5126,"count":160,"max":[15.875959396362305,1508.3251953125,14.93682861328125],"min":[-370.6131896972656,-11.865234375,-14.93682861328125],"type":"VEC3"},{"bufferView":2,"byteOffset":341952,"componentType":5126,"count":160,"max":[1.0,1.0,1.0],"min":[-1.0,-1.0,-1.0],"type":"VEC3"},{"bufferView":1,"byteOffset":196368,"componentType":5126,"count":160,"max":[3.864891529083252,15.201904296875],"min":[0.0,0.0],"type":"VEC2"},{"bufferView":0,"byteOffset":95592,"componentType":5125,"count":348,"type":"SCALAR"},{"bufferView":2,"byteOffset":343872,"componentType":5126,"count":16,"max":[181.29566955566406,0.0,349.35302734375],"min":[-174.2480926513672,-0.00013355677947402,-342.32177734375],"type":"VEC3"},{"bufferView":2,"byteOffset":344064,"componentType":5126,"count":16,"max":[7.366797376562317e-07,1.0,3.2043419651017757e-07],"min":[-5.232350304140709e-07,1.0,-3.2701584018468566e-07],"type":"VEC3"},{"bufferView":1,"byteOffset":197648,"componentType":5126,"count":16,"max":[3.5554375648498535,6.916748046875],"min":[0.0,0.0],"type":"VEC2"},{"bufferView":0,"byteOffset":96984,"componentType":5125,"count":24,"type":"SCALAR"},{"bufferView":2,"byteOffset":344256,"componentType":5126,"count":16,"max":[181.29566955566406,0.0,349.35302734375],"min":[-174.2480926513672,-0.00013355677947402,-342.32177734375],"type":"VEC3"},{"bufferView":2,"byteOffset":344448,"componentType":5126,"count":16,"max":[7.366797376562317e-07,1.0,3.2043419651017757e-07],"min":[-5.232350304140709e-07,1.0,-3.2701584018468566e-07],"type":"VEC3"},{"bufferView":1,"byteOffset":197776,"componentType":5126,"count":16,"max":[3.5554375648498535,6.916748046875],"min":[0.0,0.0],"type":"VEC2"},{"bufferView":0,"byteOffset":97080,"componentType":5125,"count":24,"type":"SCALAR"},{"bufferView":2,"byteOffset":344640,"componentType":5126,"count":204,"max":[15.875959396362305,2207.083251953125,14.93682861328125],"min":[-370.61376953125,-11.865234375,-14.93682861328125],"type":"VEC3"},{"bufferView":2,"byteOffset":347088,"componentType":5126,"count":204,"max":[1.0,1.0,1.0],"min":[-1.0,-1.0,-1.0],"type":"VEC3"},{"bufferView":1,"byteOffset":197904,"componentType":5126,"count":204,"max":[3.8648972511291504,22.189485549926758],"min":[0.0,0.0],"type":"VEC2"},{"bufferView":0,"byteOffset":97176,"componentType":5125,"count":414,"type":"SCALAR"},{"bufferView":2,"byteOffset":349536,"componentType":5126,"count":16,"max":[181.29566955566406,0.0,543.7957763671875],"min":[-174.2480926513672,-0.00013355677947402,-342.32177734375],"type":"VEC3"},{"bufferView":2,"byteOffset":349728,"componentType":5126,"count":16,"max":[7.366797376562317e-07,1.0,8.94892883754328e-14],"min":[-5.232350304140709e-07,1.0,-3.2701584018468566e-07],"type":"VEC3"},{"bufferView":1,"byteOffset":199536,"componentType":5126,"count":16,"max":[3.5554375648498535,8.861175537109375],"min":[0.0,0.0],"type":"VEC2"},{"bufferView":0,"byteOffset":98832,"componentType":5125,"count":24,"type":"SCALAR"},{"bufferView":2,"byteOffset":349920,"componentType":5126,"count":16,"max":[181.29566955566406,0.0,541.8487548828125],"min":[-174.2480926513672,-0.00013355677947402,-342.32177734375],"type":"VEC3"},{"bufferView":2,"byteOffset":350112,"componentType":5126,"count":16,"max":[7.366797376562317e-07,1.0,8.94892883754328e-14],"min":[-5.232350304140709e-07,1.0,-3.2701584018468566e-07],"type":"VEC3"},{"bufferView":1,"byteOffset":199664,"componentType":5126,"count":16,"max":[3.5554375648498535,8.841705322265625],"min":[0.0,0.0],"type":"VEC2"},{"bufferView":0,"byteOffset":98928,"componentType":5125,"count":24,"type":"SCALAR"},{"bufferView":2,"byteOffset":350304,"componentType":5126,"count":21,"max":[2631.54296875,0.0,1812.139892578125],"min":[-73.760986328125,-0.3711700439453125,-64.373779296875],"type":"VEC3"},{"bufferView":2,"byteOffset":350556,"componentType":5126,"count":21,"max":[0.0010791384847834706,1.0,0.0],"min":[-0.0,0.9999994039535522,-5.278278081277676e-07],"type":"VEC3"},{"bufferView":3,"byteOffset":65728,"componentType":5126,"count":21,"max":[-0.9999994039535522,0.0010791384847834706,0.0,1.0],"min":[-1.0,0.0,0.0,1.0],"type":"VEC4"},{"bufferView":1,"byteOffset":199792,"componentType":5126,"count":21,"max":[0.73760986328125,18.12139892578125],"min":[-26.315418243408203,-0.64373779296875],"type":"VEC2"},{"bufferView":1,"byteOffset":199960,"componentType":5126,"count":21,"max":[0.0,0.0],"min":[0.0,0.0],"type":"VEC2"},{"bufferView":1,"byteOffset":200128,"componentType":5126,"count":21,"max":[0.0,0.0],"min":[0.0,0.0],"type":"VEC2"},{"bufferView":1,"byteOffset":200296,"componentType":5126,"count":21,"max":[0.73760986328125,18.12139892578125],"min":[-26.315418243408203,-0.64373779296875],"type":"VEC2"},{"bufferView":0,"byteOffset":99024,"componentType":5125,"count":42,"type":"SCALAR"},{"bufferView":2,"byteOffset":350808,"componentType":5126,"count":741,"max":[2636.712646484375,5.423831939697266,1817.27294921875],"min":[-77.276611328125,-1.4237403869628906,-61.58447265625],"type":"VEC3"},{"bufferView":2,"byteOffset":359700,"componentType":5126,"count":741,"max":[1.0,1.0,1.0],"min":[-1.0,-1.0,-1.0],"type":"VEC3"},{"bufferView":1,"byteOffset":200464,"componentType":5126,"count":741,"max":[27.097946166992188,18.49920654296875],"min":[-27.097900390625,-0.28936767578125],"type":"VEC2"},{"bufferView":1,"byteOffset":206392,"componentType":5126,"count":741,"max":[0.0,0.0],"min":[0.0,0.0],"type":"VEC2"},{"bufferView":1,"byteOffset":212320,"componentType":5126,"count":741,"max":[0.0,0.0],"min":[0.0,0.0],"type":"VEC2"},{"bufferView":0,"byteOffset":99192,"componentType":5125,"count":1536,"type":"SCALAR"},{"bufferView":2,"byteOffset":368592,"componentType":5126,"count":864,"max":[9.987271308898926,414.7001647949219,10595.5830078125],"min":[-9585.8935546875,-69.4161605834961,-3322.714599609375],"type":"VEC3"},{"bufferView":2,"byteOffset":378960,"componentType":5126,"count":864,"max":[1.0,1.0,1.0],"min":[-1.0,-1.0,-1.0],"type":"VEC3"},{"bufferView":1,"byteOffset":218248,"componentType":5126,"count":864,"max":[0.9753799438476562,200.63575744628906],"min":[-0.7775039672851562,-64.40760803222656],"type":"VEC2"},{"bufferView":0,"byteOffset":105336,"componentType":5125,"count":1296,"type":"SCALAR"}],"asset":{"extras":{"author":"3RDimens (https://sketchfab.com/3RDimens)","license":"CC-BY-4.0 (http://creativecommons.org/licenses/by/4.0/)","source":"https://sketchfab.com/3d-models/military-hq-building-with-3-interiors-da2b6e1da4594cad935713018b7af445","title":"Military HQ Building with 3 Interiors","godot_game_ready":3},"generator":"Sketchfab-16.75.0","version":"2.0"},"bufferViews":[{"buffer":0,"byteLength":110520,"name":"floatBufferViews","target":34963},{"buffer":0,"byteLength":225160,"byteOffset":110520,"byteStride":8,"name":"floatBufferViews","target":34962},{"buffer":0,"byteLength":389328,"byteOffset":335680,"byteStride":12,"name":"floatBufferViews","target":34962},{"buffer":0,"byteLength":66064,"byteOffset":725008,"byteStride":16,"name":"floatBufferViews","target":34962}],"buffers":[{"byteLength":791072,"uri":"military_hq_building.bin"}],"extensionsUsed":["KHR_texture_transform","KHR_materials_specular","KHR_materials_emissive_strength"],"images":[{"uri":"textures/Outer_Walls_baseColor.jpeg"},{"uri":"textures/Outer_Walls_metallicRoughness.png"},{"uri":"textures/Outer_Walls_normal.png"},{"uri":"textures/Outer_Walls_specularf0.png"},{"uri":"textures/Inner_walls_baseColor.jpeg"},{"uri":"textures/Inner_walls_metallicRoughness.png"},{"uri":"textures/Inner_walls_normal.png"},{"uri":"textures/Inner_walls_specularf0.png"},{"uri":"textures/Floor_2_baseColor.jpeg"},{"uri":"textures/Floor_2_metallicRoughness.png"},{"uri":"textures/Floor_2_normal.png"},{"uri":"textures/Floor_2_specularf0.png"},{"uri":"textures/Ceiling_baseColor.jpeg"},{"uri":"textures/Ceiling_metallicRoughness.png"},{"uri":"textures/Ceiling_emissive.jpeg"},{"uri":"textures/Ceiling_normal.png"},{"uri":"textures/Ceiling_specularf0.png"},{"uri":"textures/Roof_2_metallicRoughness.png"},{"uri":"textures/Roof_2_normal.jpeg"},{"uri":"textures/Roof_3_metallicRoughness.png"},{"uri":"textures/Stairs_metallicRoughness.png"},{"uri":"textures/Stairs_specularf0.png"},{"uri":"textures/Railing_metallicRoughness.png"},{"uri":"textures/Door_baseColor.jpeg"},{"uri":"textures/Door_metallicRoughness.png"},{"uri":"textures/Door_normal.png"},{"uri":"textures/Door_and_Elevator_baseColor.jpeg"},{"uri":"textures/Metal_Walk_baseColor.png"},{"uri":"textures/Metal_Walk_metallicRoughness.png"},{"uri":"textures/Metal_Walk_normal.png"}],"materials":[{"doubleSided":true,"extensions":{"KHR_materials_specular":{"specularColorFactor":[1.0,1.0,1.0],"specularFactor":1.0,"specularTexture":{"index":3}}},"name":"Outer_Walls","normalTexture":{"index":2},"occlusionTexture":{"index":1,"strength":0.5},"pbrMetallicRoughness":{"baseColorTexture":{"extensions":{"KHR_texture_transform":{"scale":[0.6999999999999995,0.6999999999999995]}},"index":0},"metallicFactor":0.6,"metallicRoughnessTexture":{"index":1}}},{"doubleSided":true,"extensions":{"KHR_materials_specular":{"specularColorFactor":[1.0,1.0,1.0],"specularFactor":1.0,"specularTexture":{"index":7}}},"name":"Inner_walls","normalTexture":{"extensions":{"KHR_texture_transform":{"scale":[0.6999999999999995,0.6999999999999995]}},"index":6},"occlusionTexture":{"extensions":{"KHR_texture_transform":{"scale":[0.6999999999999995,0.6999999999999995]}},"index":5,"strength":0.5},"pbrMetallicRoughness":{"baseColorTexture":{"extensions":{"KHR_texture_transform":{"scale":[0.6999999999999995,0.6999999999999995]}},"index":4},"metallicFactor":0.0,"metallicRoughnessTexture":{"index":5}}},{"doubleSided":true,"extensions":{"KHR_materials_specular":{"specularColorFactor":[1.0,1.0,1.0],"specularFactor":1.0,"specularTexture":{"index":11}}},"name":"Floor_2","normalTexture":{"index":10},"occlusionTexture":{"index":9,"strength":0.5},"pbrMetallicRoughness":{"baseColorTexture":{"index":8},"metallicFactor":0.0,"metallicRoughnessTexture":{"index":9}}},{"doubleSided":true,"emissiveFactor":[1.0,1.0,1.0],"emissiveTexture":{"index":14},"extensions":{"KHR_materials_emissive_strength":{"emissiveStrength":5.0},"KHR_materials_specular":{"specularColorFactor":[1.0,1.0,1.0],"specularFactor":1.0,"specularTexture":{"index":16}}},"name":"Ceiling","normalTexture":{"index":15},"occlusionTexture":{"index":13,"strength":0.5},"pbrMetallicRoughness":{"baseColorTexture":{"index":12},"metallicFactor":0.0,"metallicRoughnessTexture":{"index":13}}},{"extensions":{"KHR_materials_specular":{"specularColorFactor":[1.0,1.0,1.0],"specularFactor":1.0,"specularTexture":{"index":7}}},"name":"Roof_2","normalTexture":{"extensions":{"KHR_texture_transform":{"scale":[0.6999999999999995,0.6999999999999995]}},"index":18},"occlusionTexture":{"index":17},"pbrMetallicRoughness":{"baseColorFactor":[0.0,0.0,0.0,1.0],"metallicFactor":0.0,"metallicRoughnessTexture":{"index":17}}},{"doubleSided":true,"extensions":{"KHR_materials_specular":{"specularColorFactor":[1.0,1.0,1.0],"specularFactor":1.0,"specularTexture":{"index":7}}},"name":"Roof_3","normalTexture":{"index":6},"occlusionTexture":{"index":19},"pbrMetallicRoughness":{"baseColorFactor":[0.8503322291595298,0.8503322291595298,0.8503322291595298,1.0],"metallicFactor":0.0,"metallicRoughnessTexture":{"index":19},"roughnessFactor":0.5}},{"doubleSided":true,"extensions":{"KHR_materials_specular":{"specularColorFactor":[1.0,1.0,1.0],"specularFactor":1.0,"specularTexture":{"index":7}}},"name":"Roof_4","normalTexture":{"index":6},"pbrMetallicRoughness":{"baseColorFactor":[1.0,0.774595,0.0,1.0],"metallicFactor":0.0,"roughnessFactor":0.3}},{"doubleSided":true,"extensions":{"KHR_materials_specular":{"specularColorFactor":[1.0,1.0,1.0],"specularFactor":1.0,"specularTexture":{"index":21}}},"name":"Stairs","normalTexture":{"index":2},"occlusionTexture":{"index":20},"pbrMetallicRoughness":{"baseColorTexture":{"index":0},"metallicFactor":0.0,"metallicRoughnessTexture":{"index":20}}},{"doubleSided":true,"extensions":{"KHR_materials_specular":{"specularColorFactor":[1.0,1.0,1.0],"specularFactor":0.0}},"name":"Railing","occlusionTexture":{"index":22},"pbrMetallicRoughness":{"baseColorFactor":[0.031130127658362417,0.031130127658362417,0.031130127658362417,1.0],"metallicRoughnessTexture":{"index":22},"roughnessFactor":0.3}},{"doubleSided":true,"extensions":{"KHR_materials_specular":{"specularColorFactor":[1.0,1.0,1.0],"specularFactor":0.0}},"name":"Door","normalTexture":{"index":25},"occlusionTexture":{"index":24},"pbrMetallicRoughness":{"baseColorTexture":{"index":23},"metallicRoughnessTexture":{"index":24},"roughnessFactor":0.5}},{"doubleSided":true,"extensions":{"KHR_materials_specular":{"specularColorFactor":[1.0,1.0,1.0],"specularFactor":0.0}},"name":"Door_and_Elevator","pbrMetallicRoughness":{"baseColorTexture":{"index":26},"roughnessFactor":0.4}},{"doubleSided":true,"extensions":{"KHR_materials_specular":{"specularColorFactor":[1.0,1.0,1.0],"specularFactor":0.0}},"name":"window","pbrMetallicRoughness":{"baseColorFactor":[0.007856500284653867,0.007856500284653867,0.007856500284653867,1.0],"roughnessFactor":0.3}},{"alphaMode":"BLEND","doubleSided":true,"extensions":{"KHR_materials_specular":{"specularColorFactor":[1.0,1.0,1.0],"specularFactor":0.0}},"name":"glass","pbrMetallicRoughness":{"baseColorFactor":[0.742138,0.742138,0.742138,0.5],"roughnessFactor":0.0}},{"alphaMode":"MASK","doubleSided":true,"extensions":{"KHR_materials_specular":{"specularColorFactor":[1.0,1.0,1.0],"specularFactor":0.0}},"name":"Metal_Walk","normalTexture":{"index":29},"pbrMetallicRoughness":{"baseColorFactor":[0.0104373231931902,0.0104373231931902,0.0104373231931902,1.0],"baseColorTexture":{"index":27},"metallicRoughnessTexture":{"index":28},"roughnessFactor":0.1}}],"meshes":[{"name":"Walls_Outer_Walls_0","primitives":[{"attributes":{"NORMAL":1,"POSITION":0,"TANGENT":2,"TEXCOORD_0":3,"TEXCOORD_1":4,"TEXCOORD_2":5,"TEXCOORD_3":6},"indices":7,"material":0,"mode":4}]},{"name":"Walls_Inner_walls_0","primitives":[{"attributes":{"NORMAL":9,"POSITION":8,"TANGENT":10,"TEXCOORD_0":11,"TEXCOORD_1":12,"TEXCOORD_2":13,"TEXCOORD_3":14},"indices":15,"material":1,"mode":4}]},{"name":"Walls_Floor_2_0","primitives":[{"attributes":{"NORMAL":17,"POSITION":16,"TANGENT":18,"TEXCOORD_0":19,"TEXCOORD_1":20,"TEXCOORD_2":21,"TEXCOORD_3":22},"indices":23,"material":2,"mode":4}]},{"name":"roof_1_Outer_Walls_0","primitives":[{"attributes":{"NORMAL":25,"POSITION":24,"TANGENT":26,"TEXCOORD_0":27,"TEXCOORD_1":28},"indices":29,"material":0,"mode":4}]},{"name":"roof_1_Ceiling_0","primitives":[{"attributes":{"NORMAL":31,"POSITION":30,"TANGENT":32,"TEXCOORD_0":33,"TEXCOORD_1":34},"indices":35,"material":3,"mode":4}]},{"name":"roof_1_Roof_2_0","primitives":[{"attributes":{"NORMAL":37,"POSITION":36,"TANGENT":38,"TEXCOORD_0":39},"indices":40,"material":4,"mode":4}]},{"name":"roof_1_Floor_2_0","primitives":[{"attributes":{"NORMAL":42,"POSITION":41,"TANGENT":43,"TEXCOORD_0":44,"TEXCOORD_1":45},"indices":46,"material":2,"mode":4}]},{"name":"roof_1_Roof_3_0","primitives":[{"attributes":{"NORMAL":48,"POSITION":47,"TANGENT":49,"TEXCOORD_0":50},"indices":51,"material":5,"mode":4}]},{"name":"roof_1_Roof_4_0","primitives":[{"attributes":{"NORMAL":53,"POSITION":52,"TANGENT":54,"TEXCOORD_0":55},"indices":56,"material":6,"mode":4}]},{"name":"roof_2_Ceiling_0","primitives":[{"attributes":{"NORMAL":58,"POSITION":57,"TANGENT":59,"TEXCOORD_0":60,"TEXCOORD_1":61},"indices":62,"material":3,"mode":4}]},{"name":"roof_2_Roof_2_0","primitives":[{"attributes":{"NORMAL":64,"POSITION":63,"TANGENT":65,"TEXCOORD_0":66},"indices":67,"material":4,"mode":4}]},{"name":"Floor_Floor_2_0","primitives":[{"attributes":{"NORMAL":69,"POSITION":68,"TANGENT":70,"TEXCOORD_0":71,"TEXCOORD_1":72},"indices":73,"material":2,"mode":4}]},{"name":"Floor_Outer_Walls_0","primitives":[{"attributes":{"NORMAL":75,"POSITION":74,"TANGENT":76,"TEXCOORD_0":77,"TEXCOORD_1":78},"indices":79,"material":0,"mode":4}]},{"name":"Stairs_1_Stairs_0","primitives":[{"attributes":{"NORMAL":81,"POSITION":80,"TANGENT":82,"TEXCOORD_0":83,"TEXCOORD_1":84,"TEXCOORD_2":85},"indices":86,"material":7,"mode":4}]},{"name":"Stairs_2_Stairs_0","primitives":[{"attributes":{"NORMAL":88,"POSITION":87,"TANGENT":89,"TEXCOORD_0":90,"TEXCOORD_1":91,"TEXCOORD_2":92},"indices":93,"material":7,"mode":4}]},{"name":"Railing_Railing_0","primitives":[{"attributes":{"NORMAL":95,"POSITION":94,"TEXCOORD_0":96},"indices":97,"material":8,"mode":4}]},{"name":"Door_frame_Door_0","primitives":[{"attributes":{"NORMAL":99,"POSITION":98,"TANGENT":100,"TEXCOORD_0":101,"TEXCOORD_1":102,"TEXCOORD_2":103,"TEXCOORD_3":104},"indices":105,"material":9,"mode":4}]},{"name":"Door_Door_0","primitives":[{"attributes":{"NORMAL":107,"POSITION":106,"TANGENT":108,"TEXCOORD_0":109,"TEXCOORD_1":110},"indices":111,"material":9,"mode":4}]},{"name":"Cylinder_Door_and_Elevator_0","primitives":[{"attributes":{"NORMAL":113,"POSITION":112,"TEXCOORD_0":114},"indices":115,"material":10,"mode":4}]},{"name":"Cylinder_1_Door_and_Elevator_0","primitives":[{"attributes":{"NORMAL":117,"POSITION":116,"TEXCOORD_0":118},"indices":119,"material":10,"mode":4}]},{"name":"Cylinder_2_Door_and_Elevator_0","primitives":[{"attributes":{"NORMAL":121,"POSITION":120,"TEXCOORD_0":122},"indices":123,"material":10,"mode":4}]},{"name":"Sphere_Door_and_Elevator_0","primitives":[{"attributes":{"NORMAL":125,"POSITION":124,"TEXCOORD_0":126},"indices":127,"material":10,"mode":4}]},{"name":"Cylinder_1_Door_and_Elevator_0","primitives":[{"attributes":{"NORMAL":129,"POSITION":128,"TEXCOORD_0":130},"indices":131,"material":10,"mode":4}]},{"name":"Cylinder_1_1_Door_and_Elevator_0","primitives":[{"attributes":{"NORMAL":133,"POSITION":132,"TEXCOORD_0":134},"indices":135,"material":10,"mode":4}]},{"name":"Cylinder_2_1_Door_and_Elevator_0","primitives":[{"attributes":{"NORMAL":137,"POSITION":136,"TEXCOORD_0":138},"indices":139,"material":10,"mode":4}]},{"name":"Sphere_1_Door_and_Elevator_0","primitives":[{"attributes":{"NORMAL":141,"POSITION":140,"TEXCOORD_0":142},"indices":143,"material":10,"mode":4}]},{"name":"Door_frame_1_Door_0","primitives":[{"attributes":{"NORMAL":145,"POSITION":144,"TANGENT":146,"TEXCOORD_0":147,"TEXCOORD_1":148,"TEXCOORD_2":149,"TEXCOORD_3":150},"indices":151,"material":9,"mode":4}]},{"name":"Door_1_Door_0","primitives":[{"attributes":{"NORMAL":153,"POSITION":152,"TANGENT":154,"TEXCOORD_0":155,"TEXCOORD_1":156},"indices":157,"material":9,"mode":4}]},{"name":"Cylinder_2_Door_and_Elevator_0","primitives":[{"attributes":{"NORMAL":159,"POSITION":158,"TEXCOORD_0":160},"indices":161,"material":10,"mode":4}]},{"name":"Cylinder_1_2_Door_and_Elevator_0","primitives":[{"attributes":{"NORMAL":163,"POSITION":162,"TEXCOORD_0":164},"indices":165,"material":10,"mode":4}]},{"name":"Cylinder_2_2_Door_and_Elevator_0","primitives":[{"attributes":{"NORMAL":167,"POSITION":166,"TEXCOORD_0":168},"indices":169,"material":10,"mode":4}]},{"name":"Sphere_2_Door_and_Elevator_0","primitives":[{"attributes":{"NORMAL":171,"POSITION":170,"TEXCOORD_0":172},"indices":173,"material":10,"mode":4}]},{"name":"Cylinder_3_Door_and_Elevator_0","primitives":[{"attributes":{"NORMAL":175,"POSITION":174,"TEXCOORD_0":176},"indices":177,"material":10,"mode":4}]},{"name":"Cylinder_1_3_Door_and_Elevator_0","primitives":[{"attributes":{"NORMAL":179,"POSITION":178,"TEXCOORD_0":180},"indices":181,"material":10,"mode":4}]},{"name":"Cylinder_2_3_Door_and_Elevator_0","primitives":[{"attributes":{"NORMAL":183,"POSITION":182,"TEXCOORD_0":184},"indices":185,"material":10,"mode":4}]},{"name":"Sphere_3_Door_and_Elevator_0","primitives":[{"attributes":{"NORMAL":187,"POSITION":186,"TEXCOORD_0":188},"indices":189,"material":10,"mode":4}]},{"name":"Door_frame_2_Door_0","primitives":[{"attributes":{"NORMAL":191,"POSITION":190,"TANGENT":192,"TEXCOORD_0":193,"TEXCOORD_1":194,"TEXCOORD_2":195,"TEXCOORD_3":196},"indices":197,"material":9,"mode":4}]},{"name":"Door_2_Door_0","primitives":[{"attributes":{"NORMAL":199,"POSITION":198,"TANGENT":200,"TEXCOORD_0":201,"TEXCOORD_1":202},"indices":203,"material":9,"mode":4}]},{"name":"Cylinder_4_Door_and_Elevator_0","primitives":[{"attributes":{"NORMAL":205,"POSITION":204,"TEXCOORD_0":206},"indices":207,"material":10,"mode":4}]},{"name":"Cylinder_1_4_Door_and_Elevator_0","primitives":[{"attributes":{"NORMAL":209,"POSITION":208,"TEXCOORD_0":210},"indices":211,"material":10,"mode":4}]},{"name":"Cylinder_2_4_Door_and_Elevator_0","primitives":[{"attributes":{"NORMAL":213,"POSITION":212,"TEXCOORD_0":214},"indices":215,"material":10,"mode":4}]},{"name":"Sphere_4_Door_and_Elevator_0","primitives":[{"attributes":{"NORMAL":217,"POSITION":216,"TEXCOORD_0":218},"indices":219,"material":10,"mode":4}]},{"name":"Cylinder_5_Door_and_Elevator_0","primitives":[{"attributes":{"NORMAL":221,"POSITION":220,"TEXCOORD_0":222},"indices":223,"material":10,"mode":4}]},{"name":"Cylinder_1_5_Door_and_Elevator_0","primitives":[{"attributes":{"NORMAL":225,"POSITION":224,"TEXCOORD_0":226},"indices":227,"material":10,"mode":4}]},{"name":"Cylinder_2_5_Door_and_Elevator_0","primitives":[{"attributes":{"NORMAL":229,"POSITION":228,"TEXCOORD_0":230},"indices":231,"material":10,"mode":4}]},{"name":"Sphere_5_Door_and_Elevator_0","primitives":[{"attributes":{"NORMAL":233,"POSITION":232,"TEXCOORD_0":234},"indices":235,"material":10,"mode":4}]},{"name":"Door_frame_3_Door_0","primitives":[{"attributes":{"NORMAL":237,"POSITION":236,"TANGENT":238,"TEXCOORD_0":239,"TEXCOORD_1":240,"TEXCOORD_2":241,"TEXCOORD_3":242},"indices":243,"material":9,"mode":4}]},{"name":"Door_3_Door_0","primitives":[{"attributes":{"NORMAL":245,"POSITION":244,"TANGENT":246,"TEXCOORD_0":247,"TEXCOORD_1":248},"indices":249,"material":9,"mode":4}]},{"name":"Cylinder_6_Door_and_Elevator_0","primitives":[{"attributes":{"NORMAL":251,"POSITION":250,"TEXCOORD_0":252},"indices":253,"material":10,"mode":4}]},{"name":"Cylinder_1_6_Door_and_Elevator_0","primitives":[{"attributes":{"NORMAL":255,"POSITION":254,"TEXCOORD_0":256},"indices":257,"material":10,"mode":4}]},{"name":"Cylinder_2_6_Door_and_Elevator_0","primitives":[{"attributes":{"NORMAL":259,"POSITION":258,"TEXCOORD_0":260},"indices":261,"material":10,"mode":4}]},{"name":"Sphere_6_Door_and_Elevator_0","primitives":[{"attributes":{"NORMAL":263,"POSITION":262,"TEXCOORD_0":264},"indices":265,"material":10,"mode":4}]},{"name":"Cylinder_7_Door_and_Elevator_0","primitives":[{"attributes":{"NORMAL":267,"POSITION":266,"TEXCOORD_0":268},"indices":269,"material":10,"mode":4}]},{"name":"Cylinder_1_7_Door_and_Elevator_0","primitives":[{"attributes":{"NORMAL":271,"POSITION":270,"TEXCOORD_0":272},"indices":273,"material":10,"mode":4}]},{"name":"Cylinder_2_7_Door_and_Elevator_0","primitives":[{"attributes":{"NORMAL":275,"POSITION":274,"TEXCOORD_0":276},"indices":277,"material":10,"mode":4}]},{"name":"Sphere_7_Door_and_Elevator_0","primitives":[{"attributes":{"NORMAL":279,"POSITION":278,"TEXCOORD_0":280},"indices":281,"material":10,"mode":4}]},{"name":"window_1_window_0","primitives":[{"attributes":{"NORMAL":283,"POSITION":282,"TEXCOORD_0":284},"indices":285,"material":11,"mode":4}]},{"name":"glass_1_glass_0","primitives":[{"attributes":{"NORMAL":287,"POSITION":286,"TEXCOORD_0":288},"indices":289,"material":12,"mode":4}]},{"name":"window_2_window_0","primitives":[{"attributes":{"NORMAL":291,"POSITION":290,"TEXCOORD_0":292},"indices":293,"material":11,"mode":4}]},{"name":"glass_2_glass_0","primitives":[{"attributes":{"NORMAL":295,"POSITION":294,"TEXCOORD_0":296},"indices":297,"material":12,"mode":4}]},{"name":"window_3_window_0","primitives":[{"attributes":{"NORMAL":299,"POSITION":298,"TEXCOORD_0":300},"indices":301,"material":11,"mode":4}]},{"name":"glass_2_1_glass_0","primitives":[{"attributes":{"NORMAL":303,"POSITION":302,"TEXCOORD_0":304},"indices":305,"material":12,"mode":4}]},{"name":"Window_1_Railing_0","primitives":[{"attributes":{"NORMAL":307,"POSITION":306,"TEXCOORD_0":308},"indices":309,"material":8,"mode":4}]},{"name":"Glass_glass_0","primitives":[{"attributes":{"NORMAL":311,"POSITION":310,"TEXCOORD_0":312},"indices":313,"material":12,"mode":4}]},{"name":"Glass__glass_0","primitives":[{"attributes":{"NORMAL":315,"POSITION":314,"TEXCOORD_0":316},"indices":317,"material":12,"mode":4}]},{"name":"window_2_1_Railing_0","primitives":[{"attributes":{"NORMAL":319,"POSITION":318,"TEXCOORD_0":320},"indices":321,"material":8,"mode":4}]},{"name":"Glass__1_glass_0","primitives":[{"attributes":{"NORMAL":323,"POSITION":322,"TEXCOORD_0":324},"indices":325,"material":12,"mode":4}]},{"name":"Glass__2_glass_0","primitives":[{"attributes":{"NORMAL":327,"POSITION":326,"TEXCOORD_0":328},"indices":329,"material":12,"mode":4}]},{"name":"window_3_1_Railing_0","primitives":[{"attributes":{"NORMAL":331,"POSITION":330,"TEXCOORD_0":332},"indices":333,"material":8,"mode":4}]},{"name":"Glass__3_glass_0","primitives":[{"attributes":{"NORMAL":335,"POSITION":334,"TEXCOORD_0":336},"indices":337,"material":12,"mode":4}]},{"name":"Glass__4_glass_0","primitives":[{"attributes":{"NORMAL":339,"POSITION":338,"TEXCOORD_0":340},"indices":341,"material":12,"mode":4}]},{"name":"metal_walk_Metal_Walk_0","primitives":[{"attributes":{"NORMAL":343,"POSITION":342,"TANGENT":344,"TEXCOORD_0":345,"TEXCOORD_1":346,"TEXCOORD_2":347,"TEXCOORD_3":348},"indices":349,"material":13,"mode":4}]},{"name":"metal_walk_Railing_0","primitives":[{"attributes":{"NORMAL":351,"POSITION":350,"TEXCOORD_0":352,"TEXCOORD_1":353,"TEXCOORD_2":354},"indices":355,"material":8,"mode":4}]},{"name":"Railing_1_Railing_0","primitives":[{"attributes":{"NORMAL":357,"POSITION":356,"TEXCOORD_0":358},"indices":359,"material":8,"mode":4}]}],"nodes":[{"children":[1],"matrix":[1.0,0.0,0.0,0.0,0.0,2.220446049250313e-16,-1.0,0.0,0.0,1.0,2.220446049250313e-16,0.0,0.0,0.0,0.0,1.0],"name":"Sketchfab_model"},{"children":[2],"matrix":[0.009999999776482582,0.0,0.0,0.0,0.0,0.0,0.009999999776482582,0.0,0.0,-0.009999999776482582,0.0,0.0,0.0,0.0,0.0,1.0],"name":"58a6c2b08dba44c6803e9c50320e53e0.fbx"},{"children":[3],"name":"RootNode"},{"children":[4,8,15,18,21,28,52,76,100,124,128,132,136,155],"name":"Large_Control_Building"},{"children":[5,6,7],"matrix":[1.0,0.0,0.0,0.0,0.0,1.0,0.0,0.0,0.0,0.0,1.0,0.0,881.9305419921875,-56.791316986083984,-2329.400634765625,1.0],"name":"Walls"},{"mesh":0,"name":"Walls_Outer_Walls_0-col"},{"mesh":1,"name":"Walls_Inner_walls_0-col"},{"mesh":2,"name":"Walls_Floor_2_0-col"},{"children":[9,10,11,12,13,14],"matrix":[1.0,0.0,0.0,0.0,0.0,1.0,0.0,0.0,0.0,0.0,1.0,0.0,881.9305419921875,338.0,-2349.40185546875,1.0],"name":"roof_1"},{"mesh":3,"name":"roof_1_Outer_Walls_0-col"},{"mesh":4,"name":"roof_1_Ceiling_0-col"},{"mesh":5,"name":"roof_1_Roof_2_0-col"},{"mesh":6,"name":"roof_1_Floor_2_0-col"},{"mesh":7,"name":"roof_1_Roof_3_0-col"},{"mesh":8,"name":"roof_1_Roof_4_0-col"},{"children":[16,17],"matrix":[2.220446049250313e-16,0.0,1.0,0.0,0.0,1.0,0.0,0.0,-1.0,0.0,2.220446049250313e-16,0.0,2133.0,862.2086791992188,-1018.0,1.0],"name":"roof_2"},{"mesh":9,"name":"roof_2_Ceiling_0-col"},{"mesh":10,"name":"roof_2_Roof_2_0-col"},{"children":[19,20],"matrix":[1.0,0.0,0.0,0.0,0.0,1.0,0.0,0.0,0.0,0.0,1.0,0.0,841.12548828125,-240.00001525878906,-2329.901123046875,1.0],"name":"Floor"},{"mesh":11,"name":"Floor_Floor_2_0-col"},{"mesh":12,"name":"Floor_Outer_Walls_0-col"},{"children":[22,24,26],"matrix":[2.553512903698301e-16,0.0,-1.149999976158142,0.0,0.0,1.149999976158142,0.0,0.0,1.149999976158142,0.0,2.553512903698301e-16,0.0,529.0,73.0,-1028.0,1.0],"name":"Stairs"},{"children":[23],"matrix":[-0.31999996304512024,3.918869304704779e-17,3.9188693047047776e-17,0.0,3.918869304704779e-17,0.31999996304512024,3.918869304704779e-17,0.0,-3.9188693047047776e-17,3.918869304704779e-17,-0.31999996304512024,0.0,-73.0,-72.0,-37.0,1.0],"name":"Stairs_1"},{"mesh":13,"name":"Stairs_1_Stairs_0-col"},{"children":[25],"matrix":[0.31999996304512024,0.0,6.162975822039155e-33,0.0,0.0,0.31999996304512024,0.0,0.0,-6.162975822039155e-33,0.0,0.31999996304512024,0.0,128.40000915527344,139.10000610351562,207.1999969482422,1.0],"name":"Stairs_2"},{"mesh":14,"name":"Stairs_2_Stairs_0-col"},{"children":[27],"matrix":[0.0,-0.11725738644599915,0.0,0.0,0.0,0.0,0.11725740134716034,0.0,-0.11725739389657974,0.0,0.0,0.0,-117.20000457763672,71.0,-240.30001831054688,1.0],"name":"Railing"},{"mesh":15,"name":"Railing_Railing_0-col"},{"children":[29,31],"matrix":[0.8299999833106995,0.0,0.0,0.0,0.0,0.8299999833106995,0.0,0.0,0.0,0.0,0.8299999833106995,0.0,2079.199951171875,-151.8000030517578,-1277.5999755859375,1.0],"name":"Door_1"},{"children":[30],"matrix":[1.0,0.0,0.0,0.0,0.0,1.0,0.0,0.0,0.0,0.0,1.0,0.0,5.18798828125,10.679984092712402,0.0,1.0],"name":"Door_frame"},{"mesh":16,"name":"Door_frame_Door_0-col"},{"children":[32],"matrix":[1.0,0.0,0.0,0.0,0.0,1.0,0.0,0.0,0.0,0.0,1.0,0.0,70.74000549316406,1.0099999904632568,0.0,1.0],"name":"Door_Pivot"},{"children":[33,34,43],"matrix":[1.0,0.0,0.0,0.0,0.0,1.0,0.0,0.0,0.0,0.0,1.0,0.0,-70.74000549316406,9.669983863830566,0.0,1.0],"name":"Door"},{"mesh":17,"name":"Door_Door_0-col"},{"children":[35,37,39,41],"matrix":[1.5,0.0,0.0,0.0,0.0,1.5,0.0,0.0,0.0,0.0,1.5,0.0,-47.66236114501953,135.77481079101562,5.4229736328125,1.0],"name":"Door_handle"},{"children":[36],"matrix":[0.0,-1.0,0.0,0.0,0.0,0.0,1.0,0.0,-1.0,0.0,0.0,0.0,0.0,0.0,-1.348876953125,1.0],"name":"Cylinder"},{"mesh":18,"name":"Cylinder_Door_and_Elevator_0"},{"children":[38],"matrix":[0.0,-0.45577067136764526,0.0,0.0,0.0,0.0,0.45577067136764526,0.0,-0.45577067136764526,0.0,0.0,0.0,0.0,0.0,-0.640869140625,1.0],"name":"Cylinder_1"},{"mesh":19,"name":"Cylinder_1_Door_and_Elevator_0"},{"children":[40],"matrix":[0.0,-0.4153258800506592,0.0,0.0,0.0,0.0,0.4153258800506592,0.0,-0.4153258800506592,0.0,0.0,0.0,0.0,0.0,0.0,1.0],"name":"Cylinder_2"},{"mesh":20,"name":"Cylinder_2_Door_and_Elevator_0"},{"children":[42],"matrix":[0.0,-1.0,0.0,0.0,0.0,0.0,1.0,0.0,-1.0,0.0,0.0,0.0,0.03662109375,0.08330345153808594,3.43017578125,1.0],"name":"Sphere"},{"mesh":21,"name":"Sphere_Door_and_Elevator_0"},{"children":[44,46,48,50],"matrix":[-1.5,1.8369701987210302e-16,1.8369701987210294e-16,0.0,1.8369701987210302e-16,1.5,1.8369701987210302e-16,0.0,-1.8369701987210294e-16,1.8369701987210302e-16,-1.5,0.0,-47.66236114501953,135.77481079101562,-5.657958984375,1.0],"name":"Door_handle_1"},{"children":[45],"matrix":[0.0,-1.0,0.0,0.0,0.0,0.0,1.0,0.0,-1.0,0.0,0.0,0.0,0.0,0.0,-1.348876953125,1.0],"name":"Cylinder_1"},{"mesh":22,"name":"Cylinder_1_Door_and_Elevator_0"},{"children":[47],"matrix":[0.0,-0.45577067136764526,0.0,0.0,0.0,0.0,0.45577067136764526,0.0,-0.45577067136764526,0.0,0.0,0.0,0.0,0.0,-0.640869140625,1.0],"name":"Cylinder_1_1"},{"mesh":23,"name":"Cylinder_1_1_Door_and_Elevator_0"},{"children":[49],"matrix":[0.0,-0.4153258800506592,0.0,0.0,0.0,0.0,0.4153258800506592,0.0,-0.4153258800506592,0.0,0.0,0.0,0.0,0.0,0.0,1.0],"name":"Cylinder_2_1"},{"mesh":24,"name":"Cylinder_2_1_Door_and_Elevator_0"},{"children":[51],"matrix":[0.0,-1.0,0.0,0.0,0.0,0.0,1.0,0.0,-1.0,0.0,0.0,0.0,0.03662109375,0.08330345153808594,3.43017578125,1.0],"name":"Sphere_1"},{"mesh":25,"name":"Sphere_1_Door_and_Elevator_0"},{"children":[53,55],"matrix":[0.8199999928474426,0.0,0.0,0.0,0.0,0.8299999833106995,0.0,0.0,0.0,0.0,0.8199999928474426,0.0,2081.10009765625,338.70001220703125,420.8000183105469,1.0],"name":"Door_2"},{"children":[54],"matrix":[1.0,0.0,0.0,0.0,0.0,1.0,0.0,0.0,0.0,0.0,1.0,0.0,5.18798828125,10.679984092712402,0.0,1.0],"name":"Door_frame_1"},{"mesh":26,"name":"Door_frame_1_Door_0-col"},{"children":[56],"matrix":[1.0,0.0,0.0,0.0,0.0,1.0,0.0,0.0,0.0,0.0,1.0,0.0,70.74000549316406,1.0099999904632568,0.0,1.0],"name":"Door_Pivot_1"},{"children":[57,58,67],"matrix":[1.0,0.0,0.0,0.0,0.0,1.0,0.0,0.0,0.0,0.0,1.0,0.0,-70.74000549316406,9.669983863830566,0.0,1.0],"name":"Door_1"},{"mesh":27,"name":"Door_1_Door_0-col"},{"children":[59,61,63,65],"matrix":[1.5,0.0,0.0,0.0,0.0,1.5,0.0,0.0,0.0,0.0,1.5,0.0,-47.66236114501953,135.77481079101562,5.4229736328125,1.0],"name":"Door_handle_1"},{"children":[60],"matrix":[0.0,-1.0,0.0,0.0,0.0,0.0,1.0,0.0,-1.0,0.0,0.0,0.0,0.0,0.0,-1.348876953125,1.0],"name":"Cylinder_2"},{"mesh":28,"name":"Cylinder_2_Door_and_Elevator_0"},{"children":[62],"matrix":[0.0,-0.45577067136764526,0.0,0.0,0.0,0.0,0.45577067136764526,0.0,-0.45577067136764526,0.0,0.0,0.0,0.0,0.0,-0.640869140625,1.0],"name":"Cylinder_1_2"},{"mesh":29,"name":"Cylinder_1_2_Door_and_Elevator_0"},{"children":[64],"matrix":[0.0,-0.4153258800506592,0.0,0.0,0.0,0.0,0.4153258800506592,0.0,-0.4153258800506592,0.0,0.0,0.0,0.0,0.0,0.0,1.0],"name":"Cylinder_2_2"},{"mesh":30,"name":"Cylinder_2_2_Door_and_Elevator_0"},{"children":[66],"matrix":[0.0,-1.0,0.0,0.0,0.0,0.0,1.0,0.0,-1.0,0.0,0.0,0.0,0.03662109375,0.08330345153808594,3.43017578125,1.0],"name":"Sphere_2"},{"mesh":31,"name":"Sphere_2_Door_and_Elevator_0"},{"children":[68,70,72,74],"matrix":[-1.5,1.8369701987210302e-16,1.8369701987210294e-16,0.0,1.8369701987210302e-16,1.5,1.8369701987210302e-16,0.0,-1.8369701987210294e-16,1.8369701987210302e-16,-1.5,0.0,-47.66236114501953,135.77481079101562,-5.657958984375,1.0],"name":"Door_handle_1_1"},{"children":[69],"matrix":[0.0,-1.0,0.0,0.0,0.0,0.0,1.0,0.0,-1.0,0.0,0.0,0.0,0.0,0.0,-1.348876953125,1.0],"name":"Cylinder_3"},{"mesh":32,"name":"Cylinder_3_Door_and_Elevator_0"},{"children":[71],"matrix":[0.0,-0.45577067136764526,0.0,0.0,0.0,0.0,0.45577067136764526,0.0,-0.45577067136764526,0.0,0.0,0.0,0.0,0.0,-0.640869140625,1.0],"name":"Cylinder_1_3"},{"mesh":33,"name":"Cylinder_1_3_Door_and_Elevator_0"},{"children":[73],"matrix":[0.0,-0.4153258800506592,0.0,0.0,0.0,0.0,0.4153258800506592,0.0,-0.4153258800506592,0.0,0.0,0.0,0.0,0.0,0.0,1.0],"name":"Cylinder_2_3"},{"mesh":34,"name":"Cylinder_2_3_Door_and_Elevator_0"},{"children":[75],"matrix":[0.0,-1.0,0.0,0.0,0.0,0.0,1.0,0.0,-1.0,0.0,0.0,0.0,0.03662109375,0.08330345153808594,3.43017578125,1.0],"name":"Sphere_3"},{"mesh":35,"name":"Sphere_3_Door_and_Elevator_0"},{"children":[77,79],"matrix":[0.8299999833106995,0.0,0.0,0.0,0.0,0.8401219248771667,0.0,0.0,0.0,0.0,0.8299999833106995,0.0,2981.39990234375,335.1000061035156,-1283.0999755859375,1.0],"name":"Door_3"},{"children":[78],"matrix":[1.0,0.0,0.0,0.0,0.0,1.0,0.0,0.0,0.0,0.0,1.0,0.0,5.18798828125,10.679984092712402,0.0,1.0],"name":"Door_frame_2"},{"mesh":36,"name":"Door_frame_2_Door_0-col"},{"children":[80],"matrix":[1.0,0.0,0.0,0.0,0.0,1.0,0.0,0.0,0.0,0.0,1.0,0.0,70.74000549316406,1.0099999904632568,0.0,1.0],"name":"Door_Pivot_2"},{"children":[81,82,91],"matrix":[1.0,0.0,0.0,0.0,0.0,1.0,0.0,0.0,0.0,0.0,1.0,0.0,-70.74000549316406,9.669983863830566,0.0,1.0],"name":"Door_2"},{"mesh":37,"name":"Door_2_Door_0-col"},{"children":[83,85,87,89],"matrix":[1.5,0.0,0.0,0.0,0.0,1.5,0.0,0.0,0.0,0.0,1.5,0.0,-47.66236114501953,135.77481079101562,5.4229736328125,1.0],"name":"Door_handle_2"},{"children":[84],"matrix":[0.0,-1.0,0.0,0.0,0.0,0.0,1.0,0.0,-1.0,0.0,0.0,0.0,0.0,0.0,-1.348876953125,1.0],"name":"Cylinder_4"},{"mesh":38,"name":"Cylinder_4_Door_and_Elevator_0"},{"children":[86],"matrix":[0.0,-0.45577067136764526,0.0,0.0,0.0,0.0,0.45577067136764526,0.0,-0.45577067136764526,0.0,0.0,0.0,0.0,0.0,-0.640869140625,1.0],"name":"Cylinder_1_4"},{"mesh":39,"name":"Cylinder_1_4_Door_and_Elevator_0"},{"children":[88],"matrix":[0.0,-0.4153258800506592,0.0,0.0,0.0,0.0,0.4153258800506592,0.0,-0.4153258800506592,0.0,0.0,0.0,0.0,0.0,0.0,1.0],"name":"Cylinder_2_4"},{"mesh":40,"name":"Cylinder_2_4_Door_and_Elevator_0"},{"children":[90],"matrix":[0.0,-1.0,0.0,0.0,0.0,0.0,1.0,0.0,-1.0,0.0,0.0,0.0,0.03662109375,0.08330345153808594,3.43017578125,1.0],"name":"Sphere_4"},{"mesh":41,"name":"Sphere_4_Door_and_Elevator_0"},{"children":[92,94,96,98],"matrix":[-1.5,1.8369701987210302e-16,1.8369701987210294e-16,0.0,1.8369701987210302e-16,1.5,1.8369701987210302e-16,0.0,-1.8369701987210294e-16,1.8369701987210302e-16,-1.5,0.0,-47.66236114501953,135.77481079101562,-5.657958984375,1.0],"name":"Door_handle_1_2"},{"children":[93],"matrix":[0.0,-1.0,0.0,0.0,0.0,0.0,1.0,0.0,-1.0,0.0,0.0,0.0,0.0,0.0,-1.348876953125,1.0],"name":"Cylinder_5"},{"mesh":42,"name":"Cylinder_5_Door_and_Elevator_0"},{"children":[95],"matrix":[0.0,-0.45577067136764526,0.0,0.0,0.0,0.0,0.45577067136764526,0.0,-0.45577067136764526,0.0,0.0,0.0,0.0,0.0,-0.640869140625,1.0],"name":"Cylinder_1_5"},{"mesh":43,"name":"Cylinder_1_5_Door_and_Elevator_0"},{"children":[97],"matrix":[0.0,-0.4153258800506592,0.0,0.0,0.0,0.0,0.4153258800506592,0.0,-0.4153258800506592,0.0,0.0,0.0,0.0,0.0,0.0,1.0],"name":"Cylinder_2_5"},{"mesh":44,"name":"Cylinder_2_5_Door_and_Elevator_0"},{"children":[99],"matrix":[0.0,-1.0,0.0,0.0,0.0,0.0,1.0,0.0,-1.0,0.0,0.0,0.0,0.03662109375,0.08330345153808594,3.43017578125,1.0],"name":"Sphere_5"},{"mesh":45,"name":"Sphere_5_Door_and_Elevator_0"},{"children":[101,103],"matrix":[1.8429701838200684e-16,0.0,0.8299999833106995,0.0,0.0,0.8401219248771667,0.0,0.0,-0.8299999833106995,0.0,1.8429701838200684e-16,0.0,925.3999633789062,336.6000061035156,-2785.0,1.0],"name":"Door_4"},{"children":[102],"matrix":[1.0,0.0,0.0,0.0,0.0,1.0,0.0,0.0,0.0,0.0,1.0,0.0,5.18798828125,10.679984092712402,0.0,1.0],"name":"Door_frame_3"},{"mesh":46,"name":"Door_frame_3_Door_0-col"},{"children":[104],"matrix":[1.0,0.0,0.0,0.0,0.0,1.0,0.0,0.0,0.0,0.0,1.0,0.0,70.74000549316406,1.0099999904632568,0.0,1.0],"name":"Door_Pivot_3"},{"children":[105,106,115],"matrix":[1.0,0.0,0.0,0.0,0.0,1.0,0.0,0.0,0.0,0.0,1.0,0.0,-70.74000549316406,9.669983863830566,0.0,1.0],"name":"Door_3"},{"mesh":47,"name":"Door_3_Door_0-col"},{"children":[107,109,111,113],"matrix":[1.5,0.0,-1.232595164407831e-32,0.0,0.0,1.5,0.0,0.0,1.232595164407831e-32,0.0,1.5,0.0,-47.66236114501953,135.77481079101562,5.4229736328125,1.0],"name":"Door_handle_3"},{"children":[108],"matrix":[0.0,-1.0,0.0,0.0,0.0,0.0,1.0,0.0,-1.0,0.0,0.0,0.0,0.0,0.0,-1.348876953125,1.0],"name":"Cylinder_6"},{"mesh":48,"name":"Cylinder_6_Door_and_Elevator_0"},{"children":[110],"matrix":[0.0,-0.45577067136764526,0.0,0.0,0.0,0.0,0.45577067136764526,0.0,-0.45577067136764526,0.0,0.0,0.0,0.0,0.0,-0.640869140625,1.0],"name":"Cylinder_1_6"},{"mesh":49,"name":"Cylinder_1_6_Door_and_Elevator_0"},{"children":[112],"matrix":[0.0,-0.4153258800506592,0.0,0.0,0.0,0.0,0.4153258800506592,0.0,-0.4153258800506592,0.0,0.0,0.0,0.0,0.0,0.0,1.0],"name":"Cylinder_2_6"},{"mesh":50,"name":"Cylinder_2_6_Door_and_Elevator_0"},{"children":[114],"matrix":[0.0,-1.0,0.0,0.0,0.0,0.0,1.0,0.0,-1.0,0.0,0.0,0.0,0.03662109375,0.08330345153808594,3.43017578125,1.0],"name":"Sphere_6"},{"mesh":51,"name":"Sphere_6_Door_and_Elevator_0"},{"children":[116,118,120,122],"matrix":[-1.5,1.8369701987210302e-16,1.8369701987210294e-16,0.0,1.8369701987210302e-16,1.5,1.8369701987210302e-16,0.0,-1.8369701987210294e-16,1.8369701987210302e-16,-1.5,0.0,-47.66236114501953,135.77481079101562,-5.657958984375,1.0],"name":"Door_handle_1_3"},{"children":[117],"matrix":[0.0,-1.0,0.0,0.0,0.0,0.0,1.0,0.0,-1.0,0.0,0.0,0.0,0.0,0.0,-1.348876953125,1.0],"name":"Cylinder_7"},{"mesh":52,"name":"Cylinder_7_Door_and_Elevator_0"},{"children":[119],"matrix":[0.0,-0.45577067136764526,0.0,0.0,0.0,0.0,0.45577067136764526,0.0,-0.45577067136764526,0.0,0.0,0.0,0.0,0.0,-0.640869140625,1.0],"name":"Cylinder_1_7"},{"mesh":53,"name":"Cylinder_1_7_Door_and_Elevator_0"},{"children":[121],"matrix":[0.0,-0.4153258800506592,0.0,0.0,0.0,0.0,0.4153258800506592,0.0,-0.4153258800506592,0.0,0.0,0.0,0.0,0.0,0.0,1.0],"name":"Cylinder_2_7"},{"mesh":54,"name":"Cylinder_2_7_Door_and_Elevator_0"},{"children":[123],"matrix":[0.0,-1.0,0.0,0.0,0.0,0.0,1.0,0.0,-1.0,0.0,0.0,0.0,0.03662109375,0.08330345153808594,3.43017578125,1.0],"name":"Sphere_7"},{"mesh":55,"name":"Sphere_7_Door_and_Elevator_0"},{"children":[125,126],"matrix":[1.0,0.0,0.0,0.0,0.0,1.0,0.0,0.0,0.0,0.0,1.0,0.0,-161.0,-46.0,-1284.0,1.0],"name":"window_1"},{"mesh":56,"name":"window_1_window_0-col"},{"children":[127],"matrix":[-1.0,1.2246467991473532e-16,1.224646799147353e-16,0.0,-1.2246467991473532e-16,-2.220446049250313e-16,-1.0,0.0,-1.224646799147353e-16,-1.0,2.220446049250313e-16,0.0,-324.993896484375,95.99990844726562,1.50146484375,1.0],"name":"glass_1"},{"mesh":57,"name":"glass_1_glass_0"},{"children":[129,130],"matrix":[2.220446049250313e-16,0.0,1.0,0.0,0.0,1.0,0.0,0.0,-1.0,0.0,2.220446049250313e-16,0.0,-1470.0,-48.0,-1867.0,1.0],"name":"window_2"},{"mesh":58,"name":"window_2_window_0-col"},{"children":[131],"matrix":[1.0,0.0,0.0,0.0,0.0,2.220446049250313e-16,1.0,0.0,0.0,-1.0,2.220446049250313e-16,0.0,-442.99932861328125,95.99990844726562,1.3977527618408203,1.0],"name":"glass_2"},{"mesh":59,"name":"glass_2_glass_0"},{"children":[133,134],"matrix":[2.220446049250313e-16,0.0,1.0,0.0,0.0,1.0,0.0,0.0,-1.0,0.0,2.220446049250313e-16,0.0,932.0,451.0000305175781,-1467.0,1.0],"name":"window_3"},{"mesh":60,"name":"window_3_window_0-col"},{"children":[135],"matrix":[1.0,0.0,0.0,0.0,0.0,2.220446049250313e-16,1.0,0.0,0.0,-1.0,2.220446049250313e-16,0.0,-442.99932861328125,95.99990844726562,1.3977527618408203,1.0],"name":"glass_2_1"},{"mesh":61,"name":"glass_2_1_glass_0"},{"children":[137,143,149],"matrix":[-2.220446049250313e-16,1.0,0.0,0.0,-1.0,-2.220446049250313e-16,0.0,0.0,0.0,0.0,1.0,0.0,931.6314697265625,559.40283203125,-783.013916015625,1.0],"name":"Large_Windows"},{"children":[138,139,141],"matrix":[-1.0,-1.2246467991473535e-16,1.2246467991473535e-16,0.0,1.2246467991473535e-16,-2.220446049250313e-16,1.0,0.0,-1.224646799147353e-16,1.0,2.220446049250313e-16,0.0,-176.1941680908203,-0.10068416595458984,-346.38671875,1.0],"name":"Window_1"},{"mesh":62,"name":"Window_1_Railing_0-col"},{"children":[140],"matrix":[-1.0,-1.2246467991473532e-16,1.224646799147353e-16,0.0,1.2246467991473532e-16,-2.220446049250313e-16,1.0,0.0,-1.224646799147353e-16,1.0,2.220446049250313e-16,0.0,-176.1942138671875,346.38677978515625,0.09758472442626953,1.0],"name":"Glass"},{"mesh":63,"name":"Glass_glass_0"},{"children":[142],"matrix":[-1.0,-1.2246467991473532e-16,1.224646799147353e-16,0.0,1.2246467991473532e-16,-2.220446049250313e-16,1.0,0.0,-1.224646799147353e-16,1.0,2.220446049250313e-16,0.0,-176.1942138671875,1150.9949951171875,0.09756088256835938,1.0],"name":"Glass_"},{"mesh":64,"name":"Glass__glass_0"},{"children":[144,145,147],"matrix":[-1.0,-1.2246467991473535e-16,1.2246467991473535e-16,0.0,1.2246467991473535e-16,-2.220446049250313e-16,1.0,0.0,-1.224646799147353e-16,1.0,2.220446049250313e-16,0.0,-176.19435119628906,-2300.29931640625,-346.38671875,1.0],"name":"window_2_1"},{"mesh":65,"name":"window_2_1_Railing_0-col"},{"children":[146],"matrix":[-1.0,1.224646799147353e-16,1.2246467991473525e-16,0.0,-1.224646799147353e-16,-2.220446049250313e-16,-1.0,0.0,-1.224646799147353e-16,-1.0,2.220446049250313e-16,0.0,-176.1944122314453,346.38677978515625,0.9978771209716797,1.0],"name":"Glass__1"},{"mesh":66,"name":"Glass__1_glass_0"},{"children":[148],"matrix":[-1.0,1.224646799147353e-16,1.2246467991473525e-16,0.0,-1.224646799147353e-16,-2.220446049250313e-16,-1.0,0.0,-1.224646799147353e-16,-1.0,2.220446049250313e-16,0.0,-176.1944122314453,1150.9949951171875,0.9978294372558594,1.0],"name":"Glass__2"},{"mesh":67,"name":"Glass__2_glass_0"},{"children":[150,151,153],"matrix":[-1.0,-1.2246467991473532e-16,0.0,0.0,1.2246467991473532e-16,-1.0,0.0,0.0,0.0,0.0,1.0,0.0,-176.1941680908203,-48.300148010253906,1205.0,1.0],"name":"window_3_1"},{"mesh":68,"name":"window_3_1_Railing_0-col"},{"children":[152],"matrix":[-1.0,-1.2246467991473535e-16,1.2246467991473535e-16,0.0,1.2246467991473535e-16,-2.220446049250313e-16,1.0,0.0,-1.224646799147353e-16,1.0,2.220446049250313e-16,0.0,-176.1941680908203,1648.999267578125,-0.001239776611328125,1.0],"name":"Glass__3"},{"mesh":69,"name":"Glass__3_glass_0"},{"children":[154],"matrix":[-1.0,-1.2246467991473535e-16,1.2246467991473535e-16,0.0,1.2246467991473535e-16,-2.220446049250313e-16,1.0,0.0,-1.224646799147353e-16,1.0,2.220446049250313e-16,0.0,-176.1941680908203,354.99884033203125,-0.001239776611328125,1.0],"name":"Glass__4"},{"mesh":70,"name":"Glass__4_glass_0"},{"children":[156,159],"matrix":[1.0,0.0,0.0,0.0,0.0,1.0,0.0,0.0,0.0,0.0,1.0,0.0,1903.6163330078125,606.0,-140.7958984375,1.0],"name":"Metal_walk"},{"children":[157,158],"matrix":[1.0,0.0,0.0,0.0,0.0,1.0,0.0,0.0,0.0,0.0,1.0,0.0,-1097.6104736328125,-274.0628356933594,-1047.607421875,1.0],"name":"metal_walk"},{"mesh":71,"name":"metal_walk_Metal_Walk_0-col"},{"mesh":72,"name":"metal_walk_Railing_0-col"},{"children":[160],"matrix":[4.320922189969569e-17,0.0,0.1945970356464386,0.0,0.0,0.1945970058441162,0.0,0.0,-0.1945970356464386,0.0,4.320922189969569e-17,0.0,889.5416259765625,-260.9999694824219,764.8956298828125,1.0],"name":"Railing_1"},{"mesh":73,"name":"Railing_1_Railing_0-col"}],"samplers":[{"magFilter":9729,"minFilter":9987,"wrapS":10497,"wrapT":10497},{"magFilter":9729,"minFilter":9987,"wrapS":33648,"wrapT":33648}],"scene":0,"scenes":[{"name":"military_hq_building","nodes":[0]}],"textures":[{"sampler":0,"source":0},{"sampler":0,"source":1},{"sampler":0,"source":2},{"sampler":0,"source":3},{"sampler":0,"source":4},{"sampler":0,"source":5},{"sampler":0,"source":6},{"sampler":0,"source":7},{"sampler":0,"source":8},{"sampler":0,"source":9},{"sampler":0,"source":10},{"sampler":0,"source":11},{"sampler":0,"source":12},{"sampler":0,"source":13},{"sampler":0,"source":14},{"sampler":0,"source":15},{"sampler":0,"source":16},{"sampler":0,"source":17},{"sampler":1,"source":18},{"sampler":0,"source":19},{"sampler":0,"source":20},{"sampler":0,"source":21},{"sampler":0,"source":22},{"sampler":0,"source":23},{"sampler":0,"source":24},{"sampler":0,"source":25},{"sampler":0,"source":26},{"sampler":0,"source":27},{"sampler":0,"source":28},{"sampler":0,"source":29}]}