{"accessors":[{"bufferView":2,"componentType":5126,"count":62,"max":[1225.0,17.79327392578125,820.013427734375],"min":[-1320.001220703125,1.3676643371582031,-729.986572265625],"type":"VEC3"},{"bufferView":2,"byteOffset":744,"componentType":5126,"count":62,"max":[-0.0,1.0,0.0],"min":[-0.011998649686574936,-1.0,0.0],"type":"VEC3"},{"bufferView":3,"componentType":5126,"count":62,"max":[1.0,0.0,0.0,1.0],"min":[-1.0,-0.011998648755252361,0.0,1.0],"type":"VEC4"},{"bufferView":1,"componentType":5126,"count":62,"max":[12.249751091003418,8.20013427734375],"min":[-13.200056076049805,-7.29986572265625],"type":"VEC2"},{"bufferView":1,"byteOffset":496,"componentType":5126,"count":62,"max":[12.249751091003418,8.20013427734375],"min":[-13.200056076049805,-7.29986572265625],"type":"VEC2"},{"bufferView":0,"componentType":5125,"count":108,"type":"SCALAR"},{"bufferView":2,"byteOffset":1488,"componentType":5126,"count":102,"max":[1225.0,120.24065399169922,820.013427734375],"min":[-1320.001220703125,1.3676643371582031,-729.986572265625],"type":"VEC3"},{"bufferView":2,"byteOffset":2712,"componentType":5126,"count":102,"max":[1.0,0.668974757194519,1.0],"min":[-1.0,0.0,-1.0],"type":"VEC3"},{"bufferView":3,"byteOffset":992,"componentType":5126,"count":102,"max":[1.0,0.0,1.0,1.0],"min":[-1.0,-1.1920928955078125e-07,-1.0,1.0],"type":"VEC4"},{"bufferView":1,"byteOffset":992,"componentType":5126,"count":102,"max":[3.3000030517578125,0.30060163140296936],"min":[-3.3000030517578125,-1.677775502204895],"type":"VEC2"},{"bufferView":1,"byteOffset":1808,"componentType":5126,"count":102,"max":[3.3000030517578125,0.30060163140296936],"min":[-3.3000030517578125,-1.677775502204895],"type":"VEC2"},{"bufferView":0,"byteOffset":432,"componentType":5125,"count":192,"type":"SCALAR"},{"bufferView":2,"byteOffset":3936,"componentType":5126,"count":32,"max":[1170.001220703125,0.0,770.013427734375],"min":[-1260.003662109375,-22.747230529785156,-669.98291015625],"type":"VEC3"},{"bufferView":2,"byteOffset":4320,"componentType":5126,"count":32,"max":[1.0,1.0,1.0],"min":[-0.0,-1.0,-1.0],"type":"VEC3"},{"bufferView":1,"byteOffset":2624,"componentType":5126,"count":32,"max":[9.02734375,1.9250335693359375],"min":[-12.12542724609375,-6.10491943359375],"type":"VEC2"},{"bufferView":0,"byteOffset":1200,"componentType":5125,"count":60,"type":"SCALAR"},{"bufferView":2,"byteOffset":4704,"componentType":5126,"count":112,"max":[1188.299560546875,0.0,792.98095703125],"min":[-1291.07666015625,-50.0,-677.056884765625],"type":"VEC3"},{"bufferView":2,"byteOffset":6048,"componentType":5126,"count":112,"max":[1.0,1.0,1.0],"min":[-1.0,-1.0,-1.0],"type":"VEC3"},{"bufferView":3,"byteOffset":2624,"componentType":5126,"count":112,"max":[1.0,0.0,1.0,1.0],"min":[-1.0,0.0,-1.0,1.0],"type":"VEC4"},{"bufferView":1,"byteOffset":2880,"componentType":5126,"count":112,"max":[12.9107666015625,2.0659618377685547],"min":[-12.9107666015625,-1.6926422119140625],"type":"VEC2"},{"bufferView":1,"byteOffset":3776,"componentType":5126,"count":112,"max":[12.9107666015625,2.0659618377685547],"min":[-12.9107666015625,-1.6926422119140625],"type":"VEC2"},{"bufferView":0,"byteOffset":1440,"componentType":5125,"count":312,"type":"SCALAR"},{"bufferView":2,"byteOffset":7392,"componentType":5126,"count":40,"max":[1170.001220703125,-22.708749771118164,770.013427734375],"min":[-1260.003662109375,-50.0,-669.98291015625],"type":"VEC3"},{"bufferView":2,"byteOffset":7872,"componentType":5126,"count":40,"max":[1.0,1.0,1.0],"min":[-0.0,-1.0,-1.0],"type":"VEC3"},{"bufferView":3,"byteOffset":4416,"componentType":5126,"count":40,"max":[1.0,0.0,0.0,1.0],"min":[-1.0,0.0,-1.0,1.0],"type":"VEC4"},{"bufferView":1,"byteOffset":4672,"componentType":5126,"count":40,"max":[2.3500025272369385,2.020026922225952],"min":[-2.99135684967041,-1.5662298202514648],"type":"VEC2"},{"bufferView":1,"byteOffset":4992,"componentType":5126,"count":40,"max":[2.3500025272369385,2.020026922225952],"min":[-2.99135684967041,-1.5662298202514648],"type":"VEC2"},{"bufferView":0,"byteOffset":2688,"componentType":5125,"count":84,"type":"SCALAR"},{"bufferView":2,"byteOffset":8352,"componentType":5126,"count":10,"max":[1170.001220703125,0.0,770.013427734375],"min":[-1212.542724609375,0.0,-610.491943359375],"type":"VEC3"},{"bufferView":2,"byteOffset":8472,"componentType":5126,"count":10,"max":[-0.0,1.0,0.0],"min":[-0.0,1.0,0.0],"type":"VEC3"},{"bufferView":3,"byteOffset":5056,"componentType":5126,"count":10,"max":[-1.0,0.0,0.0,1.0],"min":[-1.0,0.0,0.0,1.0],"type":"VEC4"},{"bufferView":1,"byteOffset":5312,"componentType":5126,"count":10,"max":[3.0313568115234375,1.9250335693359375],"min":[-2.9250030517578125,-1.5262298583984375],"type":"VEC2"},{"bufferView":1,"byteOffset":5392,"componentType":5126,"count":10,"max":[3.0313568115234375,1.9250335693359375],"min":[-2.9250030517578125,-1.5262298583984375],"type":"VEC2"},{"bufferView":0,"byteOffset":3024,"componentType":5125,"count":24,"type":"SCALAR"},{"bufferView":2,"byteOffset":8592,"componentType":5126,"count":16,"max":[-891.3330078125,0.0,-294.403076171875],"min":[-1212.542724609375,-50.0,-610.491943359375],"type":"VEC3"},{"bufferView":2,"byteOffset":8784,"componentType":5126,"count":16,"max":[-0.0,0.0,0.0],"min":[-1.0,0.0,-1.0],"type":"VEC3"},{"bufferView":1,"byteOffset":5472,"componentType":5126,"count":16,"max":[3.0313568115234375,0.0],"min":[-1.5262298583984375,-0.125],"type":"VEC2"},{"bufferView":1,"byteOffset":5600,"componentType":5126,"count":16,"max":[3.0313568115234375,0.0],"min":[-1.5262298583984375,-0.125],"type":"VEC2"},{"bufferView":0,"byteOffset":3120,"componentType":5125,"count":24,"type":"SCALAR"},{"bufferView":2,"byteOffset":8976,"componentType":5126,"count":24,"max":[2701.33056640625,31.25762939453125,100.982666015625],"min":[-151.287841796875,-7.977294921875,-1752.764892578125],"type":"VEC3"},{"bufferView":2,"byteOffset":9264,"componentType":5126,"count":24,"max":[1.0,0.9999669194221497,1.0],"min":[-1.0,-0.9999669194221497,-1.0],"type":"VEC3"},{"bufferView":3,"byteOffset":5216,"componentType":5126,"count":24,"max":[1.0,0.0,1.0,1.0],"min":[-1.0,0.0,-1.0,1.0],"type":"VEC4"},{"bufferView":1,"byteOffset":5728,"componentType":5126,"count":24,"max":[28.52618408203125,18.5374755859375],"min":[0.0,0.0],"type":"VEC2"},{"bufferView":0,"byteOffset":3216,"componentType":5125,"count":36,"type":"SCALAR"},{"bufferView":2,"byteOffset":9552,"componentType":5126,"count":4,"max":[1170.001220703125,0.0,770.013427734375],"min":[-1260.003662109375,0.0,-669.98291015625],"type":"VEC3"},{"bufferView":2,"byteOffset":9600,"componentType":5126,"count":4,"max":[-0.0,1.0,0.0],"min":[-0.0,1.0,0.0],"type":"VEC3"},{"bufferView":3,"byteOffset":5600,"componentType":5126,"count":4,"max":[-1.0,0.0,0.0,1.0],"min":[-1.0,0.0,0.0,1.0],"type":"VEC4"},{"bufferView":1,"byteOffset":5920,"componentType":5126,"count":4,"max":[3.1500091552734375,1.9250335693359375],"min":[-2.9250030517578125,-1.674957275390625],"type":"VEC2"},{"bufferView":1,"byteOffset":5952,"componentType":5126,"count":4,"max":[3.1500091552734375,1.9250335693359375],"min":[-2.9250030517578125,-1.674957275390625],"type":"VEC2"},{"bufferView":0,"byteOffset":3360,"componentType":5125,"count":6,"type":"SCALAR"},{"bufferView":2,"byteOffset":9648,"componentType":5126,"count":64,"max":[1220.001220703125,0.0,820.013427734375],"min":[-1320.001220703125,-50.0,-729.986572265625],"type":"VEC3"},{"bufferView":2,"byteOffset":10416,"componentType":5126,"count":64,"max":[1.0,1.0,1.0],"min":[-1.0,-1.0,-1.0],"type":"VEC3"},{"bufferView":3,"byteOffset":5664,"componentType":5126,"count":64,"max":[1.0,0.0,1.0,1.0],"min":[-1.0,0.0,-1.0,1.0],"type":"VEC4"},{"bufferView":1,"byteOffset":5984,"componentType":5126,"count":64,"max":[3.3000030517578125,2.0500335693359375],"min":[-3.3000030517578125,-1.8249664306640625],"type":"VEC2"},{"bufferView":1,"byteOffset":6496,"componentType":5126,"count":64,"max":[3.3000030517578125,2.0500335693359375],"min":[-3.3000030517578125,-1.8249664306640625],"type":"VEC2"},{"bufferView":0,"byteOffset":3384,"componentType":5125,"count":168,"type":"SCALAR"},{"bufferView":2,"byteOffset":11184,"componentType":5126,"count":4,"max":[1170.001220703125,-50.0,770.013427734375],"min":[-1260.003662109375,-50.0,-669.98291015625],"type":"VEC3"},{"bufferView":2,"byteOffset":11232,"componentType":5126,"count":4,"max":[-0.0,-1.0,0.0],"min":[-0.0,-1.0,0.0],"type":"VEC3"},{"bufferView":3,"byteOffset":6688,"componentType":5126,"count":4,"max":[1.0,0.0,0.0,1.0],"min":[1.0,0.0,0.0,1.0],"type":"VEC4"},{"bufferView":1,"byteOffset":7008,"componentType":5126,"count":4,"max":[2.96500301361084,1.8850336074829102],"min":[-3.11000919342041,-1.7149572372436523],"type":"VEC2"},{"bufferView":1,"byteOffset":7040,"componentType":5126,"count":4,"max":[2.96500301361084,1.8850336074829102],"min":[-3.11000919342041,-1.7149572372436523],"type":"VEC2"},{"bufferView":0,"byteOffset":4056,"componentType":5125,"count":6,"type":"SCALAR"},{"bufferView":2,"byteOffset":11280,"componentType":5126,"count":504,"max":[1200.0,818.4407958984375,800.994873046875],"min":[-1300.0,-52.9998779296875,-700.0],"type":"VEC3"},{"bufferView":2,"byteOffset":17328,"componentType":5126,"count":504,"max":[1.0,1.0,1.0],"min":[-1.0,-1.0,-1.0],"type":"VEC3"},{"bufferView":1,"byteOffset":7072,"componentType":5126,"count":504,"max":[11.2105712890625,2.0478649139404297],"min":[-3.248971700668335,-1.75],"type":"VEC2"},{"bufferView":1,"byteOffset":11104,"componentType":5126,"count":504,"max":[0.0,0.0],"min":[0.0,0.0],"type":"VEC2"},{"bufferView":1,"byteOffset":15136,"componentType":5126,"count":504,"max":[0.0,0.0],"min":[0.0,0.0],"type":"VEC2"},{"bufferView":1,"byteOffset":19168,"componentType":5126,"count":504,"max":[11.2105712890625,2.0478649139404297],"min":[-3.248971700668335,-1.75],"type":"VEC2"},{"bufferView":0,"byteOffset":4080,"componentType":5125,"count":786,"type":"SCALAR"},{"bufferView":2,"byteOffset":23376,"componentType":5126,"count":417,"max":[1200.750732421875,818.4407958984375,800.994873046875],"min":[-1300.0,-52.9998779296875,-700.0],"type":"VEC3"},{"bufferView":2,"byteOffset":28380,"componentType":5126,"count":417,"max":[1.0,1.0,1.0],"min":[-1.0,-1.0,-1.0],"type":"VEC3"},{"bufferView":3,"byteOffset":6752,"componentType":5126,"count":417,"max":[1.0,0.0006960590835660696,1.0,1.0],"min":[-1.0,-0.052324630320072174,-1.0,1.0],"type":"VEC4"},{"bufferView":1,"byteOffset":23200,"componentType":5126,"count":417,"max":[3.25,2.049812078475952],"min":[-11.212470054626465,-1.75],"type":"VEC2"},{"bufferView":1,"byteOffset":26536,"componentType":5126,"count":417,"max":[0.0,0.0],"min":[0.0,0.0],"type":"VEC2"},{"bufferView":1,"byteOffset":29872,"componentType":5126,"count":417,"max":[0.0,0.0],"min":[0.0,0.0],"type":"VEC2"},{"bufferView":1,"byteOffset":33208,"componentType":5126,"count":417,"max":[3.25,2.049812078475952],"min":[-11.212470054626465,-1.75],"type":"VEC2"},{"bufferView":0,"byteOffset":7224,"componentType":5125,"count":798,"type":"SCALAR"},{"bufferView":2,"byteOffset":33384,"componentType":5126,"count":80,"max":[187.60986328125,199.99961853027344,15.00244140625],"min":[-826.995849609375,-0.0003814697265625,-15.00244140625],"type":"VEC3"},{"bufferView":2,"byteOffset":34344,"componentType":5126,"count":80,"max":[1.0,1.0,1.0],"min":[-1.0,-1.0,-1.0],"type":"VEC3"},{"bufferView":3,"byteOffset":13424,"componentType":5126,"count":80,"max":[1.0,0.0,1.0,1.0],"min":[-1.0,0.0,-1.0,1.0],"type":"VEC4"},{"bufferView":1,"byteOffset":36544,"componentType":5126,"count":80,"max":[10.14605712890625,2.0],"min":[0.0,0.0],"type":"VEC2"},{"bufferView":0,"byteOffset":10416,"componentType":5125,"count":192,"type":"SCALAR"},{"bufferView":2,"byteOffset":35304,"componentType":5126,"count":16,"max":[490.997314453125,0.0013394354609772563,63.00004196166992],"min":[-484.1064453125,0.0,-73.00003814697266],"type":"VEC3"},{"bufferView":2,"byteOffset":35496,"componentType":5126,"count":16,"max":[5.583697948452482e-09,1.0,1.8163889762945473e-05],"min":[-2.7126936856802786e-06,1.0,-2.1260868379613385e-05],"type":"VEC3"},{"bufferView":1,"byteOffset":37184,"componentType":5126,"count":16,"max":[4.841064453125,0.6300004124641418],"min":[-4.90997314453125,-0.730000376701355],"type":"VEC2"},{"bufferView":0,"byteOffset":11184,"componentType":5125,"count":24,"type":"SCALAR"},{"bufferView":2,"byteOffset":35688,"componentType":5126,"count":80,"max":[187.60986328125,199.99961853027344,15.00244140625],"min":[-826.995849609375,-0.0003814697265625,-15.00244140625],"type":"VEC3"},{"bufferView":2,"byteOffset":36648,"componentType":5126,"count":80,"max":[1.0,1.0,1.0],"min":[-1.0,-1.0,-1.0],"type":"VEC3"},{"bufferView":3,"byteOffset":14704,"componentType":5126,"count":80,"max":[1.0,0.0,1.0,1.0],"min":[-1.0,0.0,-1.0,1.0],"type":"VEC4"},{"bufferView":1,"byteOffset":37312,"componentType":5126,"count":80,"max":[10.14605712890625,2.0],"min":[0.0,0.0],"type":"VEC2"},{"bufferView":0,"byteOffset":11280,"componentType":5125,"count":192,"type":"SCALAR"},{"bufferView":2,"byteOffset":37608,"componentType":5126,"count":16,"max":[490.997314453125,0.0013394354609772563,63.00004196166992],"min":[-484.1064453125,0.0,-73.00003814697266],"type":"VEC3"},{"bufferView":2,"byteOffset":37800,"componentType":5126,"count":16,"max":[5.583697948452482e-09,1.0,1.8163889762945473e-05],"min":[-2.7126936856802786e-06,1.0,-2.1260868379613385e-05],"type":"VEC3"},{"bufferView":1,"byteOffset":37952,"componentType":5126,"count":16,"max":[4.841064453125,0.6300004124641418],"min":[-4.90997314453125,-0.730000376701355],"type":"VEC2"},{"bufferView":0,"byteOffset":12048,"componentType":5125,"count":24,"type":"SCALAR"},{"bufferView":2,"byteOffset":37992,"componentType":5126,"count":102,"max":[-196.9970703125,199.99961853027344,15.00244140625],"min":[-826.995849609375,-0.0003814697265625,-15.01213264465332],"type":"VEC3"},{"bufferView":2,"byteOffset":39216,"componentType":5126,"count":102,"max":[1.0,1.0,1.0],"min":[-1.0,-1.0,-1.0],"type":"VEC3"},{"bufferView":3,"byteOffset":15984,"componentType":5126,"count":102,"max":[1.0,0.0,1.0,1.0],"min":[-1.0,0.0,-1.0,1.0],"type":"VEC4"},{"bufferView":1,"byteOffset":38080,"componentType":5126,"count":102,"max":[6.29998779296875,2.0],"min":[0.0,0.0],"type":"VEC2"},{"bufferView":0,"byteOffset":12144,"componentType":5125,"count":192,"type":"SCALAR"},{"bufferView":2,"byteOffset":40440,"componentType":5126,"count":16,"max":[223.9990234375,0.0013394354609772563,63.00010681152344],"min":[-369.000244140625,0.0,-73.00003814697266],"type":"VEC3"},{"bufferView":2,"byteOffset":40632,"componentType":5126,"count":16,"max":[5.979655270493822e-06,1.0,1.8163889762945473e-05],"min":[-3.629904313129373e-06,1.0,-2.126086656062398e-05],"type":"VEC3"},{"bufferView":1,"byteOffset":38896,"componentType":5126,"count":16,"max":[3.69000244140625,0.6300010681152344],"min":[-2.239990234375,-0.730000376701355],"type":"VEC2"},{"bufferView":0,"byteOffset":12912,"componentType":5125,"count":24,"type":"SCALAR"},{"bufferView":2,"byteOffset":40824,"componentType":5126,"count":102,"max":[-196.9970703125,199.99961853027344,15.00244140625],"min":[-826.995849609375,-0.0003814697265625,-15.01213264465332],"type":"VEC3"},{"bufferView":2,"byteOffset":42048,"componentType":5126,"count":102,"max":[1.0,1.0,1.0],"min":[-1.0,-1.0,-1.0],"type":"VEC3"},{"bufferView":3,"byteOffset":17616,"componentType":5126,"count":102,"max":[1.0,0.0,1.0,1.0],"min":[-1.0,0.0,-1.0,1.0],"type":"VEC4"},{"bufferView":1,"byteOffset":39024,"componentType":5126,"count":102,"max":[6.29998779296875,2.0],"min":[0.0,0.0],"type":"VEC2"},{"bufferView":0,"byteOffset":13008,"componentType":5125,"count":192,"type":"SCALAR"},{"bufferView":2,"byteOffset":43272,"componentType":5126,"count":16,"max":[223.9990234375,0.0013394354609772563,63.00010681152344],"min":[-369.000244140625,0.0,-73.00003814697266],"type":"VEC3"},{"bufferView":2,"byteOffset":43464,"componentType":5126,"count":16,"max":[5.979655270493822e-06,1.0,1.8163889762945473e-05],"min":[-3.629904313129373e-06,1.0,-2.126086656062398e-05],"type":"VEC3"},{"bufferView":1,"byteOffset":39840,"componentType":5126,"count":16,"max":[3.69000244140625,0.6300010681152344],"min":[-2.239990234375,-0.730000376701355],"type":"VEC2"},{"bufferView":0,"byteOffset":13776,"componentType":5125,"count":24,"type":"SCALAR"},{"bufferView":2,"byteOffset":43656,"componentType":5126,"count":64,"max":[70.709228515625,279.81329345703125,5.3802490234375],"min":[-70.709228515625,-9.376821517944336,-6.1370849609375],"type":"VEC3"},{"bufferView":2,"byteOffset":44424,"componentType":5126,"count":64,"max":[1.0,1.0,1.0],"min":[-1.0,-1.0,-1.0],"type":"VEC3"},{"bufferView":3,"byteOffset":19248,"componentType":5126,"count":64,"max":[1.0,0.0,1.0,1.0],"min":[-1.0,0.0,-1.0,1.0],"type":"VEC4"},{"bufferView":1,"byteOffset":39968,"componentType":5126,"count":64,"max":[1.4141845703125,2.8919010162353516],"min":[0.0,0.0],"type":"VEC2"},{"bufferView":1,"byteOffset":40480,"componentType":5126,"count":64,"max":[0.0,0.0],"min":[0.0,0.0],"type":"VEC2"},{"bufferView":1,"byteOffset":40992,"componentType":5126,"count":64,"max":[0.0,0.0],"min":[0.0,0.0],"type":"VEC2"},{"bufferView":1,"byteOffset":41504,"componentType":5126,"count":64,"max":[1.4141845703125,2.8919010162353516],"min":[0.0,0.0],"type":"VEC2"},{"bufferView":0,"byteOffset":13872,"componentType":5125,"count":132,"type":"SCALAR"},{"bufferView":2,"byteOffset":45192,"componentType":5126,"count":24,"max":[70.709228515625,275.5218200683594,3.082275390625],"min":[-59.796142578125,-9.376821517944336,-3.680419921875],"type":"VEC3"},{"bufferView":2,"byteOffset":45480,"componentType":5126,"count":24,"max":[1.0,1.0,1.0],"min":[-1.0,-1.0,-1.0],"type":"VEC3"},{"bufferView":3,"byteOffset":20272,"componentType":5126,"count":24,"max":[1.0,0.0,1.0,1.0],"min":[-1.0,0.0,-1.0,1.0],"type":"VEC4"},{"bufferView":1,"byteOffset":42016,"componentType":5126,"count":24,"max":[1.3050537109375,2.8489863872528076],"min":[0.0,0.0],"type":"VEC2"},{"bufferView":1,"byteOffset":42208,"componentType":5126,"count":24,"max":[1.3050537109375,2.8489863872528076],"min":[0.0,0.0],"type":"VEC2"},{"bufferView":0,"byteOffset":14400,"componentType":5125,"count":36,"type":"SCALAR"},{"bufferView":2,"byteOffset":45768,"componentType":5126,"count":81,"max":[4.027634620666504,1.1474609375,4.016913414001465],"min":[-4.027634620666504,-0.3173828125,-4.016913414001465],"type":"VEC3"},{"bufferView":2,"byteOffset":46740,"componentType":5126,"count":81,"max":[1.0,0.9793091416358948,0.9474793076515198],"min":[-1.0,-1.0,-0.9474793672561646],"type":"VEC3"},{"bufferView":1,"byteOffset":42400,"componentType":5126,"count":81,"max":[0.04027634859085083,0.040169134736061096],"min":[-0.04027634859085083,-0.040169134736061096],"type":"VEC2"},{"bufferView":0,"byteOffset":14544,"componentType":5125,"count":120,"type":"SCALAR"},{"bufferView":2,"byteOffset":47712,"componentType":5126,"count":100,"max":[4.5278801918029785,1.879668951034546,4.270553112030029],"min":[-4.527901649475098,-0.3173828125,-4.273312568664551],"type":"VEC3"},{"bufferView":2,"byteOffset":48912,"componentType":5126,"count":100,"max":[0.9761090278625488,0.9033542275428772,0.9435009360313416],"min":[-0.9761090278625488,-1.0,-0.9435009360313416],"type":"VEC3"},{"bufferView":1,"byteOffset":43048,"componentType":5126,"count":100,"max":[0.04527822881937027,0.04434152692556381],"min":[-0.04527844116091728,-0.04436645656824112],"type":"VEC2"},{"bufferView":0,"byteOffset":15024,"componentType":5125,"count":120,"type":"SCALAR"},{"bufferView":2,"byteOffset":50112,"componentType":5126,"count":62,"max":[4.027634620666504,4.669551849365234,4.016913414001465],"min":[-4.027634620666504,-0.3173828125,-4.016913414001465],"type":"VEC3"},{"bufferView":2,"byteOffset":50856,"componentType":5126,"count":62,"max":[0.9919838905334473,1.0,0.9389106631278992],"min":[-0.9919830560684204,-1.0,-0.9387714266777039],"type":"VEC3"},{"bufferView":1,"byteOffset":43848,"componentType":5126,"count":62,"max":[0.04027634859085083,0.042583633214235306],"min":[-0.04027634859085083,-0.040169134736061096],"type":"VEC2"},{"bufferView":0,"byteOffset":15504,"componentType":5125,"count":120,"type":"SCALAR"},{"bufferView":2,"byteOffset":51600,"componentType":5126,"count":886,"max":[3.0,3.0,3.0],"min":[-3.0,-3.0,-3.0],"type":"VEC3"},{"bufferView":2,"byteOffset":62232,"componentType":5126,"count":886,"max":[1.0,1.0,1.0],"min":[-1.0,-1.0,-1.0],"type":"VEC3"},{"bufferView":1,"byteOffset":44344,"componentType":5126,"count":886,"max":[0.02106139250099659,0.02106139250099659],"min":[-0.02106139250099659,-0.02106139250099659],"type":"VEC2"},{"bufferView":0,"byteOffset":15984,"componentType":5125,"count":960,"type":"SCALAR"},{"bufferView":2,"byteOffset":72864,"componentType":5126,"count":81,"max":[4.027634620666504,1.1474609375,4.016913414001465],"min":[-4.027634620666504,-0.3173828125,-4.016913414001465],"type":"VEC3"},{"bufferView":2,"byteOffset":73836,"componentType":5126,"count":81,"max":[1.0,0.9793091416358948,0.9474793076515198],"min":[-1.0,-1.0,-0.9474793672561646],"type":"VEC3"},{"bufferView":1,"byteOffset":51432,"componentType":5126,"count":81,"max":[0.04027634859085083,0.040169134736061096],"min":[-0.04027634859085083,-0.040169134736061096],"type":"VEC2"},{"bufferView":0,"byteOffset":19824,"componentType":5125,"count":120,"type":"SCALAR"},{"bufferView":2,"byteOffset":74808,"componentType":5126,"count":100,"max":[4.5278801918029785,1.879668951034546,4.270553112030029],"min":[-4.527901649475098,-0.3173828125,-4.273312568664551],"type":"VEC3"},{"bufferView":2,"byteOffset":76008,"componentType":5126,"count":100,"max":[0.9761090278625488,0.9033542275428772,0.9435009360313416],"min":[-0.9761090278625488,-1.0,-0.9435009360313416],"type":"VEC3"},{"bufferView":1,"byteOffset":52080,"componentType":5126,"count":100,"max":[0.04527822881937027,0.04434152692556381],"min":[-0.04527844116091728,-0.04436645656824112],"type":"VEC2"},{"bufferView":0,"byteOffset":20304,"componentType":5125,"count":120,"type":"SCALAR"},{"bufferView":2,"byteOffset":77208,"componentType":5126,"count":62,"max":[4.027634620666504,4.669551849365234,4.016913414001465],"min":[-4.027634620666504,-0.3173828125,-4.016913414001465],"type":"VEC3"},{"bufferView":2,"byteOffset":77952,"componentType":5126,"count":62,"max":[0.9919838905334473,1.0,0.9389106631278992],"min":[-0.9919830560684204,-1.0,-0.9387714266777039],"type":"VEC3"},{"bufferView":1,"byteOffset":52880,"componentType":5126,"count":62,"max":[0.04027634859085083,0.042583633214235306],"min":[-0.04027634859085083,-0.040169134736061096],"type":"VEC2"},{"bufferView":0,"byteOffset":20784,"componentType":5125,"count":120,"type":"SCALAR"},{"bufferView":2,"byteOffset":78696,"componentType":5126,"count":886,"max":[3.0,3.0,3.0],"min":[-3.0,-3.0,-3.0],"type":"VEC3"},{"bufferView":2,"byteOffset":89328,"componentType":5126,"count":886,"max":[1.0,1.0,1.0],"min":[-1.0,-1.0,-1.0],"type":"VEC3"},{"bufferView":1,"byteOffset":53376,"componentType":5126,"count":886,"max":[0.02106139250099659,0.02106139250099659],"min":[-0.02106139250099659,-0.02106139250099659],"type":"VEC2"},{"bufferView":0,"byteOffset":21264,"componentType":5125,"count":960,"type":"SCALAR"},{"bufferView":2,"byteOffset":99960,"componentType":5126,"count":151,"max":[183.57772827148438,268.0155334472656,465.52276611328125],"min":[-805.4779052734375,-462.5931701660156,-700.42041015625],"type":"VEC3"},{"bufferView":2,"byteOffset":101772,"componentType":5126,"count":151,"max":[1.0,1.0,1.0],"min":[-1.0,-1.0,-1.0],"type":"VEC3"},{"bufferView":3,"byteOffset":20656,"componentType":5126,"count":151,"max":[1.0,4.1258244891650975e-06,1.0,1.0],"min":[-1.0,-4.221773451718036e-06,-1.0,1.0],"type":"VEC4"},{"bufferView":1,"byteOffset":60464,"componentType":5126,"count":151,"max":[2.6070613861083984,2.426140785217285],"min":[-2.313821315765381,-2.0226731300354004],"type":"VEC2"},{"bufferView":1,"byteOffset":61672,"componentType":5126,"count":151,"max":[0.0,0.0],"min":[0.0,0.0],"type":"VEC2"},{"bufferView":1,"byteOffset":62880,"componentType":5126,"count":151,"max":[0.0,0.0],"min":[0.0,0.0],"type":"VEC2"},{"bufferView":0,"byteOffset":25104,"componentType":5125,"count":276,"type":"SCALAR"},{"bufferView":2,"byteOffset":103584,"componentType":5126,"count":136,"max":[183.58383178710938,268.0155334472656,-103.04641723632812],"min":[-308.5135803222656,-462.5931701660156,-700.42041015625],"type":"VEC3"},{"bufferView":2,"byteOffset":105216,"componentType":5126,"count":136,"max":[1.0,1.0,1.0],"min":[-1.0,-1.0,-1.0],"type":"VEC3"},{"bufferView":3,"byteOffset":23072,"componentType":5126,"count":136,"max":[1.0,2.8951598096682574e-07,1.0,1.0],"min":[-1.0,-5.143609769220348e-07,-1.0,1.0],"type":"VEC4"},{"bufferView":1,"byteOffset":64088,"componentType":5126,"count":136,"max":[1.7510509490966797,0.6700706481933594],"min":[-1.751062273979187,-2.0226731300354004],"type":"VEC2"},{"bufferView":1,"byteOffset":65176,"componentType":5126,"count":136,"max":[0.0,0.0],"min":[0.0,0.0],"type":"VEC2"},{"bufferView":1,"byteOffset":66264,"componentType":5126,"count":136,"max":[0.0,0.0],"min":[0.0,0.0],"type":"VEC2"},{"bufferView":0,"byteOffset":26208,"componentType":5125,"count":252,"type":"SCALAR"},{"bufferView":2,"byteOffset":106848,"componentType":5126,"count":96,"max":[9.979248046875,414.70013427734375,9.534576416015625],"min":[-9.828038215637207,-69.41604614257812,-1732.61279296875],"type":"VEC3"},{"bufferView":2,"byteOffset":108000,"componentType":5126,"count":96,"max":[1.0,1.0,1.0],"min":[-1.0,-1.0,-1.0],"type":"VEC3"},{"bufferView":3,"byteOffset":25248,"componentType":5126,"count":96,"max":[1.0,1.0,1.0,1.0],"min":[-1.0,-1.0,-1.0,1.0],"type":"VEC4"},{"bufferView":1,"byteOffset":67352,"componentType":5126,"count":96,"max":[0.1980728656053543,88.38803100585938],"min":[0.0,0.0],"type":"VEC2"},{"bufferView":0,"byteOffset":27216,"componentType":5125,"count":144,"type":"SCALAR"},{"bufferView":2,"byteOffset":109152,"componentType":5126,"count":1056,"max":[9.979248046875,414.70013427734375,6150.8515625],"min":[-7216.51611328125,-69.4161605834961,-6289.47412109375],"type":"VEC3"},{"bufferView":2,"byteOffset":121824,"componentType":5126,"count":1056,"max":[1.0,1.0,1.0],"min":[-1.0,-1.0,-1.0],"type":"VEC3"},{"bufferView":3,"byteOffset":26784,"componentType":5126,"count":1056,"max":[1.0,1.0,1.0,1.0],"min":[-1.0,-1.0,-1.0,1.0],"type":"VEC4"},{"bufferView":1,"byteOffset":68120,"componentType":5126,"count":1056,"max":[0.19811925292015076,179.2086181640625],"min":[0.0,0.0],"type":"VEC2"},{"bufferView":0,"byteOffset":27792,"componentType":5125,"count":1584,"type":"SCALAR"},{"bufferView":2,"byteOffset":134496,"componentType":5126,"count":536,"max":[247.85940551757812,8780.634765625,2955.04150390625],"min":[-15.796730995178223,8323.048828125,-3934.9189453125],"type":"VEC3"},{"bufferView":2,"byteOffset":140928,"componentType":5126,"count":536,"max":[1.0,1.0,1.0],"min":[-1.0,-1.0,-1.0],"type":"VEC3"},{"bufferView":3,"byteOffset":43680,"componentType":5126,"count":536,"max":[1.0,1.0,1.0,1.0],"min":[-1.0,-1.0,-1.0,1.0],"type":"VEC4"},{"bufferView":1,"byteOffset":76568,"componentType":5126,"count":536,"max":[1.8270055055618286,50.73609924316406],"min":[0.0,0.0],"type":"VEC2"},{"bufferView":0,"byteOffset":34128,"componentType":5125,"count":804,"type":"SCALAR"}],"asset":{"extras":{"author":"3RDimens (https://sketchfab.com/3RDimens)","license":"CC-BY-4.0 (http://creativecommons.org/licenses/by/4.0/)","source":"https://sketchfab.com/3d-models/military-control-building-game-ready-2bff5075256e4370b93ad58237567008","title":"Military Control Building - Game Ready","godot_game_ready":3},"generator":"Sketchfab-16.75.0","version":"2.0"},"bufferViews":[{"buffer":0,"byteLength":37344,"name":"floatBufferViews","target":34963},{"buffer":0,"byteLength":80856,"byteOffset":37344,"byteStride":8,"name":"floatBufferViews","target":34962},{"buffer":0,"byteLength":147360,"byteOffset":118200,"byteStride":12,"name":"floatBufferViews","target":34962},{"buffer":0,"byteLength":52256,"byteOffset":265560,"byteStride":16,"name":"floatBufferViews","target":34962}],"buffers":[{"byteLength":317816,"uri":"military_control_building.bin"}],"extensionsUsed":["KHR_materials_specular","KHR_texture_transform","KHR_materials_emissive_strength"],"images":[{"uri":"textures/Floor_1_baseColor.jpeg"},{"uri":"textures/Floor_1_metallicRoughness.png"},{"uri":"textures/Floor_1_normal.png"},{"uri":"textures/Floor_1_specularf0.png"},{"uri":"textures/Outer_Walls_baseColor.jpeg"},{"uri":"textures/Outer_Walls_metallicRoughness.png"},{"uri":"textures/Outer_Walls_normal.png"},{"uri":"textures/Outer_Walls_specularf0.png"},{"uri":"textures/Ceiling_baseColor.jpeg"},{"uri":"textures/Ceiling_metallicRoughness.png"},{"uri":"textures/Ceiling_emissive.jpeg"},{"uri":"textures/Ceiling_normal.png"},{"uri":"textures/Ceiling_specularf0.png"},{"uri":"textures/Inner_walls_baseColor.jpeg"},{"uri":"textures/Inner_walls_metallicRoughness.png"},{"uri":"textures/Inner_walls_specularf0.png"},{"uri":"textures/O_floor_metallicRoughness.png"},{"uri":"textures/O_floor_normal.jpeg"},{"uri":"textures/O_floor_specularf0.png"},{"uri":"textures/Roof_1_baseColor.jpeg"},{"uri":"textures/Roof_1_metallicRoughness.png"},{"uri":"textures/Roof_1_normal.png"},{"uri":"textures/Roof_1_specularf0.png"},{"uri":"textures/window_metallicRoughness.png"},{"uri":"textures/window_normal.png"},{"uri":"textures/Door_baseColor.jpeg"},{"uri":"textures/Door_metallicRoughness.png"},{"uri":"textures/Door_and_Elevator_baseColor.jpeg"},{"uri":"textures/Stairs_metallicRoughness.png"},{"uri":"textures/Stairs_normal.png"},{"uri":"textures/Railing_metallicRoughness.png"}],"materials":[{"extensions":{"KHR_materials_specular":{"specularColorFactor":[1.0,1.0,1.0],"specularFactor":1.0,"specularTexture":{"index":3}}},"name":"Floor_1","normalTexture":{"index":2},"occlusionTexture":{"index":1},"pbrMetallicRoughness":{"baseColorTexture":{"index":0},"metallicFactor":0.0,"metallicRoughnessTexture":{"index":1},"roughnessFactor":0.3}},{"extensions":{"KHR_materials_specular":{"specularColorFactor":[1.0,1.0,1.0],"specularFactor":1.0,"specularTexture":{"index":7}}},"name":"Outer_Walls","normalTexture":{"extensions":{"KHR_texture_transform":{"scale":[0.6999999999999995,0.6999999999999995]}},"index":6},"occlusionTexture":{"extensions":{"KHR_texture_transform":{"scale":[0.6999999999999995,0.6999999999999995]}},"index":5},"pbrMetallicRoughness":{"baseColorTexture":{"extensions":{"KHR_texture_transform":{"scale":[0.6999999999999995,0.6999999999999995]}},"index":4},"metallicFactor":0.3,"metallicRoughnessTexture":{"index":5}}},{"doubleSided":true,"name":"Roof","pbrMetallicRoughness":{"metallicFactor":0.0,"roughnessFactor":0.6}},{"emissiveFactor":[1.0,1.0,1.0],"emissiveTexture":{"index":10},"extensions":{"KHR_materials_emissive_strength":{"emissiveStrength":5.0},"KHR_materials_specular":{"specularColorFactor":[1.0,1.0,1.0],"specularFactor":0.0,"specularTexture":{"index":12}}},"name":"Ceiling","normalTexture":{"index":11,"scale":0.5},"occlusionTexture":{"index":9},"pbrMetallicRoughness":{"baseColorTexture":{"index":8},"metallicRoughnessTexture":{"index":9},"roughnessFactor":0.8}},{"extensions":{"KHR_materials_specular":{"specularColorFactor":[1.0,1.0,1.0],"specularFactor":1.0,"specularTexture":{"index":15}}},"name":"Inner_walls","occlusionTexture":{"index":14,"strength":0.5},"pbrMetallicRoughness":{"baseColorTexture":{"index":13},"metallicFactor":0.2,"metallicRoughnessTexture":{"index":14},"roughnessFactor":0.7}},{"extensions":{"KHR_materials_specular":{"specularColorFactor":[1.0,1.0,1.0],"specularFactor":1.0,"specularTexture":{"index":18}}},"name":"O_floor","normalTexture":{"index":17,"scale":0.1},"occlusionTexture":{"index":16},"pbrMetallicRoughness":{"baseColorFactor":[0.0009079175114596529,0.0009079175114596529,0.0009079175114596529,1.0],"metallicFactor":0.0,"metallicRoughnessTexture":{"index":16},"roughnessFactor":0.8}},{"doubleSided":true,"extensions":{"KHR_materials_specular":{"specularColorFactor":[1.0,1.0,1.0],"specularFactor":1.0,"specularTexture":{"index":22}}},"name":"Roof_1","normalTexture":{"index":21},"occlusionTexture":{"index":20},"pbrMetallicRoughness":{"baseColorTexture":{"index":19},"metallicFactor":0.0,"metallicRoughnessTexture":{"index":20}}},{"doubleSided":true,"extensions":{"KHR_materials_specular":{"specularColorFactor":[1.0,1.0,1.0],"specularFactor":0.0}},"name":"window","normalTexture":{"index":24},"pbrMetallicRoughness":{"baseColorFactor":[0.04224738147730397,0.04224738147730397,0.04224738147730397,1.0],"metallicRoughnessTexture":{"index":23},"roughnessFactor":0.2}},{"alphaMode":"BLEND","doubleSided":true,"extensions":{"KHR_materials_specular":{"specularColorFactor":[1.0,1.0,1.0],"specularFactor":1.0}},"name":"glass","pbrMetallicRoughness":{"baseColorFactor":[0.6531693982044642,0.6531693982044642,0.6531693982044642,0.3],"roughnessFactor":0.0}},{"extensions":{"KHR_materials_specular":{"specularColorFactor":[1.0,1.0,1.0],"specularFactor":0.0}},"name":"Door","normalTexture":{"index":24},"occlusionTexture":{"index":26},"pbrMetallicRoughness":{"baseColorTexture":{"index":25},"metallicRoughnessTexture":{"index":26},"roughnessFactor":0.3}},{"doubleSided":true,"extensions":{"KHR_materials_specular":{"specularColorFactor":[1.0,1.0,1.0],"specularFactor":0.0}},"name":"Door_and_Elevator","pbrMetallicRoughness":{"baseColorTexture":{"index":27},"roughnessFactor":0.3}},{"doubleSided":true,"extensions":{"KHR_materials_specular":{"specularColorFactor":[1.0,1.0,1.0],"specularFactor":1.0}},"name":"Stairs","normalTexture":{"index":29},"occlusionTexture":{"index":28,"strength":0.7},"pbrMetallicRoughness":{"baseColorTexture":{"index":13},"metallicFactor":0.0,"metallicRoughnessTexture":{"index":28},"roughnessFactor":0.6}},{"extensions":{"KHR_materials_specular":{"specularColorFactor":[1.0,1.0,1.0],"specularFactor":1.0}},"name":"Railing","normalTexture":{"index":24},"occlusionTexture":{"index":30},"pbrMetallicRoughness":{"baseColorFactor":[0.025312307522325137,0.025312307522325137,0.025312307522325137,1.0],"metallicRoughnessTexture":{"index":30},"roughnessFactor":0.6142568044084923}}],"meshes":[{"name":"_1st_Inner_Floor_Floor_1_0","primitives":[{"attributes":{"NORMAL":1,"POSITION":0,"TANGENT":2,"TEXCOORD_0":3,"TEXCOORD_1":4},"indices":5,"material":0,"mode":4}]},{"name":"_1st_Inner_Floor_Outer_Walls_0","primitives":[{"attributes":{"NORMAL":7,"POSITION":6,"TANGENT":8,"TEXCOORD_0":9,"TEXCOORD_1":10},"indices":11,"material":1,"mode":4}]},{"name":"_2nd_Inner_Floor_Roof_0","primitives":[{"attributes":{"NORMAL":13,"POSITION":12,"TEXCOORD_0":14},"indices":15,"material":2,"mode":4}]},{"name":"_2nd_Inner_Floor_Outer_Walls_0","primitives":[{"attributes":{"NORMAL":17,"POSITION":16,"TANGENT":18,"TEXCOORD_0":19,"TEXCOORD_1":20},"indices":21,"material":1,"mode":4}]},{"name":"_2nd_Inner_Floor_Ceiling_0","primitives":[{"attributes":{"NORMAL":23,"POSITION":22,"TANGENT":24,"TEXCOORD_0":25,"TEXCOORD_1":26},"indices":27,"material":3,"mode":4}]},{"name":"_2nd_Inner_Floor_Floor_1_0","primitives":[{"attributes":{"NORMAL":29,"POSITION":28,"TANGENT":30,"TEXCOORD_0":31,"TEXCOORD_1":32},"indices":33,"material":0,"mode":4}]},{"name":"_2nd_Inner_Floor_Inner_walls_0","primitives":[{"attributes":{"NORMAL":35,"POSITION":34,"TEXCOORD_0":36,"TEXCOORD_1":37},"indices":38,"material":4,"mode":4}]},{"name":"Outer_Floor_O_floor_0","primitives":[{"attributes":{"NORMAL":40,"POSITION":39,"TANGENT":41,"TEXCOORD_0":42},"indices":43,"material":5,"mode":4}]},{"name":"Roof_Roof_1_0","primitives":[{"attributes":{"NORMAL":45,"POSITION":44,"TANGENT":46,"TEXCOORD_0":47,"TEXCOORD_1":48},"indices":49,"material":6,"mode":4}]},{"name":"Roof_Outer_Walls_0","primitives":[{"attributes":{"NORMAL":51,"POSITION":50,"TANGENT":52,"TEXCOORD_0":53,"TEXCOORD_1":54},"indices":55,"material":1,"mode":4}]},{"name":"Roof_Ceiling_0","primitives":[{"attributes":{"NORMAL":57,"POSITION":56,"TANGENT":58,"TEXCOORD_0":59,"TEXCOORD_1":60},"indices":61,"material":3,"mode":4}]},{"name":"Walls_Inner_walls_0","primitives":[{"attributes":{"NORMAL":63,"POSITION":62,"TEXCOORD_0":64,"TEXCOORD_1":65,"TEXCOORD_2":66,"TEXCOORD_3":67},"indices":68,"material":4,"mode":4}]},{"name":"Walls_Outer_Walls_0","primitives":[{"attributes":{"NORMAL":70,"POSITION":69,"TANGENT":71,"TEXCOORD_0":72,"TEXCOORD_1":73,"TEXCOORD_2":74,"TEXCOORD_3":75},"indices":76,"material":1,"mode":4}]},{"name":"window_1_window_0","primitives":[{"attributes":{"NORMAL":78,"POSITION":77,"TANGENT":79,"TEXCOORD_0":80},"indices":81,"material":7,"mode":4}]},{"name":"glass_1_glass_0","primitives":[{"attributes":{"NORMAL":83,"POSITION":82,"TEXCOORD_0":84},"indices":85,"material":8,"mode":4}]},{"name":"window_2_window_0","primitives":[{"attributes":{"NORMAL":87,"POSITION":86,"TANGENT":88,"TEXCOORD_0":89},"indices":90,"material":7,"mode":4}]},{"name":"glass_1_1_glass_0","primitives":[{"attributes":{"NORMAL":92,"POSITION":91,"TEXCOORD_0":93},"indices":94,"material":8,"mode":4}]},{"name":"window_3_window_0","primitives":[{"attributes":{"NORMAL":96,"POSITION":95,"TANGENT":97,"TEXCOORD_0":98},"indices":99,"material":7,"mode":4}]},{"name":"glass_2_glass_0","primitives":[{"attributes":{"NORMAL":101,"POSITION":100,"TEXCOORD_0":102},"indices":103,"material":8,"mode":4}]},{"name":"window_4_window_0","primitives":[{"attributes":{"NORMAL":105,"POSITION":104,"TANGENT":106,"TEXCOORD_0":107},"indices":108,"material":7,"mode":4}]},{"name":"glass_2_1_glass_0","primitives":[{"attributes":{"NORMAL":110,"POSITION":109,"TEXCOORD_0":111},"indices":112,"material":8,"mode":4}]},{"name":"Door_frame_Door_0","primitives":[{"attributes":{"NORMAL":114,"POSITION":113,"TANGENT":115,"TEXCOORD_0":116,"TEXCOORD_1":117,"TEXCOORD_2":118,"TEXCOORD_3":119},"indices":120,"material":9,"mode":4}]},{"name":"Door_1_Door_0","primitives":[{"attributes":{"NORMAL":122,"POSITION":121,"TANGENT":123,"TEXCOORD_0":124,"TEXCOORD_1":125},"indices":126,"material":9,"mode":4}]},{"name":"Cylinder_Door_and_Elevator_0","primitives":[{"attributes":{"NORMAL":128,"POSITION":127,"TEXCOORD_0":129},"indices":130,"material":10,"mode":4}]},{"name":"Cylinder_1_Door_and_Elevator_0","primitives":[{"attributes":{"NORMAL":132,"POSITION":131,"TEXCOORD_0":133},"indices":134,"material":10,"mode":4}]},{"name":"Cylinder_2_Door_and_Elevator_0","primitives":[{"attributes":{"NORMAL":136,"POSITION":135,"TEXCOORD_0":137},"indices":138,"material":10,"mode":4}]},{"name":"Sphere_Door_and_Elevator_0","primitives":[{"attributes":{"NORMAL":140,"POSITION":139,"TEXCOORD_0":141},"indices":142,"material":10,"mode":4}]},{"name":"Cylinder_1_Door_and_Elevator_0","primitives":[{"attributes":{"NORMAL":144,"POSITION":143,"TEXCOORD_0":145},"indices":146,"material":10,"mode":4}]},{"name":"Cylinder_1_1_Door_and_Elevator_0","primitives":[{"attributes":{"NORMAL":148,"POSITION":147,"TEXCOORD_0":149},"indices":150,"material":10,"mode":4}]},{"name":"Cylinder_2_1_Door_and_Elevator_0","primitives":[{"attributes":{"NORMAL":152,"POSITION":151,"TEXCOORD_0":153},"indices":154,"material":10,"mode":4}]},{"name":"Sphere_1_Door_and_Elevator_0","primitives":[{"attributes":{"NORMAL":156,"POSITION":155,"TEXCOORD_0":157},"indices":158,"material":10,"mode":4}]},{"name":"Stairs_1_Stairs_0","primitives":[{"attributes":{"NORMAL":160,"POSITION":159,"TANGENT":161,"TEXCOORD_0":162,"TEXCOORD_1":163,"TEXCOORD_2":164},"indices":165,"material":11,"mode":4}]},{"name":"Stairs_2_Stairs_0","primitives":[{"attributes":{"NORMAL":167,"POSITION":166,"TANGENT":168,"TEXCOORD_0":169,"TEXCOORD_1":170,"TEXCOORD_2":171},"indices":172,"material":11,"mode":4}]},{"name":"Inner_Railing_Railing_0","primitives":[{"attributes":{"NORMAL":174,"POSITION":173,"TANGENT":175,"TEXCOORD_0":176},"indices":177,"material":12,"mode":4}]},{"name":"Roof_Railing_Railing_0","primitives":[{"attributes":{"NORMAL":179,"POSITION":178,"TANGENT":180,"TEXCOORD_0":181},"indices":182,"material":12,"mode":4}]},{"name":"Ladder_Railing_0","primitives":[{"attributes":{"NORMAL":184,"POSITION":183,"TANGENT":185,"TEXCOORD_0":186},"indices":187,"material":12,"mode":4}]}],"nodes":[{"children":[1],"matrix":[1.0,0.0,0.0,0.0,0.0,2.220446049250313e-16,-1.0,0.0,0.0,1.0,2.220446049250313e-16,0.0,0.0,0.0,0.0,1.0],"name":"Sketchfab_model"},{"children":[2],"matrix":[0.009999999776482582,0.0,0.0,0.0,0.0,0.0,0.009999999776482582,0.0,0.0,-0.009999999776482582,0.0,0.0,0.0,0.0,0.0,1.0],"name":"ffc3b7ef4abf44debeebbf03eae752d9.fbx"},{"children":[3],"name":"RootNode"},{"children":[4,7,13,15,19,22,26,30,34,38,62,67,72],"name":"Double_Story_Control_Building"},{"children":[5,6],"matrix":[1.0,0.0,0.0,0.0,0.0,1.0,0.0,0.0,0.0,0.0,1.0,0.0,-1236.724853515625,-460.0,-824.237060546875,1.0],"name":"_1st_Inner_Floor"},{"mesh":0,"name":"_1st_Inner_Floor_Floor_1_0-col"},{"mesh":1,"name":"_1st_Inner_Floor_Outer_Walls_0-col"},{"children":[8,9,10,11,12],"matrix":[1.0,0.0,0.0,0.0,0.0,1.0,0.0,0.0,0.0,0.0,1.0,0.0,-1236.724853515625,4.56390380859375,-824.237060546875,1.0],"name":"_2nd_Inner_Floor"},{"mesh":2,"name":"_2nd_Inner_Floor_Roof_0-col"},{"mesh":3,"name":"_2nd_Inner_Floor_Outer_Walls_0-col"},{"mesh":4,"name":"_2nd_Inner_Floor_Ceiling_0-col"},{"mesh":5,"name":"_2nd_Inner_Floor_Floor_1_0-col"},{"mesh":6,"name":"_2nd_Inner_Floor_Inner_walls_0-col"},{"children":[14],"matrix":[1.0,0.0,0.0,0.0,0.0,1.0,0.0,0.0,0.0,0.0,1.0,0.0,-2556.72607421875,-471.8999938964844,46.77734375,1.0],"name":"Outer_Floor"},{"mesh":7,"name":"Outer_Floor_O_floor_0-col"},{"children":[16,17,18],"matrix":[1.0,0.0,0.0,0.0,0.0,1.0,0.0,0.0,0.0,0.0,1.0,0.0,-1236.724853515625,426.0000305175781,-824.237060546875,1.0],"name":"Roof"},{"mesh":8,"name":"Roof_Roof_1_0-col"},{"mesh":9,"name":"Roof_Outer_Walls_0-col"},{"mesh":10,"name":"Roof_Ceiling_0-col"},{"children":[20,21],"matrix":[1.0,0.0,0.0,0.0,0.0,1.0,0.0,0.0,0.0,0.0,1.0,0.0,-1236.724853515625,-392.0,-824.237060546875,1.0],"name":"Walls"},{"mesh":11,"name":"Walls_Inner_walls_0-col"},{"mesh":12,"name":"Walls_Outer_Walls_0-col"},{"children":[23,24],"matrix":[1.0,0.0,0.0,0.0,0.0,1.0,0.0,0.0,0.0,0.0,1.0,0.0,-726.727294921875,92.00000762939453,-73.236083984375,1.0],"name":"window_1"},{"mesh":13,"name":"window_1_window_0-col"},{"children":[25],"matrix":[-1.0,1.2246467991473532e-16,1.224646799147353e-16,0.0,-1.2246467991473532e-16,-2.220446049250313e-16,-1.0,0.0,-1.224646799147353e-16,-1.0,2.220446049250313e-16,0.0,-324.993896484375,95.99990844726562,1.50146484375,1.0],"name":"glass_1"},{"mesh":14,"name":"glass_1_glass_0"},{"children":[27,28],"matrix":[1.0,0.0,0.0,0.0,0.0,1.0,0.0,0.0,0.0,0.0,1.0,0.0,-726.727294921875,-341.4360046386719,-71.221923828125,1.0],"name":"window_2"},{"mesh":15,"name":"window_2_window_0-col"},{"children":[29],"matrix":[-1.0,1.2246467991473532e-16,1.224646799147353e-16,0.0,-1.2246467991473532e-16,-2.220446049250313e-16,-1.0,0.0,-1.224646799147353e-16,-1.0,2.220446049250313e-16,0.0,-324.993896484375,95.99990844726562,1.50146484375,1.0],"name":"glass_1_1"},{"mesh":16,"name":"glass_1_1_glass_0"},{"children":[31,32],"matrix":[2.220446049250313e-16,0.0,1.0,0.0,0.0,1.0,0.0,0.0,-1.0,0.0,2.220446049250313e-16,0.0,-88.031005859375,90.00000762939453,-274.237060546875,1.0],"name":"window_3"},{"mesh":17,"name":"window_3_window_0-col"},{"children":[33],"matrix":[1.0,0.0,0.0,0.0,0.0,2.220446049250313e-16,1.0,0.0,0.0,-1.0,2.220446049250313e-16,0.0,-442.99932861328125,95.99990844726562,1.3977527618408203,1.0],"name":"glass_2"},{"mesh":18,"name":"glass_2_glass_0"},{"children":[35,36],"matrix":[2.220446049250313e-16,0.0,1.0,0.0,0.0,1.0,0.0,0.0,-1.0,0.0,2.220446049250313e-16,0.0,-88.031005859375,-341.4360046386719,-268.22509765625,1.0],"name":"window_4"},{"mesh":19,"name":"window_4_window_0-col"},{"children":[37],"matrix":[1.0,0.0,0.0,0.0,0.0,2.220446049250313e-16,1.0,0.0,0.0,-1.0,2.220446049250313e-16,0.0,-442.99932861328125,95.99990844726562,1.3977527618408203,1.0],"name":"glass_2_1"},{"mesh":20,"name":"glass_2_1_glass_0"},{"children":[39,41],"matrix":[1.0,0.0,0.0,0.0,0.0,1.0,0.0,0.0,0.0,0.0,1.0,0.0,-2293.71337890625,-439.5999755859375,-70.220947265625,1.0],"name":"Door"},{"children":[40],"matrix":[1.0,0.0,0.0,0.0,0.0,1.0,0.0,0.0,0.0,0.0,1.0,0.0,5.18798828125,10.679984092712402,0.0,1.0],"name":"Door_frame"},{"mesh":21,"name":"Door_frame_Door_0-col"},{"children":[42],"matrix":[1.0,0.0,0.0,0.0,0.0,1.0,0.0,0.0,0.0,0.0,1.0,0.0,70.74000549316406,1.0099999904632568,0.0,1.0],"name":"Door_Pivot"},{"children":[43,44,53],"matrix":[1.0,0.0,0.0,0.0,0.0,1.0,0.0,0.0,0.0,0.0,1.0,0.0,-70.74000549316406,9.669983863830566,0.0,1.0],"name":"Door_1"},{"mesh":22,"name":"Door_1_Door_0-col"},{"children":[45,47,49,51],"matrix":[1.5,0.0,0.0,0.0,0.0,1.5,0.0,0.0,0.0,0.0,1.5,0.0,-47.66236114501953,135.77481079101562,5.4229736328125,1.0],"name":"Door_handle"},{"children":[46],"matrix":[0.0,-1.0,0.0,0.0,0.0,0.0,1.0,0.0,-1.0,0.0,0.0,0.0,0.0,0.0,-1.348876953125,1.0],"name":"Cylinder"},{"mesh":23,"name":"Cylinder_Door_and_Elevator_0"},{"children":[48],"matrix":[0.0,-0.45577067136764526,0.0,0.0,0.0,0.0,0.45577067136764526,0.0,-0.45577067136764526,0.0,0.0,0.0,0.0,0.0,-0.640869140625,1.0],"name":"Cylinder_1"},{"mesh":24,"name":"Cylinder_1_Door_and_Elevator_0"},{"children":[50],"matrix":[0.0,-0.4153258800506592,0.0,0.0,0.0,0.0,0.4153258800506592,0.0,-0.4153258800506592,0.0,0.0,0.0,0.0,0.0,0.0,1.0],"name":"Cylinder_2"},{"mesh":25,"name":"Cylinder_2_Door_and_Elevator_0"},{"children":[52],"matrix":[0.0,-1.0,0.0,0.0,0.0,0.0,1.0,0.0,-1.0,0.0,0.0,0.0,0.03662109375,0.08330345153808594,3.43017578125,1.0],"name":"Sphere"},{"mesh":26,"name":"Sphere_Door_and_Elevator_0"},{"children":[54,56,58,60],"matrix":[-1.5,1.8369701987210302e-16,1.8369701987210294e-16,0.0,1.8369701987210302e-16,1.5,1.8369701987210302e-16,0.0,-1.8369701987210294e-16,1.8369701987210302e-16,-1.5,0.0,-47.66236114501953,135.77481079101562,-5.657958984375,1.0],"name":"Door_handle_1"},{"children":[55],"matrix":[0.0,-1.0,0.0,0.0,0.0,0.0,1.0,0.0,-1.0,0.0,0.0,0.0,0.0,0.0,-1.348876953125,1.0],"name":"Cylinder_1"},{"mesh":27,"name":"Cylinder_1_Door_and_Elevator_0"},{"children":[57],"matrix":[0.0,-0.45577067136764526,0.0,0.0,0.0,0.0,0.45577067136764526,0.0,-0.45577067136764526,0.0,0.0,0.0,0.0,0.0,-0.640869140625,1.0],"name":"Cylinder_1_1"},{"mesh":28,"name":"Cylinder_1_1_Door_and_Elevator_0"},{"children":[59],"matrix":[0.0,-0.4153258800506592,0.0,0.0,0.0,0.0,0.4153258800506592,0.0,-0.4153258800506592,0.0,0.0,0.0,0.0,0.0,0.0,1.0],"name":"Cylinder_2_1"},{"mesh":29,"name":"Cylinder_2_1_Door_and_Elevator_0"},{"children":[61],"matrix":[0.0,-1.0,0.0,0.0,0.0,0.0,1.0,0.0,-1.0,0.0,0.0,0.0,0.03662109375,0.08330345153808594,3.43017578125,1.0],"name":"Sphere_1"},{"mesh":30,"name":"Sphere_1_Door_and_Elevator_0"},{"children":[63,65],"name":"Stairs"},{"children":[64],"matrix":[-0.3199999928474426,3.918869669677966e-17,3.9188696696779647e-17,0.0,3.918869669677966e-17,0.3199999928474426,3.918869669677966e-17,0.0,-3.9188696696779647e-17,3.918869669677966e-17,-0.3199999928474426,0.0,-2383.99658203125,-318.0000305175781,-1323.9990234375,1.0],"name":"Stairs_1"},{"mesh":31,"name":"Stairs_1_Stairs_0-col"},{"children":[66],"matrix":[0.3199999928474426,0.0,0.0,0.0,0.0,0.3199999928474426,0.0,0.0,0.0,0.0,0.3199999928474426,0.0,-2184.99755859375,-107.00001525878906,-1079.0008544921875,1.0],"name":"Stairs_2"},{"mesh":32,"name":"Stairs_2_Stairs_0-col"},{"children":[68,70],"matrix":[0.1945970058441162,0.0,0.0,0.0,0.0,0.1945970058441162,0.0,0.0,0.0,0.0,0.1945970058441162,0.0,-2487.29248046875,436.0,-81.1767578125,1.0],"name":"Railing"},{"children":[69],"matrix":[1.0,0.0,0.0,0.0,0.0,1.0,0.0,0.0,0.0,0.0,1.0,0.0,1892.0877685546875,-2237.444580078125,-5227.8388671875,1.0],"name":"Inner_Railing"},{"mesh":33,"name":"Inner_Railing_Railing_0-col"},{"children":[71],"matrix":[2.220446049250313e-16,0.0,1.0,0.0,0.0,1.0,0.0,0.0,-1.0,0.0,2.220446049250313e-16,0.0,6141.0283203125,0.0,0.0,1.0],"name":"Roof_Railing"},{"mesh":34,"name":"Roof_Railing_Railing_0-col"},{"children":[73],"matrix":[0.13484600186347961,0.0,0.0,0.0,0.0,2.9941823900773916e-17,0.13484598696231842,0.0,0.0,-0.13484598696231842,2.9941823900773916e-17,0.0,-2559.295654296875,-67.61703491210938,-1341.583251953125,1.0],"name":"Ladder"},{"mesh":35,"name":"Ladder_Railing_0-col"}],"samplers":[{"magFilter":9729,"minFilter":9987,"wrapS":10497,"wrapT":10497}],"scene":0,"scenes":[{"name":"military_control_building","nodes":[0]}],"textures":[{"sampler":0,"source":0},{"sampler":0,"source":1},{"sampler":0,"source":2},{"sampler":0,"source":3},{"sampler":0,"source":4},{"sampler":0,"source":5},{"sampler":0,"source":6},{"sampler":0,"source":7},{"sampler":0,"source":8},{"sampler":0,"source":9},{"sampler":0,"source":10},{"sampler":0,"source":11},{"sampler":0,"source":12},{"sampler":0,"source":13},{"sampler":0,"source":14},{"sampler":0,"source":15},{"sampler":0,"source":16},{"sampler":0,"source":17},{"sampler":0,"source":18},{"sampler":0,"source":19},{"sampler":0,"source":20},{"sampler":0,"source":21},{"sampler":0,"source":22},{"sampler":0,"source":23},{"sampler":0,"source":24},{"sampler":0,"source":25},{"sampler":0,"source":26},{"sampler":0,"source":27},{"sampler":0,"source":28},{"sampler":0,"source":29},{"sampler":0,"source":30}]}