{"accessors":[{"bufferView":2,"componentType":5126,"count":32,"max":[1225.0,17.79327392578125,820.013427734375],"min":[-1320.001220703125,-3.124082088470459,-729.986572265625],"type":"VEC3"},{"bufferView":2,"byteOffset":384,"componentType":5126,"count":32,"max":[-0.0,1.0,0.0],"min":[-0.01199865061789751,-0.9999999403953552,0.0],"type":"VEC3"},{"bufferView":3,"componentType":5126,"count":32,"max":[0.9999999403953552,0.0,0.0,1.0],"min":[-1.0,-0.011998649686574936,0.0,1.0],"type":"VEC4"},{"bufferView":1,"componentType":5126,"count":32,"max":[12.250018119812012,8.20013427734375],"min":[-13.200008392333984,-7.29986572265625],"type":"VEC2"},{"bufferView":1,"byteOffset":256,"componentType":5126,"count":32,"max":[12.250018119812012,8.20013427734375],"min":[-13.200008392333984,-7.29986572265625],"type":"VEC2"},{"bufferView":0,"componentType":5125,"count":108,"type":"SCALAR"},{"bufferView":2,"byteOffset":768,"componentType":5126,"count":102,"max":[1225.0,120.10529327392578,820.013427734375],"min":[-1320.001220703125,-3.124082088470459,-729.986572265625],"type":"VEC3"},{"bufferView":2,"byteOffset":1992,"componentType":5126,"count":102,"max":[1.0,0.668974757194519,1.0],"min":[-1.0,0.0,-1.0],"type":"VEC3"},{"bufferView":3,"byteOffset":512,"componentType":5126,"count":102,"max":[1.0,0.0,1.0,1.0],"min":[-1.0,0.0,-1.0,1.0],"type":"VEC4"},{"bufferView":1,"byteOffset":512,"componentType":5126,"count":102,"max":[3.3000030517578125,0.3002632260322571],"min":[-3.3000030517578125,-1.677775502204895],"type":"VEC2"},{"bufferView":1,"byteOffset":1328,"componentType":5126,"count":102,"max":[3.3000030517578125,0.3002632260322571],"min":[-3.3000030517578125,-1.677775502204895],"type":"VEC2"},{"bufferView":0,"byteOffset":432,"componentType":5125,"count":192,"type":"SCALAR"},{"bufferView":2,"byteOffset":3216,"componentType":5126,"count":24,"max":[2701.33056640625,31.25762939453125,100.982666015625],"min":[-151.287841796875,-7.977294921875,-1752.764892578125],"type":"VEC3"},{"bufferView":2,"byteOffset":3504,"componentType":5126,"count":24,"max":[1.0,0.9999669194221497,1.0],"min":[-1.0,-0.9999669194221497,-1.0],"type":"VEC3"},{"bufferView":3,"byteOffset":2144,"componentType":5126,"count":24,"max":[1.0,0.0,1.0,1.0],"min":[-1.0,0.0,-1.0,1.0],"type":"VEC4"},{"bufferView":1,"byteOffset":2144,"componentType":5126,"count":24,"max":[28.52618408203125,18.5374755859375],"min":[0.0,0.0],"type":"VEC2"},{"bufferView":0,"byteOffset":1200,"componentType":5125,"count":36,"type":"SCALAR"},{"bufferView":2,"byteOffset":3792,"componentType":5126,"count":4,"max":[1170.001220703125,0.0,770.013427734375],"min":[-1260.003662109375,0.0,-669.98291015625],"type":"VEC3"},{"bufferView":2,"byteOffset":3840,"componentType":5126,"count":4,"max":[-0.0,1.0,0.0],"min":[-0.0,1.0,0.0],"type":"VEC3"},{"bufferView":3,"byteOffset":2528,"componentType":5126,"count":4,"max":[-1.0,0.0,0.0,1.0],"min":[-1.0,0.0,0.0,1.0],"type":"VEC4"},{"bufferView":1,"byteOffset":2336,"componentType":5126,"count":4,"max":[3.1500091552734375,1.9250335693359375],"min":[-2.9250030517578125,-1.674957275390625],"type":"VEC2"},{"bufferView":1,"byteOffset":2368,"componentType":5126,"count":4,"max":[3.1500091552734375,1.9250335693359375],"min":[-2.9250030517578125,-1.674957275390625],"type":"VEC2"},{"bufferView":0,"byteOffset":1344,"componentType":5125,"count":6,"type":"SCALAR"},{"bufferView":2,"byteOffset":3888,"componentType":5126,"count":64,"max":[1220.001220703125,0.0,820.013427734375],"min":[-1320.001220703125,-50.0,-729.986572265625],"type":"VEC3"},{"bufferView":2,"byteOffset":4656,"componentType":5126,"count":64,"max":[1.0,1.0,1.0],"min":[-1.0,-1.0,-1.0],"type":"VEC3"},{"bufferView":3,"byteOffset":2592,"componentType":5126,"count":64,"max":[1.0,0.0,1.0,1.0],"min":[-1.0,0.0,-1.0,1.0],"type":"VEC4"},{"bufferView":1,"byteOffset":2400,"componentType":5126,"count":64,"max":[3.3000030517578125,2.0500335693359375],"min":[-3.3000030517578125,-1.8249664306640625],"type":"VEC2"},{"bufferView":1,"byteOffset":2912,"componentType":5126,"count":64,"max":[3.3000030517578125,2.0500335693359375],"min":[-3.3000030517578125,-1.8249664306640625],"type":"VEC2"},{"bufferView":0,"byteOffset":1368,"componentType":5125,"count":168,"type":"SCALAR"},{"bufferView":2,"byteOffset":5424,"componentType":5126,"count":4,"max":[1170.001220703125,-50.0,770.013427734375],"min":[-1260.003662109375,-50.0,-669.98291015625],"type":"VEC3"},{"bufferView":2,"byteOffset":5472,"componentType":5126,"count":4,"max":[-0.0,-1.0,0.0],"min":[-0.0,-1.0,0.0],"type":"VEC3"},{"bufferView":1,"byteOffset":3424,"componentType":5126,"count":4,"max":[2.96500301361084,1.8850336074829102],"min":[-3.11000919342041,-1.7149572372436523],"type":"VEC2"},{"bufferView":1,"byteOffset":3456,"componentType":5126,"count":4,"max":[2.96500301361084,1.8850336074829102],"min":[-3.11000919342041,-1.7149572372436523],"type":"VEC2"},{"bufferView":0,"byteOffset":2040,"componentType":5125,"count":6,"type":"SCALAR"},{"bufferView":2,"byteOffset":5520,"componentType":5126,"count":366,"max":[1200.750732421875,408.43316650390625,800.994873046875],"min":[-1300.0,-52.9998779296875,-700.0],"type":"VEC3"},{"bufferView":2,"byteOffset":9912,"componentType":5126,"count":366,"max":[1.0,1.0,1.0],"min":[-1.0,-1.0,-1.0],"type":"VEC3"},{"bufferView":3,"byteOffset":3616,"componentType":5126,"count":366,"max":[1.0,2.677386645721924e-10,1.0,1.0],"min":[-1.0,-0.014997703023254871,-1.0,1.0],"type":"VEC4"},{"bufferView":1,"byteOffset":3488,"componentType":5126,"count":366,"max":[3.25,2.0024871826171875],"min":[-3.2550010681152344,-1.75],"type":"VEC2"},{"bufferView":1,"byteOffset":6416,"componentType":5126,"count":366,"max":[0.0,0.0],"min":[0.0,0.0],"type":"VEC2"},{"bufferView":1,"byteOffset":9344,"componentType":5126,"count":366,"max":[0.0,0.0],"min":[0.0,0.0],"type":"VEC2"},{"bufferView":1,"byteOffset":12272,"componentType":5126,"count":366,"max":[3.25,2.0024871826171875],"min":[-3.2550010681152344,-1.75],"type":"VEC2"},{"bufferView":0,"byteOffset":2064,"componentType":5125,"count":714,"type":"SCALAR"},{"bufferView":2,"byteOffset":14304,"componentType":5126,"count":210,"max":[1150.0,366.5641784667969,750.4730224609375],"min":[-1200.0,-51.49993896484375,-599.871826171875],"type":"VEC3"},{"bufferView":2,"byteOffset":16824,"componentType":5126,"count":210,"max":[1.0,1.0,1.0],"min":[-1.0,-1.0,-1.0],"type":"VEC3"},{"bufferView":3,"byteOffset":9472,"componentType":5126,"count":210,"max":[1.0,2.0697843439165808e-10,1.0,1.0],"min":[-1.0,-1.426680455551832e-06,-1.0,1.0],"type":"VEC4"},{"bufferView":1,"byteOffset":15200,"componentType":5126,"count":210,"max":[3.0006768703460693,1.8761825561523438],"min":[-2.875,-2.3585901260375977],"type":"VEC2"},{"bufferView":1,"byteOffset":16880,"componentType":5126,"count":210,"max":[0.0,0.0],"min":[0.0,0.0],"type":"VEC2"},{"bufferView":1,"byteOffset":18560,"componentType":5126,"count":210,"max":[0.0,0.0],"min":[0.0,0.0],"type":"VEC2"},{"bufferView":1,"byteOffset":20240,"componentType":5126,"count":210,"max":[3.0006768703460693,1.8761825561523438],"min":[-2.875,-2.3585901260375977],"type":"VEC2"},{"bufferView":0,"byteOffset":4920,"componentType":5125,"count":324,"type":"SCALAR"},{"bufferView":2,"byteOffset":19344,"componentType":5126,"count":80,"max":[187.60986328125,199.99961853027344,15.00244140625],"min":[-826.995849609375,-0.0003814697265625,-15.00244140625],"type":"VEC3"},{"bufferView":2,"byteOffset":20304,"componentType":5126,"count":80,"max":[1.0,1.0,1.0],"min":[-1.0,-1.0,-1.0],"type":"VEC3"},{"bufferView":1,"byteOffset":21920,"componentType":5126,"count":80,"max":[10.14605712890625,2.0],"min":[0.0,0.0],"type":"VEC2"},{"bufferView":0,"byteOffset":6216,"componentType":5125,"count":192,"type":"SCALAR"},{"bufferView":2,"byteOffset":21264,"componentType":5126,"count":16,"max":[490.997314453125,0.0013394354609772563,63.00004196166992],"min":[-484.1064453125,0.0,-73.00003814697266],"type":"VEC3"},{"bufferView":2,"byteOffset":21456,"componentType":5126,"count":16,"max":[5.583697948452482e-09,1.0,1.8163889762945473e-05],"min":[-2.7126936856802786e-06,1.0,-2.1260868379613385e-05],"type":"VEC3"},{"bufferView":1,"byteOffset":22560,"componentType":5126,"count":16,"max":[4.841064453125,0.6300004124641418],"min":[-4.90997314453125,-0.730000376701355],"type":"VEC2"},{"bufferView":0,"byteOffset":6984,"componentType":5125,"count":24,"type":"SCALAR"},{"bufferView":2,"byteOffset":21648,"componentType":5126,"count":102,"max":[-196.9970703125,199.99961853027344,15.00244140625],"min":[-826.995849609375,-0.0003814697265625,-15.01213264465332],"type":"VEC3"},{"bufferView":2,"byteOffset":22872,"componentType":5126,"count":102,"max":[1.0,1.0,1.0],"min":[-1.0,-1.0,-1.0],"type":"VEC3"},{"bufferView":1,"byteOffset":22688,"componentType":5126,"count":102,"max":[6.29998779296875,2.0],"min":[0.0,0.0],"type":"VEC2"},{"bufferView":0,"byteOffset":7080,"componentType":5125,"count":192,"type":"SCALAR"},{"bufferView":2,"byteOffset":24096,"componentType":5126,"count":16,"max":[223.9990234375,0.0013394354609772563,63.00010681152344],"min":[-369.000244140625,0.0,-73.00003814697266],"type":"VEC3"},{"bufferView":2,"byteOffset":24288,"componentType":5126,"count":16,"max":[5.979655270493822e-06,1.0,1.8163889762945473e-05],"min":[-3.629904313129373e-06,1.0,-2.126086656062398e-05],"type":"VEC3"},{"bufferView":1,"byteOffset":23504,"componentType":5126,"count":16,"max":[3.69000244140625,0.6300010681152344],"min":[-2.239990234375,-0.730000376701355],"type":"VEC2"},{"bufferView":0,"byteOffset":7848,"componentType":5125,"count":24,"type":"SCALAR"},{"bufferView":2,"byteOffset":24480,"componentType":5126,"count":1056,"max":[14.394142150878906,17868.607421875,483.5738525390625],"min":[-10414.193359375,-84.09888458251953,-215.0587615966797],"type":"VEC3"},{"bufferView":2,"byteOffset":37152,"componentType":5126,"count":1056,"max":[1.0,1.0,1.0],"min":[-1.0,-1.0,-1.0],"type":"VEC3"},{"bufferView":1,"byteOffset":23632,"componentType":5126,"count":1056,"max":[0.19811925292015076,179.2086181640625],"min":[0.0,0.0],"type":"VEC2"},{"bufferView":0,"byteOffset":7944,"componentType":5125,"count":1584,"type":"SCALAR"},{"bufferView":2,"byteOffset":49824,"componentType":5126,"count":366,"max":[247.85940551757812,8780.634765625,3298.767822265625],"min":[-15.796730995178223,8323.072265625,-448.37542724609375],"type":"VEC3"},{"bufferView":2,"byteOffset":54216,"componentType":5126,"count":366,"max":[1.0,1.0,1.0],"min":[-1.0,-1.0,-1.0],"type":"VEC3"},{"bufferView":1,"byteOffset":32080,"componentType":5126,"count":366,"max":[1.8270055055618286,27.005233764648438],"min":[0.0,0.0],"type":"VEC2"},{"bufferView":0,"byteOffset":14280,"componentType":5125,"count":552,"type":"SCALAR"},{"bufferView":2,"byteOffset":58608,"componentType":5126,"count":64,"max":[70.709228515625,279.81329345703125,5.3802490234375],"min":[-70.709228515625,-9.376821517944336,-6.1370849609375],"type":"VEC3"},{"bufferView":2,"byteOffset":59376,"componentType":5126,"count":64,"max":[1.0,1.0,1.0],"min":[-1.0,-1.0,-1.0],"type":"VEC3"},{"bufferView":3,"byteOffset":12832,"componentType":5126,"count":64,"max":[1.0,0.0,1.0,1.0],"min":[-1.0,0.0,-1.0,1.0],"type":"VEC4"},{"bufferView":1,"byteOffset":35008,"componentType":5126,"count":64,"max":[1.4141845703125,2.8919010162353516],"min":[0.0,0.0],"type":"VEC2"},{"bufferView":1,"byteOffset":35520,"componentType":5126,"count":64,"max":[0.0,0.0],"min":[0.0,0.0],"type":"VEC2"},{"bufferView":1,"byteOffset":36032,"componentType":5126,"count":64,"max":[0.0,0.0],"min":[0.0,0.0],"type":"VEC2"},{"bufferView":1,"byteOffset":36544,"componentType":5126,"count":64,"max":[1.4141845703125,2.8919010162353516],"min":[0.0,0.0],"type":"VEC2"},{"bufferView":0,"byteOffset":16488,"componentType":5125,"count":132,"type":"SCALAR"},{"bufferView":2,"byteOffset":60144,"componentType":5126,"count":24,"max":[70.709228515625,275.5218200683594,3.082275390625],"min":[-59.796142578125,-9.376821517944336,-3.680419921875],"type":"VEC3"},{"bufferView":2,"byteOffset":60432,"componentType":5126,"count":24,"max":[1.0,1.0,1.0],"min":[-1.0,-1.0,-1.0],"type":"VEC3"},{"bufferView":3,"byteOffset":13856,"componentType":5126,"count":24,"max":[1.0,0.0,1.0,1.0],"min":[-1.0,0.0,-1.0,1.0],"type":"VEC4"},{"bufferView":1,"byteOffset":37056,"componentType":5126,"count":24,"max":[1.3050537109375,2.8489863872528076],"min":[0.0,0.0],"type":"VEC2"},{"bufferView":1,"byteOffset":37248,"componentType":5126,"count":24,"max":[1.3050537109375,2.8489863872528076],"min":[0.0,0.0],"type":"VEC2"},{"bufferView":0,"byteOffset":17016,"componentType":5125,"count":36,"type":"SCALAR"},{"bufferView":2,"byteOffset":60720,"componentType":5126,"count":81,"max":[4.027634620666504,1.1474609375,4.016913414001465],"min":[-4.027634620666504,-0.3173828125,-4.016913414001465],"type":"VEC3"},{"bufferView":2,"byteOffset":61692,"componentType":5126,"count":81,"max":[1.0,0.9793091416358948,0.9474793076515198],"min":[-1.0,-1.0,-0.9474793672561646],"type":"VEC3"},{"bufferView":1,"byteOffset":37440,"componentType":5126,"count":81,"max":[0.04027634859085083,0.040169134736061096],"min":[-0.04027634859085083,-0.040169134736061096],"type":"VEC2"},{"bufferView":0,"byteOffset":17160,"componentType":5125,"count":120,"type":"SCALAR"},{"bufferView":2,"byteOffset":62664,"componentType":5126,"count":100,"max":[4.5278801918029785,1.879668951034546,4.270553112030029],"min":[-4.527901649475098,-0.3173828125,-4.273312568664551],"type":"VEC3"},{"bufferView":2,"byteOffset":63864,"componentType":5126,"count":100,"max":[0.9761090278625488,0.9033542275428772,0.9435009360313416],"min":[-0.9761090278625488,-1.0,-0.9435009360313416],"type":"VEC3"},{"bufferView":1,"byteOffset":38088,"componentType":5126,"count":100,"max":[0.04527822881937027,0.04434152692556381],"min":[-0.04527844116091728,-0.04436645656824112],"type":"VEC2"},{"bufferView":0,"byteOffset":17640,"componentType":5125,"count":120,"type":"SCALAR"},{"bufferView":2,"byteOffset":65064,"componentType":5126,"count":62,"max":[4.027634620666504,4.669551849365234,4.016913414001465],"min":[-4.027634620666504,-0.3173828125,-4.016913414001465],"type":"VEC3"},{"bufferView":2,"byteOffset":65808,"componentType":5126,"count":62,"max":[0.9919838905334473,1.0,0.9389106631278992],"min":[-0.9919830560684204,-1.0,-0.9387714266777039],"type":"VEC3"},{"bufferView":1,"byteOffset":38888,"componentType":5126,"count":62,"max":[0.04027634859085083,0.042583633214235306],"min":[-0.04027634859085083,-0.040169134736061096],"type":"VEC2"},{"bufferView":0,"byteOffset":18120,"componentType":5125,"count":120,"type":"SCALAR"},{"bufferView":2,"byteOffset":66552,"componentType":5126,"count":886,"max":[3.0,3.0,3.0],"min":[-3.0,-3.0,-3.0],"type":"VEC3"},{"bufferView":2,"byteOffset":77184,"componentType":5126,"count":886,"max":[1.0,1.0,1.0],"min":[-1.0,-1.0,-1.0],"type":"VEC3"},{"bufferView":1,"byteOffset":39384,"componentType":5126,"count":886,"max":[0.02106139250099659,0.02106139250099659],"min":[-0.02106139250099659,-0.02106139250099659],"type":"VEC2"},{"bufferView":0,"byteOffset":18600,"componentType":5125,"count":960,"type":"SCALAR"},{"bufferView":2,"byteOffset":87816,"componentType":5126,"count":81,"max":[4.027634620666504,1.1474609375,4.016913414001465],"min":[-4.027634620666504,-0.3173828125,-4.016913414001465],"type":"VEC3"},{"bufferView":2,"byteOffset":88788,"componentType":5126,"count":81,"max":[1.0,0.9793091416358948,0.9474793076515198],"min":[-1.0,-1.0,-0.9474793672561646],"type":"VEC3"},{"bufferView":1,"byteOffset":46472,"componentType":5126,"count":81,"max":[0.04027634859085083,0.040169134736061096],"min":[-0.04027634859085083,-0.040169134736061096],"type":"VEC2"},{"bufferView":0,"byteOffset":22440,"componentType":5125,"count":120,"type":"SCALAR"},{"bufferView":2,"byteOffset":89760,"componentType":5126,"count":100,"max":[4.5278801918029785,1.879668951034546,4.270553112030029],"min":[-4.527901649475098,-0.3173828125,-4.273312568664551],"type":"VEC3"},{"bufferView":2,"byteOffset":90960,"componentType":5126,"count":100,"max":[0.9761090278625488,0.9033542275428772,0.9435009360313416],"min":[-0.9761090278625488,-1.0,-0.9435009360313416],"type":"VEC3"},{"bufferView":1,"byteOffset":47120,"componentType":5126,"count":100,"max":[0.04527822881937027,0.04434152692556381],"min":[-0.04527844116091728,-0.04436645656824112],"type":"VEC2"},{"bufferView":0,"byteOffset":22920,"componentType":5125,"count":120,"type":"SCALAR"},{"bufferView":2,"byteOffset":92160,"componentType":5126,"count":62,"max":[4.027634620666504,4.669551849365234,4.016913414001465],"min":[-4.027634620666504,-0.3173828125,-4.016913414001465],"type":"VEC3"},{"bufferView":2,"byteOffset":92904,"componentType":5126,"count":62,"max":[0.9919838905334473,1.0,0.9389106631278992],"min":[-0.9919830560684204,-1.0,-0.9387714266777039],"type":"VEC3"},{"bufferView":1,"byteOffset":47920,"componentType":5126,"count":62,"max":[0.04027634859085083,0.042583633214235306],"min":[-0.04027634859085083,-0.040169134736061096],"type":"VEC2"},{"bufferView":0,"byteOffset":23400,"componentType":5125,"count":120,"type":"SCALAR"},{"bufferView":2,"byteOffset":93648,"componentType":5126,"count":886,"max":[3.0,3.0,3.0],"min":[-3.0,-3.0,-3.0],"type":"VEC3"},{"bufferView":2,"byteOffset":104280,"componentType":5126,"count":886,"max":[1.0,1.0,1.0],"min":[-1.0,-1.0,-1.0],"type":"VEC3"},{"bufferView":1,"byteOffset":48416,"componentType":5126,"count":886,"max":[0.02106139250099659,0.02106139250099659],"min":[-0.02106139250099659,-0.02106139250099659],"type":"VEC2"},{"bufferView":0,"byteOffset":23880,"componentType":5125,"count":960,"type":"SCALAR"}],"asset":{"extras":{"author":"3RDimens (https://sketchfab.com/3RDimens)","license":"CC-BY-4.0 (http://creativecommons.org/licenses/by/4.0/)","source":"https://sketchfab.com/3d-models/low-poly-military-building-game-ready-241c8df97f8c46cf8864740b446e411e","title":"Low Poly Military Building - Game Ready","godot_game_ready":3},"generator":"Sketchfab-16.75.0","version":"2.0"},"bufferViews":[{"buffer":0,"byteLength":27720,"name":"floatBufferViews","target":34963},{"buffer":0,"byteLength":55504,"byteOffset":27720,"byteStride":8,"name":"floatBufferViews","target":34962},{"buffer":0,"byteLength":114912,"byteOffset":83224,"byteStride":12,"name":"floatBufferViews","target":34962},{"buffer":0,"byteLength":14240,"byteOffset":198136,"byteStride":16,"name":"floatBufferViews","target":34962}],"buffers":[{"byteLength":212376,"uri":"low_poly_military_building.bin"}],"extensionsUsed":["KHR_texture_transform","KHR_materials_specular","KHR_materials_emissive_strength"],"images":[{"uri":"textures/Floor_1_baseColor.jpeg"},{"uri":"textures/Floor_1_metallicRoughness.png"},{"uri":"textures/Floor_1_normal.png"},{"uri":"textures/Outer_Walls_baseColor.jpeg"},{"uri":"textures/Outer_Walls_metallicRoughness.png"},{"uri":"textures/Outer_Walls_normal.png"},{"uri":"textures/Outer_Walls_specularf0.png"},{"uri":"textures/O_floor_metallicRoughness.png"},{"uri":"textures/O_floor_normal.png"},{"uri":"textures/O_floor_specularf0.png"},{"uri":"textures/Roof_1_baseColor.jpeg"},{"uri":"textures/Roof_1_metallicRoughness.png"},{"uri":"textures/Roof_1_normal.png"},{"uri":"textures/Roof_1_specularf0.png"},{"uri":"textures/Ceiling_baseColor.jpeg"},{"uri":"textures/Ceiling_metallicRoughness.png"},{"uri":"textures/Ceiling_emissive.jpeg"},{"uri":"textures/Inner_walls_baseColor.jpeg"},{"uri":"textures/Inner_walls_metallicRoughness.png"},{"uri":"textures/Door_baseColor.jpeg"},{"uri":"textures/Door_metallicRoughness.png"},{"uri":"textures/Door_normal.png"},{"uri":"textures/Door_and_Elevator_baseColor.jpeg"},{"uri":"textures/Door_and_Elevator_metallicRoughness.png"}],"materials":[{"doubleSided":true,"extensions":{"KHR_materials_specular":{"specularColorFactor":[1.0,1.0,1.0],"specularFactor":0.0}},"name":"Floor_1","normalTexture":{"index":2},"occlusionTexture":{"index":1},"pbrMetallicRoughness":{"baseColorTexture":{"extensions":{"KHR_texture_transform":{"offset":[1,0]}},"index":0},"metallicRoughnessTexture":{"index":1}}},{"extensions":{"KHR_materials_specular":{"specularColorFactor":[1.0,1.0,1.0],"specularFactor":1.0,"specularTexture":{"index":6}}},"name":"Outer_Walls","normalTexture":{"index":5},"occlusionTexture":{"index":4,"strength":0.6385637525496184},"pbrMetallicRoughness":{"baseColorTexture":{"index":3},"metallicFactor":0.6871776488318707,"metallicRoughnessTexture":{"index":4},"roughnessFactor":0.9}},{"doubleSided":true,"extensions":{"KHR_materials_specular":{"specularColorFactor":[1.0,1.0,1.0],"specularFactor":1.0,"specularTexture":{"index":9}}},"name":"O_floor","normalTexture":{"index":8,"scale":0.3},"occlusionTexture":{"index":7},"pbrMetallicRoughness":{"baseColorFactor":[0.0,0.0,0.0,1.0],"metallicFactor":0.0,"metallicRoughnessTexture":{"index":7},"roughnessFactor":0.8}},{"doubleSided":true,"extensions":{"KHR_materials_specular":{"specularColorFactor":[1.0,1.0,1.0],"specularFactor":1.0,"specularTexture":{"index":13}}},"name":"Roof_1","normalTexture":{"index":12},"occlusionTexture":{"index":11},"pbrMetallicRoughness":{"baseColorFactor":[0.2314223711857556,0.2314223711857556,0.2314223711857556,1.0],"baseColorTexture":{"index":10},"metallicFactor":0.213192160079911,"metallicRoughnessTexture":{"index":11},"roughnessFactor":0.9}},{"doubleSided":true,"emissiveFactor":[1.0,1.0,1.0],"emissiveTexture":{"index":16},"extensions":{"KHR_materials_emissive_strength":{"emissiveStrength":2.0},"KHR_materials_specular":{"specularColorFactor":[1.0,1.0,1.0],"specularFactor":0.0}},"name":"Ceiling","occlusionTexture":{"index":15},"pbrMetallicRoughness":{"baseColorTexture":{"index":14},"metallicRoughnessTexture":{"index":15}}},{"doubleSided":true,"extensions":{"KHR_materials_specular":{"specularColorFactor":[1.0,1.0,1.0],"specularFactor":0.0,"specularTexture":{"index":9}}},"name":"Inner_walls","normalTexture":{"index":8,"scale":0.5},"occlusionTexture":{"index":18,"strength":0.4},"pbrMetallicRoughness":{"baseColorTexture":{"index":17},"metallicFactor":0.0,"metallicRoughnessTexture":{"index":18},"roughnessFactor":0.5}},{"doubleSided":true,"extensions":{"KHR_materials_specular":{"specularColorFactor":[1.0,1.0,1.0],"specularFactor":0.4319546933500462}},"name":"window","pbrMetallicRoughness":{"baseColorFactor":[0.0,0.0,0.0,1.0],"metallicFactor":0.0,"roughnessFactor":0.3}},{"alphaMode":"BLEND","doubleSided":true,"name":"glass","pbrMetallicRoughness":{"baseColorFactor":[0.742138,0.742138,0.742138,0.3],"roughnessFactor":0.1}},{"doubleSided":true,"name":"Railing","pbrMetallicRoughness":{"baseColorFactor":[0.0,0.0,0.0,1.0],"metallicFactor":0.0,"roughnessFactor":0.4}},{"extensions":{"KHR_materials_specular":{"specularColorFactor":[1.0,1.0,1.0],"specularFactor":0.0}},"name":"Door","normalTexture":{"index":21},"occlusionTexture":{"index":20},"pbrMetallicRoughness":{"baseColorTexture":{"index":19},"metallicRoughnessTexture":{"index":20},"roughnessFactor":0.3}},{"doubleSided":true,"extensions":{"KHR_materials_specular":{"specularColorFactor":[1.0,1.0,1.0],"specularFactor":0.0}},"name":"Door_and_Elevator","pbrMetallicRoughness":{"baseColorTexture":{"index":22},"metallicRoughnessTexture":{"index":23},"roughnessFactor":0.3}}],"meshes":[{"name":"Inner_Floor_Floor_1_0","primitives":[{"attributes":{"NORMAL":1,"POSITION":0,"TANGENT":2,"TEXCOORD_0":3,"TEXCOORD_1":4},"indices":5,"material":0,"mode":4}]},{"name":"Inner_Floor_Outer_Walls_0","primitives":[{"attributes":{"NORMAL":7,"POSITION":6,"TANGENT":8,"TEXCOORD_0":9,"TEXCOORD_1":10},"indices":11,"material":1,"mode":4}]},{"name":"Outer_Floor_O_floor_0","primitives":[{"attributes":{"NORMAL":13,"POSITION":12,"TANGENT":14,"TEXCOORD_0":15},"indices":16,"material":2,"mode":4}]},{"name":"Roof_Roof_1_0","primitives":[{"attributes":{"NORMAL":18,"POSITION":17,"TANGENT":19,"TEXCOORD_0":20,"TEXCOORD_1":21},"indices":22,"material":3,"mode":4}]},{"name":"Roof_Outer_Walls_0","primitives":[{"attributes":{"NORMAL":24,"POSITION":23,"TANGENT":25,"TEXCOORD_0":26,"TEXCOORD_1":27},"indices":28,"material":1,"mode":4}]},{"name":"Roof_Ceiling_0","primitives":[{"attributes":{"NORMAL":30,"POSITION":29,"TEXCOORD_0":31,"TEXCOORD_1":32},"indices":33,"material":4,"mode":4}]},{"name":"Walls_Outer_Walls_0","primitives":[{"attributes":{"NORMAL":35,"POSITION":34,"TANGENT":36,"TEXCOORD_0":37,"TEXCOORD_1":38,"TEXCOORD_2":39,"TEXCOORD_3":40},"indices":41,"material":1,"mode":4}]},{"name":"Walls_Inner_walls_0","primitives":[{"attributes":{"NORMAL":43,"POSITION":42,"TANGENT":44,"TEXCOORD_0":45,"TEXCOORD_1":46,"TEXCOORD_2":47,"TEXCOORD_3":48},"indices":49,"material":5,"mode":4}]},{"name":"window_1_window_0","primitives":[{"attributes":{"NORMAL":51,"POSITION":50,"TEXCOORD_0":52},"indices":53,"material":6,"mode":4}]},{"name":"glass_1_glass_0","primitives":[{"attributes":{"NORMAL":55,"POSITION":54,"TEXCOORD_0":56},"indices":57,"material":7,"mode":4}]},{"name":"window_2_window_0","primitives":[{"attributes":{"NORMAL":59,"POSITION":58,"TEXCOORD_0":60},"indices":61,"material":6,"mode":4}]},{"name":"glass_2_glass_0","primitives":[{"attributes":{"NORMAL":63,"POSITION":62,"TEXCOORD_0":64},"indices":65,"material":7,"mode":4}]},{"name":"Railing_Railing_0","primitives":[{"attributes":{"NORMAL":67,"POSITION":66,"TEXCOORD_0":68},"indices":69,"material":8,"mode":4}]},{"name":"Ladder_Railing_0","primitives":[{"attributes":{"NORMAL":71,"POSITION":70,"TEXCOORD_0":72},"indices":73,"material":8,"mode":4}]},{"name":"Door_frame_Door_0","primitives":[{"attributes":{"NORMAL":75,"POSITION":74,"TANGENT":76,"TEXCOORD_0":77,"TEXCOORD_1":78,"TEXCOORD_2":79,"TEXCOORD_3":80},"indices":81,"material":9,"mode":4}]},{"name":"Door_1_Door_0","primitives":[{"attributes":{"NORMAL":83,"POSITION":82,"TANGENT":84,"TEXCOORD_0":85,"TEXCOORD_1":86},"indices":87,"material":9,"mode":4}]},{"name":"Cylinder_Door_and_Elevator_0","primitives":[{"attributes":{"NORMAL":89,"POSITION":88,"TEXCOORD_0":90},"indices":91,"material":10,"mode":4}]},{"name":"Cylinder_1_Door_and_Elevator_0","primitives":[{"attributes":{"NORMAL":93,"POSITION":92,"TEXCOORD_0":94},"indices":95,"material":10,"mode":4}]},{"name":"Cylinder_2_Door_and_Elevator_0","primitives":[{"attributes":{"NORMAL":97,"POSITION":96,"TEXCOORD_0":98},"indices":99,"material":10,"mode":4}]},{"name":"Sphere_Door_and_Elevator_0","primitives":[{"attributes":{"NORMAL":101,"POSITION":100,"TEXCOORD_0":102},"indices":103,"material":10,"mode":4}]},{"name":"Cylinder_1_Door_and_Elevator_0","primitives":[{"attributes":{"NORMAL":105,"POSITION":104,"TEXCOORD_0":106},"indices":107,"material":10,"mode":4}]},{"name":"Cylinder_1_1_Door_and_Elevator_0","primitives":[{"attributes":{"NORMAL":109,"POSITION":108,"TEXCOORD_0":110},"indices":111,"material":10,"mode":4}]},{"name":"Cylinder_2_1_Door_and_Elevator_0","primitives":[{"attributes":{"NORMAL":113,"POSITION":112,"TEXCOORD_0":114},"indices":115,"material":10,"mode":4}]},{"name":"Sphere_1_Door_and_Elevator_0","primitives":[{"attributes":{"NORMAL":117,"POSITION":116,"TEXCOORD_0":118},"indices":119,"material":10,"mode":4}]}],"nodes":[{"children":[1],"matrix":[1.0,0.0,0.0,0.0,0.0,2.220446049250313e-16,-1.0,0.0,0.0,1.0,2.220446049250313e-16,0.0,0.0,0.0,0.0,1.0],"name":"Sketchfab_model"},{"children":[2],"matrix":[0.009999999776482582,0.0,0.0,0.0,0.0,0.0,0.009999999776482582,0.0,0.0,-0.009999999776482582,0.0,0.0,0.0,0.0,0.0,1.0],"name":"Single Story Control Building.fbx"},{"children":[3],"name":"RootNode"},{"children":[4,7,9,13,16,20,24,26,28],"name":"Single_Story_Control_Building"},{"children":[5,6],"matrix":[1.0,0.0,0.0,0.0,0.0,1.0,0.0,0.0,0.0,0.0,1.0,0.0,-1169.8150634765625,-460.0,-740.00244140625,1.0],"name":"Inner_Floor"},{"mesh":0,"name":"Inner_Floor_Floor_1_0-col"},{"mesh":1,"name":"Inner_Floor_Outer_Walls_0-col"},{"children":[8],"matrix":[1.0,0.0,0.0,0.0,0.0,1.0,0.0,0.0,0.0,0.0,1.0,0.0,-2489.81640625,-471.9999694824219,131.011962890625,1.0],"name":"Outer_Floor"},{"mesh":2,"name":"Outer_Floor_O_floor_0-col"},{"children":[10,11,12],"matrix":[1.0,0.0,0.0,0.0,0.0,1.0,0.0,0.0,0.0,0.0,1.0,0.0,-1169.8150634765625,4.56390380859375,-740.00244140625,1.0],"name":"Roof"},{"mesh":3,"name":"Roof_Roof_1_0-col"},{"mesh":4,"name":"Roof_Outer_Walls_0-col"},{"mesh":5,"name":"Roof_Ceiling_0-col"},{"children":[14,15],"matrix":[1.0,0.0,0.0,0.0,0.0,1.0,0.0,0.0,0.0,0.0,1.0,0.0,-1169.8150634765625,-392.0,-740.00244140625,1.0],"name":"Walls"},{"mesh":6,"name":"Walls_Outer_Walls_0-col"},{"mesh":7,"name":"Walls_Inner_walls_0-col"},{"children":[17,18],"matrix":[1.0,0.0,0.0,0.0,0.0,1.0,0.0,0.0,0.0,0.0,1.0,0.0,-659.8175048828125,-341.4360046386719,13.0126953125,1.0],"name":"window_1"},{"mesh":8,"name":"window_1_window_0-col"},{"children":[19],"matrix":[-1.0,1.2246467991473532e-16,1.224646799147353e-16,0.0,-1.2246467991473532e-16,-2.220446049250313e-16,-1.0,0.0,-1.224646799147353e-16,-1.0,2.220446049250313e-16,0.0,-324.993896484375,95.99990844726562,1.50146484375,1.0],"name":"glass_1"},{"mesh":9,"name":"glass_1_glass_0"},{"children":[21,22],"matrix":[2.220446049250313e-16,0.0,1.0,0.0,0.0,1.0,0.0,0.0,-1.0,0.0,2.220446049250313e-16,0.0,-21.1212158203125,-341.4360046386719,-183.990478515625,1.0],"name":"window_2"},{"mesh":10,"name":"window_2_window_0-col"},{"children":[23],"matrix":[1.0,0.0,0.0,0.0,0.0,2.220446049250313e-16,1.0,0.0,0.0,-1.0,2.220446049250313e-16,0.0,-442.99932861328125,95.99990844726562,1.3977527618408203,1.0],"name":"glass_2"},{"mesh":11,"name":"glass_2_glass_0"},{"children":[25],"matrix":[0.0,0.0,0.1348460167646408,0.0,-0.1348460167646408,0.0,0.0,0.0,0.0,-0.13484600186347961,0.0,0.0,-17.9046630859375,77.6998519897461,0.0,1.0],"name":"Railing"},{"mesh":12,"name":"Railing_Railing_0-col"},{"children":[27],"matrix":[0.13484600186347961,0.0,0.0,0.0,0.0,2.9941823900773916e-17,0.13484598696231842,0.0,0.0,-0.13484598696231842,2.9941823900773916e-17,0.0,-2497.5068359375,-7.47065544128418,-1260.406494140625,1.0],"name":"Ladder"},{"mesh":13,"name":"Ladder_Railing_0-col"},{"children":[29,31],"matrix":[1.0,0.0,0.0,0.0,0.0,1.0,0.0,0.0,0.0,0.0,1.0,0.0,-2227.40185546875,-439.09796142578125,16.424560546875,1.0],"name":"Door"},{"children":[30],"matrix":[1.0,0.0,0.0,0.0,0.0,1.0,0.0,0.0,0.0,0.0,1.0,0.0,5.18798828125,10.679984092712402,0.0,1.0],"name":"Door_frame"},{"mesh":14,"name":"Door_frame_Door_0-col"},{"children":[32],"matrix":[1.0,0.0,0.0,0.0,0.0,1.0,0.0,0.0,0.0,0.0,1.0,0.0,70.74000549316406,1.0099999904632568,0.0,1.0],"name":"Door_Pivot"},{"children":[33,34,43],"matrix":[1.0,0.0,0.0,0.0,0.0,1.0,0.0,0.0,0.0,0.0,1.0,0.0,-70.74000549316406,9.669983863830566,0.0,1.0],"name":"Door_1"},{"mesh":15,"name":"Door_1_Door_0-col"},{"children":[35,37,39,41],"matrix":[1.5,0.0,0.0,0.0,0.0,1.5,0.0,0.0,0.0,0.0,1.5,0.0,-47.66236114501953,135.77481079101562,5.4229736328125,1.0],"name":"Door_handle"},{"children":[36],"matrix":[0.0,-1.0,0.0,0.0,0.0,0.0,1.0,0.0,-1.0,0.0,0.0,0.0,0.0,0.0,-1.348876953125,1.0],"name":"Cylinder"},{"mesh":16,"name":"Cylinder_Door_and_Elevator_0"},{"children":[38],"matrix":[0.0,-0.45577067136764526,0.0,0.0,0.0,0.0,0.45577067136764526,0.0,-0.45577067136764526,0.0,0.0,0.0,0.0,0.0,-0.640869140625,1.0],"name":"Cylinder_1"},{"mesh":17,"name":"Cylinder_1_Door_and_Elevator_0"},{"children":[40],"matrix":[0.0,-0.4153258800506592,0.0,0.0,0.0,0.0,0.4153258800506592,0.0,-0.4153258800506592,0.0,0.0,0.0,0.0,0.0,0.0,1.0],"name":"Cylinder_2"},{"mesh":18,"name":"Cylinder_2_Door_and_Elevator_0"},{"children":[42],"matrix":[0.0,-1.0,0.0,0.0,0.0,0.0,1.0,0.0,-1.0,0.0,0.0,0.0,0.03662109375,0.08330345153808594,3.43017578125,1.0],"name":"Sphere"},{"mesh":19,"name":"Sphere_Door_and_Elevator_0"},{"children":[44,46,48,50],"matrix":[-1.5,1.8369701987210302e-16,1.8369701987210294e-16,0.0,1.8369701987210302e-16,1.5,1.8369701987210302e-16,0.0,-1.8369701987210294e-16,1.8369701987210302e-16,-1.5,0.0,-47.66236114501953,135.77481079101562,-5.657958984375,1.0],"name":"Door_handle_1"},{"children":[45],"matrix":[0.0,-1.0,0.0,0.0,0.0,0.0,1.0,0.0,-1.0,0.0,0.0,0.0,0.0,0.0,-1.348876953125,1.0],"name":"Cylinder_1"},{"mesh":20,"name":"Cylinder_1_Door_and_Elevator_0"},{"children":[47],"matrix":[0.0,-0.45577067136764526,0.0,0.0,0.0,0.0,0.45577067136764526,0.0,-0.45577067136764526,0.0,0.0,0.0,0.0,0.0,-0.640869140625,1.0],"name":"Cylinder_1_1"},{"mesh":21,"name":"Cylinder_1_1_Door_and_Elevator_0"},{"children":[49],"matrix":[0.0,-0.4153258800506592,0.0,0.0,0.0,0.0,0.4153258800506592,0.0,-0.4153258800506592,0.0,0.0,0.0,0.0,0.0,0.0,1.0],"name":"Cylinder_2_1"},{"mesh":22,"name":"Cylinder_2_1_Door_and_Elevator_0"},{"children":[51],"matrix":[0.0,-1.0,0.0,0.0,0.0,0.0,1.0,0.0,-1.0,0.0,0.0,0.0,0.03662109375,0.08330345153808594,3.43017578125,1.0],"name":"Sphere_1"},{"mesh":23,"name":"Sphere_1_Door_and_Elevator_0"}],"samplers":[{"magFilter":9729,"minFilter":9987,"wrapS":10497,"wrapT":10497}],"scene":0,"scenes":[{"name":"low_poly_military_building","nodes":[0]}],"textures":[{"sampler":0,"source":0},{"sampler":0,"source":1},{"sampler":0,"source":2},{"sampler":0,"source":3},{"sampler":0,"source":4},{"sampler":0,"source":5},{"sampler":0,"source":6},{"sampler":0,"source":7},{"sampler":0,"source":8},{"sampler":0,"source":9},{"sampler":0,"source":10},{"sampler":0,"source":11},{"sampler":0,"source":12},{"sampler":0,"source":13},{"sampler":0,"source":14},{"sampler":0,"source":15},{"sampler":0,"source":16},{"sampler":0,"source":17},{"sampler":0,"source":18},{"sampler":0,"source":19},{"sampler":0,"source":20},{"sampler":0,"source":21},{"sampler":0,"source":22},{"sampler":0,"source":23}]}